<svg width="64" height="50" viewBox="0 0 64 50" fill="none" xmlns="http://www.w3.org/2000/svg">
<path d="M55.1161 22.0352C55.7274 26.9157 54.7986 31.8652 52.4595 36.1921C50.1204 40.519 46.488 44.007 42.0698 46.1686C37.6516 48.3302 32.6684 49.0575 27.8167 48.2487C22.965 47.44 18.4872 45.1356 15.009 41.6577" stroke="#FFE57F" stroke-width="2" stroke-miterlimit="10" stroke-linecap="round" stroke-linejoin="round"/>
<path d="M8.24931 27.6581C7.87175 24.3538 8.19659 21.0071 9.20256 17.8371C10.2085 14.6672 11.8729 11.7455 14.0867 9.26359C16.3005 6.78167 19.0136 4.79551 22.0485 3.43521C25.0833 2.07491 28.3713 1.37119 31.6971 1.37014C34.7962 1.36603 37.8656 1.97413 40.7291 3.15952C43.5926 4.34491 46.1937 6.08424 48.3831 8.27765" stroke="#FFE57F" stroke-width="2" stroke-miterlimit="10" stroke-linecap="round" stroke-linejoin="round"/>
<path d="M1 17.7876L8.2492 27.6574L17.4171 19.8397" stroke="#FFE57F" stroke-width="2" stroke-miterlimit="10" stroke-linecap="round" stroke-linejoin="round"/>
<path d="M62.5646 32.1522L55.1164 22.0352L46.1475 30.1001" stroke="#FFE57F" stroke-width="2" stroke-miterlimit="10" stroke-linecap="round" stroke-linejoin="round"/>
</svg>
