<svg width="64" height="50" viewBox="0 0 64 50" fill="none" xmlns="http://www.w3.org/2000/svg">
<path d="M55.1161 22.0361C55.7274 26.9167 54.7986 31.8662 52.4595 36.1931C50.1204 40.52 46.488 44.0079 42.0698 46.1696C37.6516 48.3312 32.6684 49.0585 27.8167 48.2497C22.965 47.441 18.4872 45.1366 15.009 41.6587" stroke="#2CA6FF" stroke-width="2" stroke-miterlimit="10" stroke-linecap="round" stroke-linejoin="round"/>
<path d="M8.24931 27.6591C7.87175 24.3548 8.19659 21.0081 9.20256 17.8381C10.2085 14.6681 11.8729 11.7465 14.0867 9.26457C16.3005 6.78265 19.0136 4.79648 22.0485 3.43619C25.0833 2.07589 28.3713 1.37216 31.6971 1.37111C34.7962 1.367 37.8656 1.9751 40.7291 3.16049C43.5926 4.34588 46.1937 6.08522 48.3831 8.27863" stroke="#2CA6FF" stroke-width="2" stroke-miterlimit="10" stroke-linecap="round" stroke-linejoin="round"/>
<path d="M1 17.7886L8.2492 27.6584L17.4171 19.8407" stroke="#2CA6FF" stroke-width="2" stroke-miterlimit="10" stroke-linecap="round" stroke-linejoin="round"/>
<path d="M62.5646 32.1532L55.1164 22.0361L46.1475 30.1011" stroke="#2CA6FF" stroke-width="2" stroke-miterlimit="10" stroke-linecap="round" stroke-linejoin="round"/>
</svg>
