<svg width="48" height="48" viewBox="0 0 48 48" fill="none" xmlns="http://www.w3.org/2000/svg">
<circle cx="24" cy="24" r="24" fill="white"/>
<circle cx="23.9998" cy="24" r="17.1429" fill="#FFE57F"/>
<path d="M25.3922 23.5L30.5539 28.6618C30.8003 28.9081 30.8003 29.3076 30.5539 29.5539C30.3076 29.8003 29.9081 29.8003 29.6618 29.5539L24.5 24.3922L19.3382 29.5539C19.0919 29.8003 18.6924 29.8003 18.4461 29.5539C18.1997 29.3076 18.1997 28.9081 18.4461 28.6618L23.6078 23.5L18.4461 18.3382C18.1997 18.0919 18.1997 17.6924 18.4461 17.4461C18.6924 17.1997 19.0919 17.1997 19.3382 17.4461L24.5 22.6078L29.6618 17.4461C29.9081 17.1997 30.3076 17.1997 30.5539 17.4461C30.8003 17.6924 30.8003 18.0919 30.5539 18.3382L25.3922 23.5Z" fill="#333333"/>
</svg>
