<svg width="152" height="152" viewBox="0 0 152 152" fill="none" xmlns="http://www.w3.org/2000/svg">
<path d="M69.4355 85.0617L36.7304 42.7665C36.3498 42.2824 36.1599 41.6755 36.1966 41.0608C36.2333 40.446 36.4941 39.8661 36.9295 39.4306C37.365 38.9952 37.9449 38.7344 38.5596 38.6977C39.1744 38.661 39.7812 38.8509 40.2654 39.2315L82.5606 71.9367C84.5096 73.47 85.7697 75.7147 86.0637 78.1771C86.3577 80.6394 85.6614 83.1177 84.1281 85.0667C82.5948 87.0158 80.3501 88.2759 77.8877 88.5698C75.4254 88.8638 72.9471 88.1675 70.998 86.6343C70.4193 86.171 69.8951 85.6434 69.4355 85.0617Z" stroke="#333333" stroke-width="2" stroke-miterlimit="10" stroke-linecap="round" stroke-linejoin="round"/>
<path d="M22.9657 22.9666C10.6963 35.2362 3.06081 51.3806 1.36021 68.6488C-0.340381 85.917 3.99916 103.241 13.6394 117.668C23.2797 132.095 37.6242 142.734 54.2289 147.77C70.8335 152.807 88.6709 151.931 104.702 145.29C120.733 138.65 133.965 126.656 142.144 111.353C150.324 96.0505 152.944 78.3849 149.559 61.3666C146.173 44.3483 136.992 29.0303 123.579 18.0226C110.165 7.01499 93.3503 0.998727 75.9985 0.998962V33.4991" stroke="#333333" stroke-width="2" stroke-miterlimit="10" stroke-linecap="round" stroke-linejoin="round"/>
</svg>
