<svg width="688" height="630" viewBox="0 0 688 630" fill="none" xmlns="http://www.w3.org/2000/svg">
<mask id="mask0_192_1351" style="mask-type:alpha" maskUnits="userSpaceOnUse" x="0" y="0" width="688" height="630">
<rect width="688" height="630" rx="32" fill="white"/>
</mask>
<g mask="url(#mask0_192_1351)">
<rect y="-33" width="688" height="772" rx="32" fill="white"/>
<path d="M992.901 610.661C1008.57 613.604 1023.43 619.847 1036.5 628.973L1036.64 628.934C1037.7 629.563 1038.48 630.578 1038.81 631.768C1039.14 632.957 1039 634.229 1038.42 635.318C1037.8 636.392 1036.79 637.181 1035.59 637.514C1034.4 637.847 1033.12 637.698 1032.04 637.099C1028.28 634.556 1024.41 632.203 1020.42 630.05C1008.35 623.539 995.046 619.642 981.373 618.612C970.805 617.892 960.262 618.901 949.703 618.376C932.124 617.309 915.193 611.344 900.826 601.157C893.113 595.729 886.168 589.284 880.18 581.997C874.208 574.727 868.836 566.986 863.356 559.35C853.291 545.322 842.085 530.531 825.736 523.553C811.353 517.398 794.86 517.813 779.546 517.109C763.139 516.359 746.593 514.673 732.05 506.476C718.556 498.87 707.942 487.674 698.158 475.47C688.373 463.266 679.438 450.231 668.937 438.623C659.201 427.898 647.83 418.465 633.677 414.392C540.888 391.714 534.528 374.285 542.947 368.405C544.704 360.175 548.092 347.377 547.58 362.026C547.068 376.675 613.541 399.719 646.841 409.409C675.182 422.814 690.604 452.763 710.309 475.535C719.852 486.603 731.039 497.122 744.992 502.226C760.404 507.866 776.943 507.453 793.243 508.309C809.542 509.165 826.39 511.329 840.088 520.812C855.618 531.565 866.177 547.42 877.015 562.527C882.156 570.106 887.951 577.22 894.335 583.787C900.989 590.297 908.596 595.756 916.893 599.977C925.189 604.195 934.112 607.046 943.317 608.421C944.128 608.545 944.949 608.65 945.752 608.746C946.288 608.81 946.833 608.855 947.361 608.891C948.545 608.987 949.702 609.044 950.87 609.084C953.363 609.18 955.915 609.214 958.343 609.13C970.02 609.023 981.438 608.699 992.901 610.661Z" fill="#2CA6FF"/>
<path d="M636.224 435.027L635.285 434.481C633.496 433.124 631.92 431.483 630.629 429.629C629.117 427.457 628.032 425.042 627.437 422.535L627.436 422.532C626.266 417.645 626.985 412.716 629.382 408.763C631.909 404.717 636.011 401.991 640.829 401.183C645.568 400.57 650.573 401.734 654.91 404.505L654.936 404.521L654.963 404.537C660.653 407.852 666.055 411.706 671.087 416.043L671.096 416.051L671.105 416.059C677.467 421.368 683.362 427.243 688.706 433.602C692.08 437.635 693.984 442.621 694.091 447.611C694.03 451.296 692.89 454.751 690.839 457.555C688.783 460.366 685.889 462.419 682.511 463.455C679.129 464.491 675.398 464.468 671.783 463.357C668.177 462.249 664.859 460.113 662.254 457.207C659.606 453.951 656.781 450.844 653.794 447.902L653.912 447.768C653.204 447.14 652.491 446.516 651.783 445.895L651.782 445.894C651.072 445.272 650.366 444.653 649.664 444.031L649.568 444.14C645.332 440.778 640.871 437.73 636.224 435.027Z" fill="#2CA6FF" fill-opacity="0.65" stroke="#2CA6FF" stroke-width="3"/>
<path d="M445.334 336.938C433.487 339.008 422.278 343.783 412.578 350.891C402.877 357.999 394.948 367.25 389.406 377.922C386.258 383.951 383.96 390.386 382.578 397.045C381.451 402.551 389.923 404.709 391.071 399.166C393.375 388.605 398.098 378.723 404.868 370.296C411.638 361.869 420.27 355.127 430.086 350.601C435.675 348.032 441.599 346.266 447.682 345.356C448.239 345.201 448.76 344.938 449.215 344.582C449.669 344.225 450.05 343.783 450.333 343.28C450.617 342.776 450.799 342.222 450.868 341.648C450.937 341.075 450.893 340.493 450.737 339.937C450.41 338.822 449.661 337.878 448.648 337.308C447.636 336.737 446.441 336.584 445.318 336.882L445.334 336.938Z" fill="#2CA6FF"/>
<path d="M421.232 345.11C414.521 344.429 408.067 342.166 402.399 338.508C396.731 334.85 392.012 329.901 388.627 324.066C385.805 319.19 378.24 323.615 381.073 328.472C385.272 335.616 391.124 341.649 398.136 346.065C405.148 350.482 413.116 353.153 421.373 353.855C422.529 353.831 423.629 353.353 424.435 352.524C425.241 351.695 425.687 350.582 425.679 349.426C425.637 348.272 425.15 347.179 424.322 346.375C423.493 345.571 422.386 345.118 421.232 345.11V345.11Z" fill="#2CA6FF"/>
<path d="M455.747 229.355C467.34 233.523 477.517 240.885 485.104 250.591C492.691 260.296 497.378 271.951 498.623 284.207C498.669 285.359 499.159 286.449 499.989 287.25C500.819 288.05 501.926 288.5 503.08 288.505C504.234 288.476 505.331 287.994 506.133 287.164C506.935 286.333 507.379 285.22 507.367 284.066C506.329 273.047 502.853 262.397 497.193 252.887C491.532 243.376 483.828 235.243 474.637 229.077C469.429 225.605 463.779 222.845 457.839 220.87C456.713 220.587 455.52 220.759 454.519 221.348C453.518 221.938 452.79 222.899 452.492 224.022C452.24 225.148 452.432 226.327 453.028 227.315C453.624 228.303 454.579 229.023 455.692 229.325L455.747 229.355Z" fill="#2CA6FF"/>
<path d="M497.095 248.401C504.536 237.885 509.663 225.911 512.137 213.269C512.393 212.146 512.206 210.967 511.615 209.978C511.024 208.989 510.075 208.266 508.965 207.958C507.838 207.689 506.651 207.874 505.659 208.473C504.667 209.072 503.95 210.036 503.662 211.158C501.332 223.025 496.494 234.258 489.472 244.104C488.909 245.114 488.768 246.306 489.082 247.42C489.396 248.534 490.137 249.478 491.145 250.046C492.159 250.587 493.342 250.718 494.449 250.412C495.556 250.106 496.504 249.386 497.095 248.401V248.401Z" fill="#2CA6FF"/>
<path d="M525.649 290.443C529.837 278.933 538.218 269.429 549.113 263.834C560.009 258.239 572.616 256.965 584.411 260.268C589.826 261.726 591.965 253.243 586.532 251.776C572.496 247.927 557.523 249.558 544.645 256.337C531.768 263.116 521.948 274.537 517.177 288.286C516.894 289.42 517.07 290.62 517.667 291.625C518.264 292.63 519.233 293.359 520.364 293.653C521.49 293.905 522.67 293.714 523.658 293.117C524.646 292.521 525.366 291.567 525.667 290.453L525.649 290.443Z" fill="#2CA6FF"/>
<path d="M553.335 254.416C553.462 242.373 557.532 230.703 564.921 221.192C565.713 220.355 566.153 219.246 566.152 218.094C566.15 216.942 565.707 215.834 564.913 214.999C564.082 214.194 562.969 213.746 561.812 213.753C560.656 213.76 559.548 214.22 558.727 215.035C549.712 226.282 544.707 240.215 544.504 254.627C544.447 260.26 553.282 260.17 553.248 254.486L553.335 254.416Z" fill="#2CA6FF"/>
<path d="M551.554 327.849C565.244 328.901 578.528 322.986 588.931 314.329C601.404 303.983 609.565 289.42 617.066 275.437C619.717 270.481 612.122 266.176 609.442 271.14C602.433 284.209 595.047 297.566 583.684 307.42C574.758 315.148 563.302 320.141 551.362 319.195C550.206 319.219 549.106 319.697 548.3 320.526C547.495 321.355 547.048 322.468 547.056 323.624C547.099 324.778 547.585 325.871 548.413 326.675C549.242 327.479 550.349 327.932 551.503 327.94L551.554 327.849Z" fill="#2CA6FF"/>
<path d="M570.352 322.543C577.896 329.579 587.152 334.516 597.198 336.862C607.244 339.208 617.729 338.882 627.609 335.917C633.006 334.198 630.677 325.744 625.245 327.442C616.874 330.009 607.978 330.339 599.44 328.4C590.903 326.461 583.022 322.32 576.581 316.39C572.474 312.528 566.317 318.722 570.406 322.574L570.352 322.543Z" fill="#2CA6FF"/>
<path d="M524.3 387.519C529.466 398.632 530.951 411.104 528.541 423.119C526.131 435.135 519.95 446.069 510.898 454.33C506.743 458.153 512.965 464.303 517.099 460.516C528.145 450.405 535.429 436.843 537.757 422.051C539.739 408.754 537.697 395.167 531.895 383.04C531.308 382.042 530.349 381.318 529.229 381.025C528.108 380.733 526.918 380.897 525.918 381.48C524.936 382.079 524.224 383.035 523.93 384.146C523.636 385.258 523.783 386.441 524.341 387.447L524.3 387.519Z" fill="#2CA6FF"/>
<path d="M536.487 419.955C543.8 421.859 550.588 425.39 556.345 430.284C562.102 435.177 566.68 441.308 569.737 448.218C570.33 449.214 571.291 449.937 572.413 450.231C573.534 450.525 574.726 450.366 575.731 449.788C576.713 449.186 577.423 448.228 577.714 447.114C578.004 446 577.853 444.816 577.291 443.812C573.649 435.886 568.284 428.874 561.586 423.287C554.889 417.699 547.028 413.678 538.578 411.517C533.122 410.131 530.993 418.596 536.467 419.991L536.487 419.955Z" fill="#2CA6FF"/>
<path d="M432.428 433.571C446.225 431.518 459.125 425.491 469.552 416.225C479.978 406.959 487.48 394.857 491.14 381.397C492.543 375.951 484.06 373.812 482.647 379.276C476.723 402.455 456.077 421.43 432.286 424.826C431.141 424.88 430.059 425.37 429.262 426.195C428.465 427.02 428.013 428.118 427.999 429.265C428.017 430.423 428.494 431.526 429.324 432.333C430.154 433.14 431.27 433.585 432.428 433.571V433.571Z" fill="#2CA6FF"/>
<path d="M471.677 469.477C477.26 460.949 480.637 451.167 481.505 441.011C482.372 430.855 480.703 420.642 476.647 411.291C476.062 410.294 475.111 409.566 473.996 409.262C472.881 408.958 471.691 409.104 470.682 409.667C469.705 410.273 468.998 411.231 468.708 412.343C468.417 413.456 468.566 414.638 469.123 415.644C472.425 423.675 473.691 432.399 472.809 441.038C471.926 449.677 468.922 457.964 464.063 465.162C463.493 466.174 463.346 467.372 463.656 468.492C463.966 469.612 464.707 470.565 465.716 471.14C466.733 471.683 467.92 471.813 469.03 471.503C470.14 471.193 471.088 470.468 471.677 469.477V469.477Z" fill="#2CA6FF"/>
<path d="M538.495 291C514.775 268.578 477.369 269.631 454.947 293.351C432.525 317.071 433.578 354.477 457.298 376.899C481.018 399.321 518.424 398.269 540.846 374.548C563.268 350.828 562.215 313.423 538.495 291Z" fill="#2CA6FF"/>
<path d="M425.315 352.815C434.191 351.343 440.732 356.125 446.8 362.759C449.043 352.36 441.746 335.321 439.992 324.834C437.34 333.17 428.714 340.282 421.213 345.48" fill="#2CA6FF"/>
<path d="M440.905 323.849C439.506 315.562 435.197 305.468 430.874 297.175C445.515 300.001 447.694 298.754 455.34 293.636" fill="#2CA6FF"/>
<path d="M486.548 280.543C492.674 276.855 494.271 270.304 493.142 263.312C495.925 263.074 498.694 262.688 501.436 262.155C502.906 263.221 510.222 273.892 513.343 281.911" fill="#2CA6FF"/>
<path d="M467.053 384.221C467.053 384.221 478.101 389.663 473.439 399.033C473.746 399.206 480.755 403.156 481.062 403.33C487.978 393.468 501.039 392.975 501.039 392.975" fill="#2CA6FF"/>
<path d="M514.349 389.337C518.541 389.629 523.686 388.102 525.973 391.985C526.363 392.615 526.845 393.183 527.402 393.672C529.209 394.69 533.642 391.048 535.5 391.975C535.007 388.627 531.264 379.852 536.873 373.872" fill="#2CA6FF"/>
<path d="M556.783 339.056C558.147 334.017 560.055 328.689 564.668 326.291C564.83 324.442 564.399 322.589 563.436 321.002C562.474 319.978 561.296 319.184 559.986 318.676C555.095 316.205 551.748 309.557 551.188 309.242" fill="#2CA6FF"/>
<path d="M516.013 277.68C518.198 278.744 521.186 277.287 524.036 275.06C525.869 277.029 528.076 278.612 530.527 279.719C528.994 282.735 534.979 288.418 534.979 288.418" fill="#2CA6FF"/>
<path d="M505.412 315.914C514.938 321.284 518.307 333.358 512.938 342.884C507.569 352.41 495.494 355.78 485.968 350.41C476.442 345.041 473.073 332.966 478.442 323.44C483.811 313.914 495.886 310.545 505.412 315.914Z" fill="white" fill-opacity="0.5" stroke="white" stroke-width="2"/>
<path d="M446.924 305.103C431.527 290.705 412.144 281.29 391.309 278.087C390.186 277.837 389.01 278.026 388.022 278.616C387.035 279.206 386.31 280.152 385.998 281.259C385.724 282.387 385.905 283.578 386.502 284.574C387.099 285.57 388.064 286.29 389.188 286.58C408.488 289.406 426.472 298.033 440.756 311.315C444.856 315.149 451.041 308.947 446.924 305.103V305.103Z" fill="#2CA6FF"/>
<path d="M427.465 290.088C422.501 278.229 422.16 264.941 426.51 252.844C426.788 251.72 426.609 250.532 426.013 249.54C425.416 248.548 424.451 247.833 423.328 247.551C422.206 247.295 421.028 247.484 420.042 248.077C419.055 248.67 418.337 249.622 418.036 250.733C413.161 265.025 413.841 280.627 419.941 294.441C420.531 295.437 421.489 296.162 422.609 296.459C423.728 296.756 424.919 296.601 425.926 296.029C426.886 295.417 427.579 294.464 427.865 293.362C428.151 292.259 428.008 291.089 427.465 290.088V290.088Z" fill="#2CA6FF"/>
<path d="M524.087 315.137L524.085 315.123L524.082 315.108C523.766 313.538 523.905 311.909 524.484 310.415C524.8 309.777 525.389 309.222 526.027 308.893C526.677 308.558 527.251 308.517 527.595 308.683C528.46 309.261 529.156 310.06 529.609 310.997C532.773 317.836 532.998 322.392 533.343 329.354C533.365 329.795 533.387 330.246 533.411 330.707C533.441 331.792 533.163 332.864 532.608 333.796L532.602 333.807L532.596 333.817C532.364 334.253 532.019 334.617 531.596 334.871C531.179 335.121 530.704 335.255 530.218 335.258C529.458 335.18 528.865 334.696 528.385 333.933C527.898 333.158 527.571 332.159 527.345 331.214L527.345 331.214L527.342 331.203C525.941 325.916 524.854 320.552 524.087 315.137Z" fill="white" fill-opacity="0.5" stroke="white"/>
<path d="M530.29 327.313C530.768 327.393 531.277 326.87 531.467 326.406C531.601 326.043 531.589 325.642 531.434 325.288C531.278 324.934 530.991 324.654 530.633 324.508C530.262 324.391 529.861 324.421 529.512 324.592C529.163 324.763 528.893 325.062 528.758 325.427C528.69 325.656 528.679 325.899 528.726 326.133C528.772 326.368 528.876 326.588 529.027 326.774C529.177 326.959 529.371 327.106 529.591 327.2C529.811 327.294 530.051 327.333 530.29 327.313" fill="white"/>
<path d="M529.715 331.964C530.047 332.009 530.372 331.644 530.488 331.353C530.583 331.111 530.58 330.842 530.479 330.603C530.378 330.364 530.188 330.173 529.949 330.073C529.698 329.989 529.425 330.007 529.187 330.121C528.949 330.236 528.765 330.439 528.674 330.687C528.627 330.843 528.619 331.008 528.651 331.167C528.683 331.327 528.753 331.476 528.856 331.602C528.959 331.728 529.091 331.827 529.24 331.89C529.39 331.953 529.553 331.979 529.715 331.964" fill="white"/>
<path d="M530.23 316.734C530.411 316.836 530.648 316.541 530.732 316.35C530.79 316.195 530.786 316.024 530.721 315.872C530.655 315.72 530.534 315.599 530.382 315.534C530.226 315.491 530.059 315.507 529.914 315.579C529.768 315.65 529.654 315.772 529.592 315.922C529.561 316.019 529.554 316.123 529.572 316.223C529.59 316.323 529.632 316.418 529.695 316.498C529.758 316.578 529.84 316.641 529.933 316.683C530.026 316.724 530.128 316.741 530.23 316.734" fill="white"/>
<path d="M526.542 312.846C526.704 312.938 526.96 312.654 527.044 312.463C527.096 312.309 527.087 312.141 527.021 311.993C526.954 311.845 526.834 311.728 526.684 311.665C526.601 311.642 526.514 311.638 526.428 311.652C526.343 311.666 526.262 311.698 526.19 311.746C526.119 311.795 526.058 311.858 526.013 311.931C525.968 312.005 525.939 312.088 525.929 312.173C525.919 312.259 525.927 312.346 525.953 312.428C525.98 312.51 526.023 312.586 526.081 312.65C526.14 312.714 526.211 312.764 526.29 312.798C526.37 312.832 526.456 312.849 526.542 312.846Z" fill="white"/>
<path d="M527.646 320.515C527.826 320.502 527.998 320.437 528.141 320.327C528.284 320.216 528.39 320.066 528.448 319.895C528.512 319.773 528.549 319.637 528.557 319.499C528.565 319.361 528.543 319.222 528.493 319.093C528.443 318.964 528.366 318.847 528.267 318.749C528.168 318.652 528.05 318.577 527.92 318.53C527.789 318.482 527.651 318.462 527.512 318.472C527.374 318.483 527.24 318.522 527.118 318.588C526.996 318.655 526.89 318.746 526.806 318.857C526.723 318.967 526.664 319.094 526.633 319.23C526.586 319.383 526.577 319.546 526.606 319.705C526.636 319.863 526.704 320.011 526.803 320.138C526.903 320.264 527.032 320.364 527.178 320.43C527.325 320.496 527.486 320.525 527.646 320.515" fill="white"/>
<path d="M530.357 322.59C530.533 322.577 530.701 322.513 530.842 322.407C530.982 322.3 531.089 322.155 531.148 321.989C531.229 321.791 531.242 321.572 531.186 321.366C531.13 321.16 531.007 320.978 530.838 320.848C530.668 320.718 530.461 320.648 530.247 320.647C530.033 320.647 529.826 320.717 529.656 320.846C529.486 320.975 529.363 321.157 529.306 321.363C529.249 321.568 529.261 321.787 529.341 321.986C529.421 322.184 529.563 322.35 529.747 322.459C529.931 322.569 530.145 322.615 530.357 322.59" fill="white"/>
<path d="M527.378 317.698C527.792 317.765 528.242 317.304 528.402 316.894C528.464 316.737 528.495 316.569 528.492 316.4C528.49 316.231 528.454 316.064 528.386 315.909C528.319 315.753 528.222 315.613 528.1 315.496C527.978 315.378 527.835 315.286 527.677 315.224C527.35 315.12 526.996 315.145 526.687 315.294C526.377 315.442 526.136 315.703 526.013 316.023C525.943 316.234 525.928 316.459 525.969 316.677C526.011 316.895 526.107 317.099 526.249 317.27C526.391 317.441 526.574 317.572 526.781 317.652C526.988 317.733 527.212 317.759 527.432 317.728" fill="white"/>
<path d="M486.533 300.8L486.514 300.795L486.495 300.79C484.935 300.426 483.51 299.625 482.386 298.482C481.946 297.916 481.707 297.144 481.686 296.412C481.665 295.679 481.862 295.103 482.151 294.814C483.059 294.278 484.094 293.993 485.149 293.991C492.797 294.11 496.994 295.906 503.497 298.689C503.841 298.836 504.191 298.986 504.548 299.138C505.543 299.578 506.393 300.292 506.996 301.197L507.003 301.207L507.011 301.217C507.304 301.613 507.482 302.082 507.524 302.572C507.565 303.059 507.471 303.548 507.253 303.985C506.871 304.654 506.191 304.983 505.302 305.085C504.401 305.188 503.363 305.045 502.416 304.839L502.416 304.839L502.404 304.836C497.039 303.803 491.74 302.455 486.533 300.8Z" fill="white" fill-opacity="0.5" stroke="white"/>
<path d="M500.121 300.594C500.355 300.179 500.156 299.519 499.812 299.158C499.549 298.874 499.185 298.705 498.798 298.688C498.411 298.67 498.033 298.806 497.746 299.065C497.482 299.348 497.337 299.722 497.34 300.109C497.343 300.496 497.495 300.867 497.763 301.146C497.94 301.306 498.152 301.42 498.383 301.48C498.613 301.539 498.855 301.542 499.087 301.488C499.318 301.434 499.534 301.324 499.714 301.168C499.894 301.013 500.034 300.816 500.121 300.594" fill="white"/>
<path d="M503.956 303.208C504.119 302.919 503.982 302.485 503.762 302.242C503.676 302.145 503.572 302.066 503.455 302.011C503.338 301.955 503.211 301.922 503.082 301.916C502.953 301.91 502.823 301.929 502.702 301.973C502.58 302.017 502.468 302.085 502.373 302.173C502.187 302.359 502.083 302.61 502.082 302.873C502.081 303.136 502.184 303.388 502.368 303.575C502.485 303.686 502.628 303.767 502.784 303.81C502.939 303.853 503.103 303.856 503.261 303.82C503.418 303.783 503.564 303.708 503.686 303.602C503.807 303.495 503.9 303.36 503.956 303.208" fill="white"/>
<path d="M490.569 296.043C490.671 295.863 490.582 295.598 490.442 295.424C490.323 295.31 490.166 295.245 490.002 295.24C489.837 295.235 489.677 295.292 489.552 295.399C489.439 295.521 489.378 295.683 489.382 295.849C489.386 296.015 489.454 296.174 489.573 296.291C489.65 296.354 489.741 296.398 489.838 296.419C489.935 296.441 490.036 296.44 490.133 296.416C490.229 296.392 490.319 296.346 490.395 296.281C490.47 296.216 490.53 296.135 490.569 296.043" fill="white"/>
<path d="M485.455 297.683C485.556 297.503 485.467 297.238 485.346 297.075C485.289 297.013 485.221 296.964 485.146 296.93C485.07 296.896 484.989 296.877 484.906 296.874C484.823 296.872 484.74 296.886 484.663 296.916C484.586 296.946 484.515 296.991 484.455 297.049C484.396 297.104 484.348 297.172 484.316 297.246C484.284 297.321 484.268 297.402 484.269 297.484C484.27 297.565 484.289 297.646 484.323 297.72C484.357 297.794 484.407 297.86 484.468 297.913C484.54 297.983 484.629 298.035 484.726 298.062C484.824 298.089 484.926 298.091 485.024 298.068C485.122 298.045 485.213 297.998 485.289 297.931C485.364 297.864 485.421 297.779 485.455 297.683" fill="white"/>
<path d="M492.941 300.07C493.104 299.781 492.95 299.337 492.73 299.094C492.586 298.944 492.397 298.845 492.192 298.813C491.987 298.78 491.777 298.815 491.593 298.912C491.41 299.01 491.263 299.165 491.176 299.353C491.089 299.542 491.065 299.753 491.109 299.956C491.153 300.16 491.262 300.343 491.42 300.478C491.577 300.613 491.775 300.694 491.982 300.707C492.189 300.719 492.395 300.664 492.568 300.549C492.742 300.435 492.873 300.266 492.941 300.07" fill="white"/>
<path d="M495.88 298.489C496.043 298.2 495.906 297.766 495.696 297.505C495.609 297.409 495.503 297.331 495.384 297.276C495.266 297.222 495.138 297.191 495.008 297.187C494.878 297.183 494.748 297.204 494.626 297.251C494.505 297.298 494.394 297.368 494.3 297.459C494.206 297.549 494.131 297.657 494.08 297.777C494.028 297.897 494.001 298.026 494.001 298.156C494 298.286 494.025 298.415 494.076 298.536C494.126 298.656 494.199 298.765 494.292 298.856C494.409 298.968 494.552 299.049 494.708 299.091C494.864 299.134 495.028 299.137 495.185 299.101C495.342 299.065 495.488 298.99 495.61 298.883C495.731 298.776 495.824 298.641 495.88 298.489" fill="white"/>
<path d="M490.188 299.043C490.392 298.681 490.216 298.106 489.926 297.776C489.692 297.524 489.369 297.374 489.026 297.358C488.682 297.343 488.347 297.464 488.092 297.694C487.855 297.943 487.725 298.273 487.727 298.616C487.729 298.959 487.863 299.287 488.102 299.533C488.257 299.678 488.445 299.783 488.65 299.838C488.855 299.893 489.07 299.896 489.277 299.847C489.483 299.799 489.675 299.7 489.834 299.56C489.993 299.419 490.114 299.241 490.188 299.043" fill="white"/>
<path d="M469.362 364.071L469.369 364.083L469.376 364.093C470.368 365.595 471.772 366.78 473.419 367.506C478.297 370.031 483.315 372.278 488.448 374.235C489.376 374.612 490.494 374.97 491.567 375.032C492.646 375.095 493.755 374.859 494.541 373.954L494.554 373.939L494.565 373.923C494.97 373.375 495.214 372.726 495.27 372.047C495.326 371.373 495.195 370.696 494.891 370.092C494.369 368.932 493.53 367.945 492.47 367.243L492.47 367.243L492.466 367.241C492.11 367.01 491.763 366.784 491.421 366.563C485.537 362.738 481.578 360.164 473.877 358.697L473.877 358.696L473.872 358.695C472.656 358.478 471.404 358.6 470.253 359.047L470.165 359.082L470.096 359.145C469.429 359.759 468.992 360.582 468.859 361.479C468.725 362.375 468.903 363.29 469.362 364.071Z" fill="white" fill-opacity="0.5" stroke="white"/>
<path d="M487.343 368.663C487.686 368.309 487.535 367.605 487.296 367.185C487.19 367.013 487.051 366.864 486.887 366.747C486.723 366.63 486.537 366.546 486.34 366.502C486.144 366.458 485.94 366.453 485.741 366.488C485.543 366.524 485.353 366.599 485.184 366.708C485.005 366.832 484.856 366.995 484.749 367.185C484.641 367.374 484.578 367.585 484.563 367.803C484.548 368.02 484.583 368.238 484.664 368.44C484.744 368.642 484.87 368.824 485.03 368.971C485.191 369.118 485.382 369.227 485.591 369.29C485.799 369.353 486.019 369.369 486.234 369.335C486.45 369.302 486.654 369.221 486.834 369.097C487.013 368.974 487.163 368.812 487.271 368.623" fill="white"/>
<path d="M490.675 371.874C490.828 371.603 490.812 371.166 490.641 370.879C490.494 370.667 490.271 370.519 490.019 370.465C489.766 370.411 489.502 370.455 489.281 370.589C489.07 370.745 488.927 370.977 488.883 371.236C488.839 371.496 488.897 371.762 489.045 371.979C489.142 372.109 489.27 372.213 489.417 372.281C489.565 372.349 489.727 372.379 489.888 372.369C490.05 372.358 490.207 372.308 490.344 372.221C490.482 372.135 490.595 372.016 490.675 371.874" fill="white"/>
<path d="M478.696 362.552C478.798 362.371 478.783 362.101 478.671 361.919C478.628 361.85 478.571 361.79 478.504 361.744C478.437 361.697 478.361 361.665 478.281 361.649C478.201 361.633 478.119 361.633 478.039 361.65C477.959 361.667 477.883 361.7 477.817 361.746C477.686 361.844 477.597 361.988 477.568 362.149C477.54 362.309 477.573 362.475 477.662 362.612C477.724 362.693 477.805 362.759 477.898 362.802C477.991 362.845 478.093 362.864 478.195 362.858C478.297 362.852 478.397 362.821 478.484 362.768C478.571 362.714 478.644 362.64 478.696 362.552" fill="white"/>
<path d="M473.394 363.3C473.451 363.204 473.48 363.093 473.475 362.98C473.471 362.868 473.434 362.759 473.37 362.668C473.276 362.53 473.133 362.434 472.97 362.4C472.807 362.366 472.637 362.397 472.496 362.485C472.42 362.538 472.356 362.608 472.31 362.69C472.264 362.771 472.236 362.862 472.23 362.955C472.224 363.049 472.239 363.142 472.274 363.229C472.309 363.316 472.363 363.394 472.433 363.457C472.502 363.519 472.585 363.566 472.674 363.593C472.764 363.619 472.859 363.625 472.951 363.61C473.043 363.595 473.131 363.559 473.208 363.506C473.284 363.452 473.348 363.382 473.394 363.3" fill="white"/>
<path d="M480.275 366.845C480.427 366.574 480.412 366.137 480.24 365.85C480.091 365.635 479.866 365.485 479.61 365.429C479.355 365.373 479.088 365.416 478.863 365.549C478.651 365.705 478.508 365.937 478.464 366.197C478.42 366.456 478.478 366.722 478.626 366.94C478.725 367.069 478.854 367.173 479.002 367.241C479.15 367.309 479.313 367.34 479.476 367.331C479.638 367.321 479.796 367.272 479.936 367.188C480.075 367.103 480.191 366.985 480.275 366.845" fill="white"/>
<path d="M483.518 365.864C483.614 365.715 483.663 365.539 483.657 365.361C483.651 365.183 483.59 365.012 483.484 364.869C483.414 364.76 483.324 364.666 483.217 364.592C483.111 364.518 482.991 364.466 482.865 364.439C482.738 364.412 482.607 364.41 482.48 364.434C482.353 364.458 482.232 364.507 482.124 364.579C482.013 364.659 481.92 364.762 481.85 364.88C481.781 364.998 481.737 365.129 481.72 365.265C481.704 365.401 481.716 365.539 481.755 365.67C481.795 365.802 481.861 365.923 481.95 366.028C482.046 366.156 482.172 366.259 482.317 366.328C482.463 366.396 482.623 366.427 482.783 366.418C482.943 366.41 483.099 366.362 483.236 366.278C483.373 366.195 483.488 366.079 483.57 365.941" fill="white"/>
<path d="M477.828 365.442C478.122 365.132 477.995 364.513 477.771 364.149C477.619 363.917 477.396 363.742 477.134 363.65C476.873 363.558 476.589 363.554 476.325 363.639C476.062 363.724 475.833 363.893 475.675 364.121C475.517 364.348 475.438 364.621 475.45 364.898C475.462 365.175 475.565 365.44 475.742 365.653C475.919 365.865 476.162 366.014 476.432 366.076C476.702 366.138 476.984 366.109 477.237 365.995C477.489 365.88 477.697 365.686 477.828 365.442Z" fill="white"/>
<path d="M470.614 306.361C470.601 305.595 470.886 304.854 471.409 304.293C471.81 303.868 472.329 303.573 472.899 303.444C473.47 303.315 474.067 303.359 474.612 303.571C475.158 303.783 475.628 304.152 475.962 304.632C476.296 305.113 476.48 305.682 476.489 306.267C476.499 306.852 476.334 307.426 476.015 307.917C475.696 308.408 475.238 308.792 474.7 309.021C474.161 309.25 473.566 309.314 472.992 309.203C472.418 309.093 471.889 308.814 471.475 308.402C470.934 307.859 470.626 307.127 470.614 306.361Z" fill="white" fill-opacity="0.5" stroke="white"/>
<path d="M501.405 370.744C501.393 369.978 501.678 369.237 502.2 368.676C502.602 368.251 503.121 367.955 503.691 367.827C504.262 367.698 504.858 367.742 505.404 367.954C505.949 368.165 506.419 368.535 506.754 369.015C507.088 369.495 507.272 370.064 507.281 370.649C507.29 371.235 507.125 371.809 506.806 372.3C506.487 372.791 506.029 373.175 505.491 373.404C504.953 373.633 504.358 373.697 503.783 373.586C503.209 373.476 502.681 373.197 502.266 372.785C501.726 372.241 501.417 371.51 501.405 370.744Z" fill="white" fill-opacity="0.5" stroke="white"/>
<path d="M482.268 383.537C481.533 383.51 480.805 383.38 480.105 383.151C479.269 382.971 478.443 382.744 477.632 382.471C476.683 382.127 475.612 381.832 474.423 381.281C471.663 380.154 469.018 378.767 466.522 377.138C460.431 373.139 455.282 367.865 451.431 361.68C449.808 359.145 448.437 356.459 447.335 353.658C446.905 352.601 446.537 351.519 446.233 350.419C445.946 349.607 445.723 348.773 445.568 347.925C445.358 347.219 445.241 346.49 445.22 345.754C445.436 345.709 446.064 348.776 448.064 353.379C449.206 356.072 450.571 358.665 452.145 361.131C454.107 364.114 456.339 366.911 458.815 369.484C461.347 372.011 464.101 374.305 467.045 376.337C469.469 377.968 472.018 379.405 474.668 380.634C479.258 382.626 482.316 383.326 482.268 383.537Z" fill="white"/>
<path d="M517.49 286.082C517.49 286.082 517.804 286.116 518.4 286.285C518.995 286.454 519.883 286.693 520.956 287.155C524.057 288.351 527.014 289.89 529.772 291.743C539.018 297.864 545.899 306.956 549.278 317.517C552.656 328.078 552.331 339.476 548.355 349.827C547.181 352.929 545.67 355.893 543.849 358.665C543.279 359.677 542.632 360.36 542.283 360.853C542.093 361.124 541.862 361.363 541.598 361.562C543.988 357.762 545.995 353.734 547.589 349.538C549.214 344.967 550.177 340.187 550.449 335.343C551.209 323.37 547.395 311.556 539.778 302.287C536.748 298.502 533.189 295.173 529.21 292.402C525.521 289.914 521.596 287.797 517.49 286.082V286.082Z" fill="white"/>
<path d="M499.545 284.345C495.709 284.095 491.86 284.146 488.033 284.498C478.766 285.517 470.027 289.323 462.969 295.413C455.911 301.503 450.866 309.591 448.501 318.608C447.586 322.348 446.968 326.155 446.654 329.993C446.654 329.993 446.575 329.711 446.564 329.181C446.529 328.392 446.537 327.602 446.589 326.814C446.693 323.967 447.098 321.14 447.797 318.378C450.004 309.124 455.063 300.796 462.257 294.571C469.452 288.346 478.421 284.537 487.897 283.683C490.732 283.416 493.586 283.43 496.418 283.726C497.417 283.813 498.187 284.009 498.622 284.04C499.057 284.071 499.565 284.309 499.545 284.345Z" fill="white"/>
<path d="M583.026 406.713C578.937 404.362 574.672 402.279 570.268 400.483L570.292 400.416C570.221 400.39 570.15 400.364 570.079 400.339C569.305 400.061 568.536 399.779 567.762 399.496L567.76 399.495C567.697 399.472 567.634 399.449 567.571 399.426C566.786 399.13 565.997 398.844 565.204 398.566L565.179 398.638C562.552 397.752 559.949 396.908 557.36 396.069C556.856 395.906 556.353 395.743 555.85 395.58L555.387 397.006L555.782 395.559C550.989 394.253 546.789 391.524 543.906 387.884C541.926 385.078 540.911 381.897 540.948 378.744C540.986 375.582 542.079 372.555 544.106 370.038C546.135 367.518 549.023 365.605 552.431 364.575C555.826 363.548 559.569 363.449 563.184 364.305C572.337 367.092 581.338 370.321 590.144 373.979C598.824 377.745 606.865 382.656 613.976 388.531L613.981 388.535C621.613 394.785 621.522 404.967 615.329 411.318C613.723 412.795 611.774 413.972 609.586 414.77C607.384 415.574 604.989 415.978 602.535 415.952C600.081 415.926 597.625 415.47 595.31 414.61C592.995 413.75 590.872 412.506 589.063 410.954L589.051 410.945L589.04 410.935C588.469 410.464 587.891 410.003 587.306 409.549L587.414 409.383C586.569 408.824 585.747 408.27 584.922 407.713C584.338 407.319 583.752 406.923 583.154 406.524L583.026 406.713Z" fill="#2CA6FF" fill-opacity="0.65" stroke="#2CA6FF" stroke-width="3"/>
<path d="M727.258 509.791C723.692 506.703 719.903 503.845 715.923 501.241L715.96 501.179C715.895 501.141 715.83 501.102 715.765 501.064C715.059 500.643 714.358 500.22 713.652 499.794L713.65 499.793C713.592 499.758 713.535 499.723 713.478 499.689C712.764 499.249 712.044 498.817 711.319 498.393L711.28 498.459C708.871 497.087 706.477 495.762 704.095 494.445C703.632 494.188 703.169 493.932 702.707 493.676L701.98 494.988L702.643 493.643C698.188 491.446 694.586 487.966 692.45 483.843C691.042 480.71 690.653 477.394 691.292 474.306C691.932 471.209 693.583 468.447 696.053 466.363C698.526 464.276 701.725 462.95 705.267 462.589C708.796 462.229 712.489 462.846 715.875 464.376C724.327 468.858 732.546 473.747 740.492 479.018C748.294 484.371 755.25 490.726 761.109 497.85L761.113 497.855C767.412 505.447 765.379 515.425 758.088 520.477C756.229 521.621 754.092 522.404 751.791 522.77C749.477 523.139 747.048 523.078 744.645 522.584C742.241 522.09 739.917 521.174 737.809 519.888C735.7 518.602 733.854 516.976 732.374 515.107L732.365 515.095L732.355 515.084C731.884 514.513 731.405 513.949 730.918 513.392L731.056 513.25C730.333 512.54 729.632 511.839 728.928 511.135C728.43 510.637 727.93 510.137 727.419 509.631L727.258 509.791Z" fill="#2CA6FF" fill-opacity="0.65" stroke="#2CA6FF" stroke-width="3"/>
<path d="M261.188 216.892C276.854 219.835 291.714 226.078 304.783 235.204L304.924 235.165C305.987 235.794 306.766 236.809 307.097 237.999C307.429 239.188 307.289 240.46 306.706 241.549C306.088 242.623 305.072 243.412 303.878 243.745C302.684 244.079 301.407 243.929 300.322 243.33C296.57 240.787 292.692 238.434 288.703 236.281C276.636 229.77 263.333 225.873 249.66 224.843C239.092 224.123 228.549 225.132 217.99 224.607C200.41 223.54 183.48 217.575 169.113 207.388C161.4 201.96 154.455 195.515 148.467 188.228C142.495 180.959 137.123 173.217 131.643 165.582C121.578 151.553 110.372 136.762 94.0233 129.784C79.6397 123.629 63.1467 124.045 47.8331 123.34C31.426 122.59 14.8796 120.904 0.337331 112.707C-13.1572 105.101 -23.7714 93.9051 -33.5555 81.701C-43.3397 69.497 -52.2748 56.4622 -62.7756 44.854C-72.5125 34.1286 -83.8829 24.6964 -98.0357 20.6229C-190.826 -2.05491 -197.185 -19.4842 -188.766 -25.3641C-187.009 -33.5942 -183.622 -46.3923 -184.133 -31.743C-184.645 -17.0937 -118.173 5.94986 -84.8724 15.6405C-56.5307 29.0448 -41.1096 58.9946 -21.4043 81.766C-11.8608 92.8346 -0.674431 103.353 13.2787 108.457C28.6908 114.097 45.2299 113.684 61.5296 114.54C77.8293 115.396 94.6769 117.56 108.375 127.043C123.905 137.796 134.464 153.651 145.302 168.758C150.442 176.337 156.238 183.451 162.622 190.018C169.276 196.528 176.883 201.987 185.18 206.208C193.476 210.426 202.399 213.277 211.604 214.652C212.415 214.776 213.236 214.882 214.039 214.977C214.575 215.041 215.12 215.087 215.648 215.122C216.832 215.218 217.989 215.275 219.157 215.315C221.65 215.411 224.202 215.445 226.63 215.361C238.307 215.254 249.725 214.93 261.188 216.892Z" fill="#2CA6FF"/>
<path d="M308.74 363.242C306.344 355.964 310.336 348.502 315.039 342.988C321.594 335.328 329.821 328.967 334.219 319.687C342.316 302.493 338.019 282.623 328.939 266.721C323.107 257.224 316.404 248.289 308.917 240.034C308.036 239.155 306.842 238.663 305.598 238.665C304.354 238.666 303.161 239.162 302.282 240.043C301.404 240.924 300.911 242.118 300.913 243.363C300.915 244.607 301.411 245.8 302.292 246.678C313.77 260.099 326.261 275.019 328.755 293.231C330.086 301.332 328.801 309.646 325.088 316.968C320.484 325.347 312.392 331.045 306.615 338.549C300.838 346.052 296.619 356.029 299.773 365.638C301.602 371.43 310.69 368.863 308.812 363.115L308.74 363.242Z" fill="#2CA6FF"/>
<path d="M327.669 288.357C332.746 307.097 347.164 321.342 364.822 328.7C365.917 329.269 367.187 329.4 368.375 329.065C369.563 328.731 370.579 327.957 371.216 326.9C371.815 325.815 371.964 324.538 371.631 323.344C371.298 322.15 370.509 321.134 369.435 320.516C353.964 314.177 341.189 302.381 336.636 285.794C335.051 279.949 326.012 282.472 327.597 288.317L327.669 288.357Z" fill="#2CA6FF"/>
<path d="M325.075 317.412C322.66 322.931 321.676 328.969 322.214 334.968C322.752 340.968 324.794 346.735 328.152 351.735C328.463 352.267 328.876 352.733 329.368 353.105C329.859 353.477 330.418 353.749 331.015 353.905C331.611 354.061 332.232 354.098 332.843 354.014C333.453 353.929 334.041 353.726 334.573 353.415C335.105 353.103 335.57 352.69 335.942 352.199C336.315 351.708 336.586 351.148 336.742 350.552C336.898 349.956 336.935 349.334 336.851 348.724C336.767 348.113 336.563 347.525 336.252 346.994C335.533 345.969 334.879 344.901 334.294 343.795C334.023 343.262 333.753 342.728 333.51 342.187C333.268 341.646 333.28 341.581 333.51 342.187L333.124 341.183C332.734 340.059 332.382 338.909 332.106 337.753L331.756 336.009C331.719 335.821 331.601 334.636 331.693 335.783L331.598 334.896C331.476 333.712 331.423 332.522 331.44 331.332C331.436 330.663 331.469 330.014 331.529 329.358C331.59 329.25 331.615 328.193 331.552 328.895C331.489 329.598 331.601 328.47 331.621 328.434C331.785 327.253 332.023 326.083 332.334 324.932C332.505 324.29 332.684 323.677 332.909 323.066L333.203 322.208C333.547 321.26 332.835 323.072 333.284 322.064C333.864 320.971 334 319.697 333.665 318.506C333.33 317.315 332.549 316.3 331.485 315.669C330.399 315.07 329.122 314.921 327.928 315.254C326.734 315.588 325.719 316.376 325.101 317.451L325.075 317.412Z" fill="#2CA6FF"/>
<path d="M306.416 244.598C332.185 251.157 355.093 265.984 371.629 286.808C376.259 292.652 380.319 298.927 383.753 305.544C386.542 310.901 394.624 306.149 391.854 300.803C378.624 275.66 357.52 255.544 331.771 243.536C324.382 240.086 316.684 237.341 308.779 235.338C302.919 233.867 300.619 242.973 306.507 244.436L306.416 244.598Z" fill="#2CA6FF"/>
<path d="M320.571 249.174C332.622 253.133 347.239 249.922 357.311 242.484C363.033 238.357 367.506 232.731 370.236 226.226C373.138 219.221 374.275 211.84 376.779 204.61C378.734 198.904 382.313 192.47 388.316 190.308C389.498 189.954 390.496 189.156 391.102 188.081C391.707 187.007 391.873 185.739 391.564 184.545C391.224 183.355 390.428 182.346 389.35 181.738C388.271 181.13 386.996 180.972 385.802 181.297C372.331 186.106 368.112 200.01 364.816 212.53C363.098 219.084 361.156 225.655 356.474 230.752C352.28 235.209 346.92 238.398 341.002 239.956C335.108 241.878 328.762 241.92 322.843 240.075C321.637 239.774 320.36 239.964 319.294 240.605C318.228 241.245 317.459 242.282 317.158 243.489C316.857 244.695 317.047 245.972 317.687 247.038C318.327 248.104 319.365 248.872 320.571 249.174V249.174Z" fill="#2CA6FF"/>
<path d="M369.412 228.618C372.23 223.144 376.305 218.415 381.303 214.819C386.301 211.223 392.08 208.861 398.166 207.928C399.398 207.869 400.563 207.344 401.424 206.46C402.284 205.575 402.778 204.397 402.804 203.163C402.775 201.92 402.258 200.738 401.364 199.873C400.47 199.008 399.272 198.531 398.028 198.543C390.302 199.526 382.926 202.352 376.521 206.783C370.116 211.215 364.871 217.122 361.229 224.005C360.645 225.094 360.505 226.366 360.837 227.555C361.169 228.745 361.947 229.76 363.01 230.389C364.097 230.99 365.376 231.14 366.572 230.809C367.769 230.478 368.788 229.692 369.412 228.618V228.618Z" fill="#2CA6FF"/>
<path d="M338.129 249.572C344.136 253.128 350.862 255.293 357.815 255.908C364.72 256.17 371.586 254.766 377.834 251.813C388.65 247.151 399.234 238.595 411.453 238.413C417.484 238.313 417.347 228.928 411.297 229.018C398.613 229.223 387.748 236.716 376.722 242.046C371.584 244.804 365.887 246.363 360.06 246.604C353.914 246.479 347.908 244.737 342.65 241.551C337.393 238.588 332.781 246.772 338.038 249.735L338.129 249.572Z" fill="#2CA6FF"/>
<path d="M361.588 255.844C373.288 257.438 384.39 261.984 393.848 269.053C394.388 269.357 394.983 269.552 395.599 269.626C396.214 269.7 396.838 269.652 397.435 269.484C398.032 269.316 398.589 269.032 399.076 268.647C399.563 268.263 399.969 267.787 400.271 267.246C400.85 266.153 400.987 264.879 400.652 263.688C400.317 262.498 399.536 261.482 398.471 260.852C388.304 253.303 376.397 248.442 363.852 246.718C362.648 246.454 361.388 246.661 360.331 247.295C359.275 247.93 358.5 248.944 358.167 250.131C357.879 251.34 358.078 252.614 358.719 253.679C359.361 254.744 360.394 255.515 361.598 255.826L361.588 255.844Z" fill="#2CA6FF"/>
<path d="M168.481 224.313L167.397 224.249C165.188 223.843 163.042 223.089 161.054 222.016C158.725 220.758 156.669 219.091 155.007 217.121L155.005 217.119C151.758 213.283 150.18 208.56 150.538 203.95C150.97 199.2 153.404 194.918 157.34 192.026C161.295 189.342 166.287 188.126 171.408 188.645L171.438 188.648L171.469 188.65C178.043 189.045 184.602 190.052 191.048 191.656L191.06 191.658L191.072 191.661C199.144 193.533 207.054 196.122 214.69 199.39C219.519 201.47 223.466 205.063 225.81 209.47C227.416 212.787 227.956 216.384 227.388 219.812C226.82 223.248 225.162 226.384 222.612 228.832C220.061 231.281 216.719 232.941 212.991 233.579C209.273 234.215 205.349 233.803 201.714 232.383C197.883 230.669 193.96 229.169 189.968 227.888L190.014 227.716C189.098 227.474 188.181 227.238 187.269 227.003L187.267 227.003C186.353 226.767 185.444 226.533 184.537 226.294L184.5 226.435C179.204 225.342 173.848 224.632 168.481 224.313Z" fill="#2CA6FF" fill-opacity="0.65" stroke="#2CA6FF" stroke-width="3"/>
<path d="M31.5514 129.841L30.4672 129.777C28.2587 129.371 26.1121 128.617 24.1247 127.543C21.7958 126.286 19.7391 124.619 18.0774 122.649L18.0758 122.647C14.8287 118.811 13.2498 114.087 13.6082 109.478C14.0402 104.728 16.4746 100.446 20.4106 97.5538C24.3655 94.8699 29.3573 93.6536 34.4781 94.1729L34.5088 94.176L34.5395 94.1779C41.1129 94.5729 47.6721 95.5796 54.1186 97.1835L54.1302 97.1864L54.1419 97.1891C62.2143 99.0611 70.1243 101.649 77.7602 104.918C82.5898 106.998 86.5367 110.59 88.8806 114.998C90.4866 118.315 91.0261 121.912 90.4586 125.34C89.89 128.775 88.232 131.912 85.6827 134.36C83.1315 136.809 79.7896 138.469 76.0618 139.107C72.3438 139.743 68.4191 139.331 64.7839 137.911C60.953 136.197 57.0307 134.697 53.0388 133.416L53.0838 133.244C52.1682 133.002 51.2513 132.766 50.3393 132.531L50.3371 132.531C49.423 132.295 48.5138 132.061 47.6075 131.822L47.5702 131.962C42.2742 130.87 36.9182 130.16 31.5514 129.841Z" fill="#2CA6FF" fill-opacity="0.65" stroke="#2CA6FF" stroke-width="3"/>
<path d="M275.486 247.527C272.126 245.751 268.642 244.269 265.064 243.092L265.082 243.024C265.026 243.008 264.969 242.993 264.912 242.977C264.296 242.81 263.682 242.639 263.063 242.466L263.06 242.466C263.011 242.452 262.962 242.438 262.913 242.425C262.28 242.24 261.645 242.065 261.007 241.899L260.987 241.973C258.883 241.459 256.802 240.985 254.737 240.515C254.335 240.423 253.934 240.332 253.533 240.24L253.199 241.702L253.442 240.222C249.804 239.623 246.476 237.599 244.052 234.455C242.364 231.987 241.364 228.971 241.201 225.781C241.037 222.578 241.727 219.366 243.176 216.556C244.625 213.747 246.758 211.485 249.283 210.033C251.788 208.594 254.572 208.012 257.289 208.335C264.544 209.814 271.707 211.75 278.747 214.132C285.661 216.627 292.16 220.333 298.006 225.119L298.012 225.124C304.185 230.126 304.886 240.313 300.321 247.639C299.153 249.329 297.714 250.746 296.093 251.815C294.464 252.889 292.683 253.591 290.853 253.891C289.024 254.191 287.174 254.085 285.406 253.581C283.638 253.077 281.976 252.181 280.519 250.936L280.506 250.925L280.493 250.914C279.998 250.51 279.497 250.116 278.992 249.732L279.09 249.573C278.399 249.139 277.733 248.709 277.06 248.276C276.582 247.967 276.101 247.657 275.606 247.342L275.486 247.527Z" fill="#2CA6FF" fill-opacity="0.65" stroke="#2CA6FF" stroke-width="3"/>
<path d="M123.083 174.363C120.996 171.187 118.659 168.208 116.092 165.451L116.141 165.4C116.099 165.359 116.057 165.318 116.014 165.277C115.555 164.834 115.1 164.388 114.641 163.938L114.639 163.936C114.602 163.9 114.566 163.865 114.53 163.829C114.065 163.362 113.592 162.902 113.113 162.45L113.061 162.504C111.465 161.04 109.871 159.621 108.289 158.212C107.981 157.938 107.673 157.665 107.366 157.391L106.368 158.511L107.296 157.332C104.398 155.052 102.458 151.674 101.851 147.751C101.564 144.774 102.142 141.65 103.538 138.777C104.94 135.892 107.093 133.411 109.717 131.649C112.341 129.887 115.301 128.934 118.213 128.881C121.102 128.828 123.821 129.661 126.046 131.254C131.687 136.049 137.029 141.2 142.046 146.682C146.9 152.203 150.805 158.583 153.618 165.596L153.621 165.603C156.616 172.962 152.316 182.224 144.784 186.439C142.945 187.357 141.002 187.904 139.067 188.058C137.122 188.214 135.223 187.97 133.475 187.35C131.728 186.731 130.158 185.745 128.853 184.451C127.547 183.156 126.524 181.57 125.848 179.777L125.842 179.761L125.835 179.745C125.596 179.152 125.348 178.566 125.09 177.986L125.253 177.894C124.857 177.181 124.48 176.482 124.101 175.778C123.83 175.277 123.559 174.773 123.277 174.259L123.083 174.363Z" fill="#2CA6FF" fill-opacity="0.65" stroke="#2CA6FF" stroke-width="3"/>
<path d="M165.132 140.824C164.094 139.532 162.206 139.327 160.914 140.365C159.623 141.403 159.417 143.291 160.455 144.582L165.132 140.824ZM337.643 224.355C338.667 225.657 340.554 225.882 341.855 224.857C343.157 223.832 343.382 221.946 342.357 220.644L337.643 224.355ZM169.711 154.398C170.923 155.528 172.821 155.462 173.951 154.251C175.082 153.039 175.016 151.141 173.804 150.011L169.711 154.398ZM180.221 155.592C178.936 154.547 177.046 154.743 176.001 156.028C174.956 157.314 175.152 159.204 176.437 160.249L180.221 155.592ZM198.656 175.027C200.117 175.807 201.935 175.256 202.716 173.795C203.497 172.333 202.945 170.516 201.484 169.735L198.656 175.027ZM209.122 173.494C207.611 172.813 205.835 173.486 205.154 174.996C204.474 176.507 205.146 178.283 206.657 178.964L209.122 173.494ZM232.114 187.232C233.738 187.56 235.321 186.509 235.648 184.885C235.976 183.261 234.925 181.678 233.301 181.351L232.114 187.232ZM241.665 182.686C240.019 182.493 238.528 183.67 238.335 185.315C238.141 186.961 239.318 188.452 240.964 188.645L241.665 182.686ZM271.748 190.624C273.385 190.878 274.918 189.756 275.172 188.119C275.426 186.482 274.305 184.949 272.667 184.695L271.748 190.624ZM284.649 187.199C283.047 186.777 281.406 187.735 280.984 189.337C280.563 190.939 281.52 192.58 283.122 193.002L284.649 187.199ZM315.209 206.583C316.632 207.432 318.474 206.966 319.322 205.543C320.171 204.12 319.705 202.279 318.282 201.43L315.209 206.583ZM328.481 208.17C327.144 207.192 325.266 207.482 324.288 208.819C323.309 210.156 323.599 212.033 324.936 213.012L328.481 208.17ZM160.455 144.582C162.771 147.463 165.888 150.831 169.711 154.398L173.804 150.011C170.159 146.609 167.243 143.45 165.132 140.824L160.455 144.582ZM176.437 160.249C182.649 165.296 190.126 170.468 198.656 175.027L201.484 169.735C193.326 165.375 186.167 160.424 180.221 155.592L176.437 160.249ZM206.657 178.964C214.456 182.479 222.987 185.391 232.114 187.232L233.301 181.351C224.664 179.608 216.562 176.846 209.122 173.494L206.657 178.964ZM240.964 188.645C245.33 189.159 249.812 189.414 254.397 189.366L254.334 183.366C250.014 183.411 245.787 183.171 241.665 182.686L240.964 188.645ZM254.397 189.366C260.39 189.302 266.187 189.762 271.748 190.624L272.667 184.695C266.8 183.785 260.674 183.299 254.334 183.366L254.397 189.366ZM283.122 193.002C295.52 196.264 306.406 201.333 315.209 206.583L318.282 201.43C309.083 195.944 297.68 190.628 284.649 187.199L283.122 193.002ZM324.936 213.012C331.444 217.776 335.793 222.006 337.643 224.355L342.357 220.644C340.045 217.708 335.228 213.11 328.481 208.17L324.936 213.012Z" fill="#69CA90"/>
<path d="M339.356 267.468C346.646 280.913 370.848 308.524 387.081 314.078C407.373 321.02 437.455 296.483 465.967 322.582" stroke="#69CA90" stroke-width="6" stroke-linecap="round" stroke-dasharray="30 10"/>
<circle cx="379.811" cy="269.811" r="5" transform="rotate(29.4084 379.811 269.811)" fill="#69CA90"/>
<circle cx="397.81" cy="306.811" r="5" transform="rotate(29.4084 397.81 306.811)" fill="#69CA90"/>
<circle cx="424.811" cy="327.811" r="5" transform="rotate(29.4084 424.811 327.811)" fill="#69CA90"/>
<circle cx="322.81" cy="178.811" r="5" transform="rotate(29.4084 322.81 178.811)" fill="#69CA90"/>
<circle cx="304.81" cy="211.811" r="5" transform="rotate(29.4084 304.81 211.811)" fill="#69CA90"/>
<circle cx="290.81" cy="176.81" r="5" transform="rotate(29.4084 290.81 176.81)" fill="#69CA90"/>
<circle cx="269.81" cy="200.81" r="5" transform="rotate(29.4084 269.81 200.81)" fill="#69CA90"/>
<circle cx="250.811" cy="165.811" r="5" transform="rotate(29.4084 250.811 165.811)" fill="#69CA90"/>
<circle cx="232.811" cy="197.811" r="5" transform="rotate(29.4084 232.811 197.811)" fill="#69CA90"/>
<circle cx="168.81" cy="165.811" r="5" transform="rotate(29.4084 168.81 165.811)" fill="#69CA90"/>
<circle cx="209.81" cy="160.811" r="5" transform="rotate(29.4084 209.81 160.811)" fill="#69CA90"/>
<circle cx="350.811" cy="297.811" r="5" transform="rotate(29.4084 350.811 297.811)" fill="#69CA90"/>
</g>
<circle opacity="0.2" cx="277" cy="93" r="60" fill="#69CA90"/>
<circle cx="277" cy="93" r="44" fill="#69CA90"/>
<path d="M261.82 104C260.38 104 259.04 104 257.8 104C256.573 104 255.453 104 254.44 104C253.44 104 252.56 104 251.8 104C251.8 102.467 251.8 100.98 251.8 99.54C251.8 98.1 251.8 96.4867 251.8 94.7V85.02C251.8 83.18 251.8 81.52 251.8 80.04C251.8 78.56 251.8 77.04 251.8 75.48C253.413 75.48 255.227 75.48 257.24 75.48C259.253 75.48 261.287 75.48 263.34 75.48C265.287 75.48 266.913 75.64 268.22 75.96C269.54 76.2667 270.587 76.7133 271.36 77.3C272.147 77.8733 272.707 78.56 273.04 79.36C273.387 80.16 273.56 81.0533 273.56 82.04C273.56 83.2533 273.333 84.3067 272.88 85.2C272.427 86.0933 271.807 86.8333 271.02 87.42C270.233 87.9933 269.347 88.4067 268.36 88.66V89.16C269.493 89.4133 270.5 89.8067 271.38 90.34C272.273 90.8733 272.967 91.6 273.46 92.52C273.953 93.44 274.2 94.6 274.2 96C274.2 97.2 274.007 98.2933 273.62 99.28C273.247 100.253 272.593 101.093 271.66 101.8C270.74 102.507 269.48 103.053 267.88 103.44C266.28 103.813 264.26 104 261.82 104ZM258.26 99.06H262.42C263.567 99.06 264.507 98.92 265.24 98.64C265.987 98.36 266.533 97.9533 266.88 97.42C267.227 96.8867 267.4 96.2267 267.4 95.44C267.4 94.2533 267 93.38 266.2 92.82C265.4 92.2467 264.247 91.96 262.74 91.96H256.7V87.34H262.46C263.433 87.34 264.24 87.1867 264.88 86.88C265.52 86.56 265.993 86.1333 266.3 85.6C266.62 85.0667 266.78 84.4467 266.78 83.74C266.78 82.6333 266.453 81.8 265.8 81.24C265.147 80.6667 264.153 80.38 262.82 80.38H258.26C258.26 81.3 258.26 82.24 258.26 83.2C258.26 84.16 258.26 85.2533 258.26 86.48V93.28C258.26 94.4267 258.26 95.46 258.26 96.38C258.26 97.2867 258.26 98.18 258.26 99.06ZM276.443 98.32L275.383 94.66C276.743 94.0467 278.077 93.4467 279.383 92.86C280.703 92.26 282.017 91.6733 283.323 91.1L283.143 95.32C282.143 95.76 281.083 96.2333 279.963 96.74C278.857 97.2333 277.683 97.76 276.443 98.32ZM280.783 109.64C280.783 108.667 280.783 107.733 280.783 106.84C280.783 105.947 280.783 104.94 280.783 103.82V98.66C280.783 97.7133 280.783 96.7867 280.783 95.88C280.783 94.96 280.783 94.04 280.783 93.12L283.323 91.1L285.543 91.2C285.543 92.2933 285.543 93.38 285.543 94.46C285.543 95.54 285.543 96.6267 285.543 97.72V103.82C285.543 104.94 285.543 105.947 285.543 106.84C285.543 107.733 285.543 108.667 285.543 109.64H280.783ZM288.68 109.64V106.56C289.2 106.16 289.72 105.753 290.24 105.34C290.76 104.94 291.28 104.54 291.8 104.14C293.027 103.207 294.067 102.353 294.92 101.58C295.773 100.793 296.42 100.047 296.86 99.34C297.313 98.62 297.54 97.88 297.54 97.12C297.54 96.3333 297.293 95.74 296.8 95.34C296.307 94.9267 295.547 94.72 294.52 94.72C293.947 94.72 293.347 94.8067 292.72 94.98C292.107 95.14 291.48 95.3667 290.84 95.66C290.213 95.9533 289.593 96.3 288.98 96.7L288.58 92.2C289.02 92 289.513 91.8133 290.06 91.64C290.607 91.4533 291.18 91.2933 291.78 91.16C292.38 91.0267 293 90.92 293.64 90.84C294.293 90.76 294.947 90.72 295.6 90.72C297.067 90.72 298.313 90.9467 299.34 91.4C300.367 91.8533 301.147 92.5067 301.68 93.36C302.213 94.2 302.48 95.2067 302.48 96.38C302.48 97.3267 302.273 98.2533 301.86 99.16C301.447 100.053 300.813 100.947 299.96 101.84C299.107 102.733 298.02 103.64 296.7 104.56L293.88 106.54L293.3 105.58H296.08C297.187 105.58 298.293 105.58 299.4 105.58C300.52 105.58 301.62 105.58 302.7 105.58V109.64H288.68Z" fill="white"/>
<circle cx="613" cy="147" r="61" fill="#69CA90" fill-opacity="0.2"/>
<circle cx="613" cy="147" r="44" fill="#69CA90"/>
<path d="M603.82 158C602.38 158 601.04 158 599.8 158C598.573 158 597.453 158 596.44 158C595.44 158 594.56 158 593.8 158C593.8 156.467 593.8 154.98 593.8 153.54C593.8 152.1 593.8 150.487 593.8 148.7V139.02C593.8 137.18 593.8 135.52 593.8 134.04C593.8 132.56 593.8 131.04 593.8 129.48C595.413 129.48 597.227 129.48 599.24 129.48C601.253 129.48 603.287 129.48 605.34 129.48C607.287 129.48 608.913 129.64 610.22 129.96C611.54 130.267 612.587 130.713 613.36 131.3C614.147 131.873 614.707 132.56 615.04 133.36C615.387 134.16 615.56 135.053 615.56 136.04C615.56 137.253 615.333 138.307 614.88 139.2C614.427 140.093 613.807 140.833 613.02 141.42C612.233 141.993 611.347 142.407 610.36 142.66V143.16C611.493 143.413 612.5 143.807 613.38 144.34C614.273 144.873 614.967 145.6 615.46 146.52C615.953 147.44 616.2 148.6 616.2 150C616.2 151.2 616.007 152.293 615.62 153.28C615.247 154.253 614.593 155.093 613.66 155.8C612.74 156.507 611.48 157.053 609.88 157.44C608.28 157.813 606.26 158 603.82 158ZM600.26 153.06H604.42C605.567 153.06 606.507 152.92 607.24 152.64C607.987 152.36 608.533 151.953 608.88 151.42C609.227 150.887 609.4 150.227 609.4 149.44C609.4 148.253 609 147.38 608.2 146.82C607.4 146.247 606.247 145.96 604.74 145.96H598.7V141.34H604.46C605.433 141.34 606.24 141.187 606.88 140.88C607.52 140.56 607.993 140.133 608.3 139.6C608.62 139.067 608.78 138.447 608.78 137.74C608.78 136.633 608.453 135.8 607.8 135.24C607.147 134.667 606.153 134.38 604.82 134.38H600.26C600.26 135.3 600.26 136.24 600.26 137.2C600.26 138.16 600.26 139.253 600.26 140.48V147.28C600.26 148.427 600.26 149.46 600.26 150.38C600.26 151.287 600.26 152.18 600.26 153.06ZM624.903 164.1C624.157 164.1 623.443 164.047 622.763 163.94C622.083 163.847 621.437 163.72 620.823 163.56C620.223 163.4 619.657 163.22 619.123 163.02L619.543 158.88C620.077 159.173 620.623 159.413 621.183 159.6C621.757 159.787 622.33 159.927 622.903 160.02C623.477 160.127 624.037 160.18 624.583 160.18C625.717 160.18 626.61 159.96 627.263 159.52C627.917 159.08 628.377 158.42 628.643 157.54C628.923 156.647 629.063 155.507 629.063 154.12C629.063 152.8 628.923 151.74 628.643 150.94C628.363 150.127 627.957 149.533 627.423 149.16C626.903 148.787 626.277 148.6 625.543 148.6C624.863 148.6 624.303 148.727 623.863 148.98C623.437 149.233 623.117 149.573 622.903 150C622.703 150.413 622.603 150.873 622.603 151.38C622.603 151.887 622.703 152.34 622.903 152.74C623.117 153.127 623.437 153.433 623.863 153.66C624.29 153.873 624.837 153.98 625.503 153.98C626.077 153.98 626.67 153.893 627.283 153.72C627.91 153.533 628.523 153.16 629.123 152.6C629.55 152.96 629.757 153.407 629.743 153.94C629.743 154.46 629.55 154.933 629.163 155.36L628.643 155.34C628.097 155.74 627.437 156.08 626.663 156.36C625.89 156.64 625.017 156.78 624.043 156.78C622.83 156.78 621.763 156.553 620.843 156.1C619.923 155.647 619.203 155.007 618.683 154.18C618.177 153.34 617.923 152.347 617.923 151.2C617.923 150.107 618.183 149.067 618.703 148.08C619.223 147.08 620.03 146.273 621.123 145.66C622.23 145.033 623.65 144.72 625.383 144.72C628.09 144.72 630.143 145.52 631.543 147.12C632.943 148.72 633.643 151.087 633.643 154.22C633.643 155.967 633.43 157.467 633.003 158.72C632.577 159.973 631.977 160.993 631.203 161.78C630.43 162.58 629.51 163.167 628.443 163.54C627.377 163.913 626.197 164.1 624.903 164.1Z" fill="white"/>
<circle opacity="0.2" cx="458.5" cy="92.5" r="66.5" fill="#69CA90"/>
<circle cx="458.5" cy="92.5" r="48.5" fill="#69CA90"/>
<path d="M429.529 107.375C429.922 106.152 430.319 104.895 430.721 103.605C431.123 102.315 431.544 100.964 431.983 99.5524L427.748 86.871C427.29 85.5 426.851 84.1895 426.43 82.9395C426.019 81.6761 425.542 80.2379 425 78.625H430.188C430.478 79.6599 430.735 80.5874 430.96 81.4073C431.193 82.2271 431.404 82.9933 431.591 83.7056C431.787 84.4046 431.983 85.1102 432.18 85.8226C432.376 86.5215 432.591 87.2809 432.825 88.1008L434.269 93.2823H434.606L435.98 88.1815C436.213 87.3347 436.424 86.5551 436.611 85.8427C436.807 85.1169 436.999 84.3978 437.186 83.6855C437.382 82.9597 437.588 82.1935 437.803 81.3871C438.027 80.5672 438.279 79.6465 438.56 78.625H443.538C442.977 80.3858 442.402 82.2003 441.813 84.0685C441.234 85.9368 440.691 87.6573 440.187 89.2298L437.326 98.3024C436.896 99.7003 436.424 101.206 435.91 102.819C435.405 104.418 434.923 105.937 434.465 107.375H429.529Z" fill="white"/>
<path d="M443.194 107.375C443.334 105.87 443.469 104.364 443.6 102.859C443.731 101.353 443.871 99.7204 444.021 97.9597L444.848 88.3226C445.007 86.5887 445.152 84.9489 445.283 83.4032C445.414 81.8575 445.549 80.2648 445.69 78.625H450.359C450.808 80.2648 451.233 81.8374 451.635 83.3427C452.047 84.8347 452.453 86.3199 452.855 87.7984L455.239 96.5887H455.548L457.861 87.8185C458.254 86.3266 458.642 84.8481 459.025 83.3831C459.418 81.918 459.829 80.332 460.259 78.625H464.873C465.013 80.2379 465.148 81.8172 465.279 83.3629C465.42 84.9086 465.569 86.5685 465.728 88.3427L466.583 98.0202C466.733 99.7675 466.873 101.38 467.004 102.859C467.144 104.337 467.28 105.843 467.411 107.375H463.022C462.853 105.359 462.69 103.444 462.531 101.629C462.372 99.8145 462.227 98.1142 462.096 96.5282L461.507 89.7137H461.199L459.46 97.0323C459.039 98.8333 458.614 100.621 458.184 102.395C457.763 104.156 457.371 105.816 457.006 107.375H453.949C453.687 106.367 453.402 105.285 453.094 104.129C452.794 102.973 452.486 101.797 452.168 100.601C451.85 99.3911 451.537 98.2083 451.229 97.0524L449.293 89.7137H448.985L448.41 96.4879C448.279 98.0874 448.134 99.8011 447.975 101.629C447.826 103.444 447.667 105.359 447.499 107.375H443.194Z" fill="white"/>
<path d="M480.586 104.875L480.656 99.9153H482.366C483.582 99.9153 484.549 99.6398 485.269 99.0887C485.989 98.5376 486.508 97.7513 486.826 96.7298C487.143 95.6949 487.302 94.4651 487.302 93.0403C487.302 91.5753 487.143 90.3253 486.826 89.2903C486.508 88.2554 485.994 87.4624 485.283 86.9113C484.573 86.3602 483.624 86.0847 482.437 86.0847H480.796L480.726 81.125H482.493C484.746 81.125 486.569 81.629 487.961 82.6371C489.364 83.6317 490.387 85.0228 491.032 86.8105C491.677 88.5847 492 90.6613 492 93.0403C492 95.3253 491.677 97.3616 491.032 99.1492C490.397 100.923 489.368 102.321 487.947 103.343C486.536 104.364 484.652 104.875 482.296 104.875H480.586ZM478.384 104.875C476.617 104.875 475.117 104.586 473.883 104.008C472.649 103.417 471.648 102.59 470.882 101.528C470.115 100.466 469.554 99.2164 469.199 97.7782C468.853 96.3401 468.68 94.7608 468.68 93.0403C468.68 90.6613 469.003 88.5847 469.648 86.8105C470.293 85.0228 471.312 83.6317 472.705 82.6371C474.107 81.629 475.935 81.125 478.188 81.125H479.94L479.856 86.0847H478.23C477.052 86.0847 476.103 86.3602 475.383 86.9113C474.673 87.4624 474.158 88.2554 473.841 89.2903C473.523 90.3253 473.364 91.5753 473.364 93.0403C473.364 94.4651 473.523 95.6949 473.841 96.7298C474.158 97.7513 474.677 98.5376 475.397 99.0887C476.117 99.6398 477.085 99.9153 478.3 99.9153H479.997L480.081 104.875H478.384ZM478.061 108C478.061 107.315 478.061 106.656 478.061 106.024C478.061 105.379 478.061 104.727 478.061 104.069L478.202 103.948C478.202 103.02 478.202 102.073 478.202 101.105C478.202 100.124 478.202 99.1021 478.202 98.0403V87.9597C478.202 86.8978 478.202 85.8831 478.202 84.9153C478.202 83.9341 478.202 82.9798 478.202 82.0524L478.061 81.9315C478.061 81.2728 478.061 80.6277 478.061 79.996C478.061 79.3508 478.061 78.6855 478.061 78H482.605C482.605 78.6855 482.605 79.3508 482.605 79.996C482.605 80.6277 482.605 81.2728 482.605 81.9315L482.465 82.0524C482.465 82.9798 482.465 83.9341 482.465 84.9153C482.465 85.8831 482.465 86.8978 482.465 87.9597V98.0403C482.465 99.1021 482.465 100.117 482.465 101.085C482.465 102.052 482.465 103.007 482.465 103.948L482.605 104.069C482.605 104.714 482.605 105.359 482.605 106.004C482.605 106.649 482.605 107.315 482.605 108H478.061Z" fill="white"/>
<circle cx="185.5" cy="455.5" r="126.5" stroke="#FF725E" stroke-width="2"/>
<mask id="mask1_192_1351" style="mask-type:alpha" maskUnits="userSpaceOnUse" x="60" y="330" width="251" height="251">
<circle cx="185.5" cy="455.5" r="125.5" fill="#C4C4C4"/>
</mask>
<g mask="url(#mask1_192_1351)">
<path d="M132.734 528.391C115.415 524.394 89.25 524.875 78.3327 525.616C58.3485 553.186 56.6836 583.792 89.9906 627.757C131.624 682.714 293.718 667.17 325.36 616.655C357.001 566.139 319.809 532.832 315.368 526.726C310.927 520.619 280.95 521.73 275.399 521.73C269.848 521.73 249.864 525.616 246.533 530.056C243.202 534.497 217.112 536.163 209.895 534.497C202.679 532.832 183.25 531.722 178.254 534.497C173.258 537.273 154.384 533.387 132.734 528.391Z" fill="#FF725E" fill-opacity="0.15"/>
<path d="M143.282 546.155C122.854 548.375 106.274 540.418 100.538 536.163C98.3174 534.677 94.4316 540.048 96.652 544.489C98.8725 548.93 131.069 557.812 146.057 553.926C161.046 550.04 191.022 553.926 194.353 553.926C197.683 553.926 212.116 542.269 224.329 546.155C236.542 550.041 251.53 548.93 263.187 544.489C272.513 540.937 285.207 544.119 290.388 546.155C292.978 545.415 296.605 542.38 290.388 536.163C282.616 528.391 264.853 536.163 260.967 536.163C257.081 536.163 244.313 546.155 228.215 540.048C212.116 533.942 196.018 546.155 191.022 546.155C186.026 546.155 168.817 543.379 143.282 546.155Z" fill="#2CA6FF"/>
<path d="M158.27 533.387C154.717 532.055 147.538 532.832 144.392 533.387C144.022 536.533 143.393 544.822 143.837 552.816C144.392 562.808 156.05 558.597 156.05 557.812C156.05 551.706 162.711 535.052 158.27 533.387Z" fill="#2CA6FF"/>
<path d="M147.168 545.599C148.278 541.158 149.018 534.682 147.168 533.387C140.507 531.721 139.951 536.162 142.172 545.044C138.286 560.032 145.502 558.922 147.168 557.812C148.833 556.702 147.723 550.595 147.168 545.599Z" fill="#93D1FF"/>
<path d="M158.887 545.824C160.388 541.5 161.702 535.115 159.975 533.66C153.488 531.409 152.539 535.782 153.961 544.827C148.756 559.409 156.043 558.946 157.801 557.988C159.558 557.031 158.996 550.85 158.887 545.824Z" fill="#93D1FF"/>
<path d="M201.118 537.644C198.008 536.478 191.723 537.158 188.97 537.644C188.646 540.398 188.095 547.654 188.484 554.652C188.97 563.399 199.175 559.713 199.175 559.025C199.175 553.68 205.006 539.102 201.118 537.644Z" fill="#2CA6FF"/>
<path d="M191.399 548.334C192.371 544.447 193.019 538.778 191.399 537.644C185.568 536.186 185.082 540.073 187.026 547.848C183.624 560.969 189.941 559.997 191.399 559.025C192.857 558.053 191.885 552.708 191.399 548.334Z" fill="#93D1FF"/>
<path d="M201.659 548.531C202.973 544.746 204.123 539.157 202.61 537.883C196.932 535.912 196.102 539.741 197.346 547.658C192.79 560.424 199.169 560.018 200.707 559.18C202.246 558.341 201.754 552.931 201.659 548.531Z" fill="#93D1FF"/>
<path d="M241.95 531.689C238.72 529.614 231.453 528.853 228.223 528.731C227.187 531.764 224.798 539.83 223.534 547.831C221.954 557.833 234.382 556.152 234.549 555.375C235.85 549.335 245.988 534.282 241.95 531.689Z" fill="#2CA6FF"/>
<path d="M228.366 541.402C230.41 537.246 232.523 530.998 230.969 529.323C224.735 526.256 223.239 530.53 223.543 539.789C216.505 553.786 223.88 554.225 225.764 553.482C227.647 552.739 227.85 546.462 228.366 541.402Z" fill="#93D1FF"/>
<path d="M239.911 544.122C242.317 540.164 244.977 534.129 243.578 532.322C237.642 528.713 235.772 532.837 235.25 542.085C226.995 555.401 234.301 556.495 236.244 555.922C238.186 555.35 238.947 549.116 239.911 544.122Z" fill="#93D1FF"/>
<path d="M268.399 528.943C265.892 528.566 261.306 530.071 259.327 530.871C259.522 532.979 260.262 538.486 261.663 543.65C263.413 550.105 270.45 545.733 270.34 545.219C269.492 541.228 271.534 529.415 268.399 528.943Z" fill="#2CA6FF"/>
<path d="M262.837 538.47C262.946 535.412 262.53 531.076 261.141 530.486C256.554 530.322 256.808 533.303 259.494 538.801C259.035 549.139 263.599 547.411 264.533 546.453C265.468 545.496 263.894 541.659 262.837 538.47Z" fill="#93D1FF"/>
<path d="M270.53 536.988C270.911 533.952 270.883 529.596 269.551 528.885C264.998 528.314 264.986 531.305 267.171 537.02C265.794 547.277 270.494 545.961 271.51 545.091C272.526 544.221 271.299 540.258 270.53 536.988Z" fill="#93D1FF"/>
<path d="M114.075 536.204C112.16 534.542 107.481 533.357 105.381 532.972C104.417 534.857 102.093 539.904 100.509 545.015C98.5305 551.404 106.814 551.48 106.997 550.988C108.419 547.163 116.469 538.281 114.075 536.204Z" fill="#2CA6FF"/>
<path d="M104.276 541.27C106.006 538.746 107.977 534.861 107.12 533.619C103.335 531.025 101.953 533.677 101.276 539.759C95.3512 548.243 100.131 549.228 101.432 548.92C102.734 548.613 103.46 544.529 104.276 541.27Z" fill="#93D1FF"/>
<path d="M111.566 544.139C113.513 541.78 115.823 538.086 115.079 536.772C111.54 533.851 109.927 536.37 108.712 542.367C102.056 550.291 106.729 551.697 108.053 551.506C109.377 551.316 110.464 547.313 111.566 544.139Z" fill="#93D1FF"/>
<path d="M192.91 373.688C180.698 359.255 181.253 336.68 178.477 322.062C165.709 309.294 133.513 325.392 142.95 341.491C152.387 357.589 149.8 373.733 149.056 379.794C148.192 386.836 133.759 416.813 113.219 435.687C92.68 454.561 84.0444 491.579 109.889 511.183C148.747 534.497 212.894 529.12 243.981 518.018C298.788 498.444 271.737 438.636 239.54 418.097C214.56 398.668 200.133 386.164 192.91 373.688Z" fill="#2CA6FF"/>
<path d="M258.66 452.34C250.666 434.132 202.594 399.418 183.165 385.725C167.066 372.403 160.96 384.06 158.184 390.721C155.408 397.382 149.414 413.814 129.873 437.351C105.448 466.772 99.3413 486.757 117.66 502.855C135.979 518.953 187.05 521.728 227.018 513.402C266.987 505.075 268.652 475.1 258.66 452.34Z" fill="#93D1FF"/>
<circle cx="148.278" cy="444.013" r="8.88187" fill="#FAFAFA"/>
<circle cx="143.837" cy="442.903" r="1.11023" fill="#FF725E"/>
<circle cx="148.278" cy="444.014" r="1.11023" fill="#FF725E"/>
<circle cx="152.719" cy="445.124" r="1.11023" fill="#FF725E"/>
<circle cx="144.947" cy="448.454" r="1.11023" fill="#FF725E"/>
<circle cx="148.278" cy="439.573" r="1.11023" fill="#FF725E"/>
<circle cx="151.609" cy="441.793" r="1.11023" fill="#FF725E"/>
<circle cx="149.388" cy="447.344" r="1.11023" fill="#FF725E"/>
<circle cx="154.939" cy="495.084" r="8.88187" fill="#FAFAFA"/>
<circle cx="150.499" cy="493.974" r="1.11023" fill="#FF725E"/>
<circle cx="154.939" cy="495.084" r="1.11023" fill="#FF725E"/>
<circle cx="159.38" cy="496.194" r="1.11023" fill="#FF725E"/>
<circle cx="151.609" cy="499.525" r="1.11023" fill="#FF725E"/>
<circle cx="154.939" cy="490.643" r="1.11023" fill="#FF725E"/>
<circle cx="158.27" cy="492.864" r="1.11023" fill="#FF725E"/>
<circle cx="156.05" cy="498.415" r="1.11023" fill="#FF725E"/>
<circle cx="153.829" cy="517.289" r="8.88187" fill="#FAFAFA"/>
<circle cx="149.389" cy="516.178" r="1.11023" fill="#FF725E"/>
<circle cx="153.829" cy="517.288" r="1.11023" fill="#FF725E"/>
<circle cx="158.27" cy="518.399" r="1.11023" fill="#FF725E"/>
<circle cx="150.499" cy="521.729" r="1.11023" fill="#FF725E"/>
<circle cx="153.829" cy="512.848" r="1.11023" fill="#FF725E"/>
<circle cx="157.16" cy="515.068" r="1.11023" fill="#FF725E"/>
<circle cx="154.94" cy="520.619" r="1.11023" fill="#FF725E"/>
<circle cx="174.924" cy="493.974" r="8.88187" fill="#FAFAFA"/>
<circle cx="170.483" cy="492.864" r="1.11023" fill="#FF725E"/>
<circle cx="174.923" cy="493.974" r="1.11023" fill="#FF725E"/>
<circle cx="179.364" cy="495.084" r="1.11023" fill="#FF725E"/>
<circle cx="171.593" cy="498.415" r="1.11023" fill="#FF725E"/>
<circle cx="174.923" cy="489.533" r="1.11023" fill="#FF725E"/>
<circle cx="178.254" cy="491.754" r="1.11023" fill="#FF725E"/>
<circle cx="176.034" cy="497.305" r="1.11023" fill="#FF725E"/>
<circle cx="121.632" cy="489.533" r="8.88187" fill="#FAFAFA"/>
<circle cx="117.192" cy="488.423" r="1.11023" fill="#FF725E"/>
<circle cx="121.632" cy="489.533" r="1.11023" fill="#FF725E"/>
<circle cx="126.073" cy="490.643" r="1.11023" fill="#FF725E"/>
<circle cx="118.302" cy="493.974" r="1.11023" fill="#FF725E"/>
<circle cx="121.632" cy="485.092" r="1.11023" fill="#FF725E"/>
<circle cx="124.963" cy="487.313" r="1.11023" fill="#FF725E"/>
<circle cx="122.743" cy="492.864" r="1.11023" fill="#FF725E"/>
<circle cx="212.672" cy="488.422" r="8.88187" fill="#FAFAFA"/>
<circle cx="208.231" cy="487.312" r="1.11023" fill="#FF725E"/>
<circle cx="212.672" cy="488.422" r="1.11023" fill="#FF725E"/>
<circle cx="217.113" cy="489.533" r="1.11023" fill="#FF725E"/>
<circle cx="209.341" cy="492.864" r="1.11023" fill="#FF725E"/>
<circle cx="212.672" cy="483.981" r="1.11023" fill="#FF725E"/>
<circle cx="216.003" cy="486.202" r="1.11023" fill="#FF725E"/>
<circle cx="213.782" cy="491.753" r="1.11023" fill="#FF725E"/>
<circle cx="174.699" cy="460.442" r="8.88187" transform="rotate(75 174.699 460.442)" fill="#FAFAFA"/>
<circle cx="174.622" cy="455.866" r="1.11023" transform="rotate(75 174.622 455.866)" fill="#FF725E"/>
<circle cx="174.699" cy="460.443" r="1.11023" transform="rotate(75 174.699 460.443)" fill="#FF725E"/>
<circle cx="174.776" cy="465.019" r="1.11023" transform="rotate(75 174.776 465.019)" fill="#FF725E"/>
<circle cx="169.547" cy="458.375" r="1.11023" transform="rotate(75 169.547 458.375)" fill="#FF725E"/>
<circle cx="178.989" cy="459.293" r="1.11023" transform="rotate(75 178.989 459.293)" fill="#FF725E"/>
<circle cx="177.706" cy="463.085" r="1.11023" transform="rotate(75 177.706 463.085)" fill="#FF725E"/>
<circle cx="171.77" cy="462.377" r="1.11023" transform="rotate(75 171.77 462.377)" fill="#FF725E"/>
<circle cx="193.573" cy="497.08" r="8.88187" transform="rotate(75 193.573 497.08)" fill="#FAFAFA"/>
<circle cx="193.496" cy="492.503" r="1.11023" transform="rotate(75 193.496 492.503)" fill="#FF725E"/>
<circle cx="193.573" cy="497.08" r="1.11023" transform="rotate(75 193.573 497.08)" fill="#FF725E"/>
<circle cx="193.65" cy="501.657" r="1.11023" transform="rotate(75 193.65 501.657)" fill="#FF725E"/>
<circle cx="188.421" cy="495.012" r="1.11023" transform="rotate(75 188.421 495.012)" fill="#FF725E"/>
<circle cx="197.863" cy="495.931" r="1.11023" transform="rotate(75 197.863 495.931)" fill="#FF725E"/>
<circle cx="196.58" cy="499.723" r="1.11023" transform="rotate(75 196.58 499.723)" fill="#FF725E"/>
<circle cx="190.644" cy="499.015" r="1.11023" transform="rotate(75 190.644 499.015)" fill="#FF725E"/>
<circle cx="198.014" cy="515.954" r="8.88187" transform="rotate(75 198.014 515.954)" fill="#FAFAFA"/>
<circle cx="197.937" cy="511.377" r="1.11023" transform="rotate(75 197.937 511.377)" fill="#FF725E"/>
<circle cx="198.015" cy="515.954" r="1.11023" transform="rotate(75 198.015 515.954)" fill="#FF725E"/>
<circle cx="198.091" cy="520.531" r="1.11023" transform="rotate(75 198.091 520.531)" fill="#FF725E"/>
<circle cx="192.863" cy="513.886" r="1.11023" transform="rotate(75 192.863 513.886)" fill="#FF725E"/>
<circle cx="202.304" cy="514.804" r="1.11023" transform="rotate(75 202.304 514.804)" fill="#FF725E"/>
<circle cx="201.021" cy="518.596" r="1.11023" transform="rotate(75 201.021 518.596)" fill="#FF725E"/>
<circle cx="195.085" cy="517.888" r="1.11023" transform="rotate(75 195.085 517.888)" fill="#FF725E"/>
<circle cx="223.55" cy="502.631" r="8.88187" transform="rotate(75 223.55 502.631)" fill="#FAFAFA"/>
<circle cx="223.473" cy="498.054" r="1.11023" transform="rotate(75 223.473 498.054)" fill="#FF725E"/>
<circle cx="223.549" cy="502.631" r="1.11023" transform="rotate(75 223.549 502.631)" fill="#FF725E"/>
<circle cx="223.627" cy="507.208" r="1.11023" transform="rotate(75 223.627 507.208)" fill="#FF725E"/>
<circle cx="218.398" cy="500.563" r="1.11023" transform="rotate(75 218.398 500.563)" fill="#FF725E"/>
<circle cx="227.839" cy="501.482" r="1.11023" transform="rotate(75 227.839 501.482)" fill="#FF725E"/>
<circle cx="226.557" cy="505.274" r="1.11023" transform="rotate(75 226.557 505.274)" fill="#FF725E"/>
<circle cx="220.619" cy="504.566" r="1.11023" transform="rotate(75 220.619 504.566)" fill="#FF725E"/>
<circle cx="231.321" cy="480.427" r="8.88187" transform="rotate(75 231.321 480.427)" fill="#FAFAFA"/>
<circle cx="231.244" cy="475.85" r="1.11023" transform="rotate(75 231.244 475.85)" fill="#FF725E"/>
<circle cx="231.321" cy="480.427" r="1.11023" transform="rotate(75 231.321 480.427)" fill="#FF725E"/>
<circle cx="231.398" cy="485.004" r="1.11023" transform="rotate(75 231.398 485.004)" fill="#FF725E"/>
<circle cx="226.17" cy="478.359" r="1.11023" transform="rotate(75 226.17 478.359)" fill="#FF725E"/>
<circle cx="235.611" cy="479.277" r="1.11023" transform="rotate(75 235.611 479.277)" fill="#FF725E"/>
<circle cx="234.328" cy="483.069" r="1.11023" transform="rotate(75 234.328 483.069)" fill="#FF725E"/>
<circle cx="228.391" cy="482.361" r="1.11023" transform="rotate(75 228.391 482.361)" fill="#FF725E"/>
<circle cx="210.227" cy="467.104" r="8.88187" transform="rotate(75 210.227 467.104)" fill="#FAFAFA"/>
<circle cx="210.15" cy="462.527" r="1.11023" transform="rotate(75 210.15 462.527)" fill="#FF725E"/>
<circle cx="210.227" cy="467.104" r="1.11023" transform="rotate(75 210.227 467.104)" fill="#FF725E"/>
<circle cx="210.304" cy="471.681" r="1.11023" transform="rotate(75 210.304 471.681)" fill="#FF725E"/>
<circle cx="205.075" cy="465.036" r="1.11023" transform="rotate(75 205.075 465.036)" fill="#FF725E"/>
<circle cx="214.516" cy="465.954" r="1.11023" transform="rotate(75 214.516 465.954)" fill="#FF725E"/>
<circle cx="213.234" cy="469.746" r="1.11023" transform="rotate(75 213.234 469.746)" fill="#FF725E"/>
<circle cx="207.297" cy="469.038" r="1.11023" transform="rotate(75 207.297 469.038)" fill="#FF725E"/>
<circle cx="246.864" cy="463.773" r="8.88187" transform="rotate(75 246.864 463.773)" fill="#FAFAFA"/>
<circle cx="246.787" cy="459.196" r="1.11023" transform="rotate(75 246.787 459.196)" fill="#FF725E"/>
<circle cx="246.864" cy="463.773" r="1.11023" transform="rotate(75 246.864 463.773)" fill="#FF725E"/>
<circle cx="246.941" cy="468.35" r="1.11023" transform="rotate(75 246.941 468.35)" fill="#FF725E"/>
<circle cx="241.713" cy="461.705" r="1.11023" transform="rotate(75 241.713 461.705)" fill="#FF725E"/>
<circle cx="251.154" cy="462.624" r="1.11023" transform="rotate(75 251.154 462.624)" fill="#FF725E"/>
<circle cx="249.871" cy="466.416" r="1.11023" transform="rotate(75 249.871 466.416)" fill="#FF725E"/>
<circle cx="243.935" cy="465.707" r="1.11023" transform="rotate(75 243.935 465.707)" fill="#FF725E"/>
<circle cx="251.305" cy="483.758" r="8.88187" transform="rotate(75 251.305 483.758)" fill="#FAFAFA"/>
<circle cx="251.228" cy="479.181" r="1.11023" transform="rotate(75 251.228 479.181)" fill="#FF725E"/>
<circle cx="251.305" cy="483.758" r="1.11023" transform="rotate(75 251.305 483.758)" fill="#FF725E"/>
<circle cx="251.382" cy="488.335" r="1.11023" transform="rotate(75 251.382 488.335)" fill="#FF725E"/>
<circle cx="246.153" cy="481.69" r="1.11023" transform="rotate(75 246.153 481.69)" fill="#FF725E"/>
<circle cx="255.595" cy="482.608" r="1.11023" transform="rotate(75 255.595 482.608)" fill="#FF725E"/>
<circle cx="254.312" cy="486.4" r="1.11023" transform="rotate(75 254.312 486.4)" fill="#FF725E"/>
<circle cx="248.376" cy="485.692" r="1.11023" transform="rotate(75 248.376 485.692)" fill="#FF725E"/>
<circle cx="216.888" cy="522.616" r="8.88187" transform="rotate(75 216.888 522.616)" fill="#FAFAFA"/>
<circle cx="216.811" cy="518.039" r="1.11023" transform="rotate(75 216.811 518.039)" fill="#FF725E"/>
<circle cx="216.888" cy="522.616" r="1.11023" transform="rotate(75 216.888 522.616)" fill="#FF725E"/>
<circle cx="216.965" cy="527.193" r="1.11023" transform="rotate(75 216.965 527.193)" fill="#FF725E"/>
<circle cx="211.736" cy="520.548" r="1.11023" transform="rotate(75 211.736 520.548)" fill="#FF725E"/>
<circle cx="221.178" cy="521.466" r="1.11023" transform="rotate(75 221.178 521.466)" fill="#FF725E"/>
<circle cx="219.895" cy="525.258" r="1.11023" transform="rotate(75 219.895 525.258)" fill="#FF725E"/>
<circle cx="213.958" cy="524.55" r="1.11023" transform="rotate(75 213.958 524.55)" fill="#FF725E"/>
<circle cx="136.951" cy="505.962" r="8.88187" transform="rotate(75 136.951 505.962)" fill="#FAFAFA"/>
<circle cx="136.874" cy="501.385" r="1.11023" transform="rotate(75 136.874 501.385)" fill="#FF725E"/>
<circle cx="136.951" cy="505.962" r="1.11023" transform="rotate(75 136.951 505.962)" fill="#FF725E"/>
<circle cx="137.028" cy="510.539" r="1.11023" transform="rotate(75 137.028 510.539)" fill="#FF725E"/>
<circle cx="131.799" cy="503.894" r="1.11023" transform="rotate(75 131.799 503.894)" fill="#FF725E"/>
<circle cx="141.241" cy="504.812" r="1.11023" transform="rotate(75 141.241 504.812)" fill="#FF725E"/>
<circle cx="139.958" cy="508.604" r="1.11023" transform="rotate(75 139.958 508.604)" fill="#FF725E"/>
<circle cx="134.021" cy="507.896" r="1.11023" transform="rotate(75 134.021 507.896)" fill="#FF725E"/>
<circle cx="151.858" cy="527.53" r="1.11023" transform="rotate(75 151.858 527.53)" fill="#FF725E"/>
<circle cx="150.748" cy="547.515" r="1.11023" transform="rotate(75 150.748 547.515)" fill="#FF725E"/>
<circle cx="145.196" cy="529.751" r="1.11023" transform="rotate(75 145.196 529.751)" fill="#FF725E"/>
<circle cx="156.299" cy="529.751" r="1.11023" transform="rotate(75 156.299 529.751)" fill="#FF725E"/>
<circle cx="161.85" cy="528.641" r="1.11023" transform="rotate(75 161.85 528.641)" fill="#FF725E"/>
<circle cx="167.401" cy="531.972" r="1.11023" transform="rotate(75 167.401 531.972)" fill="#FF725E"/>
<circle cx="174.063" cy="529.751" r="1.11023" transform="rotate(75 174.063 529.751)" fill="#FF725E"/>
<circle cx="177.393" cy="527.53" r="1.11023" transform="rotate(75 177.393 527.53)" fill="#FF725E"/>
<circle cx="182.944" cy="530.861" r="1.11023" transform="rotate(75 182.944 530.861)" fill="#FF725E"/>
<circle cx="214.031" cy="530.861" r="1.11023" transform="rotate(75 214.031 530.861)" fill="#FF725E"/>
<circle cx="218.472" cy="533.081" r="1.11023" transform="rotate(75 218.472 533.081)" fill="#FF725E"/>
<circle cx="222.913" cy="527.53" r="1.11023" transform="rotate(75 222.913 527.53)" fill="#FF725E"/>
<circle cx="230.685" cy="526.42" r="1.11023" transform="rotate(75 230.685 526.42)" fill="#FF725E"/>
<circle cx="231.795" cy="541.964" r="1.11023" transform="rotate(75 231.795 541.964)" fill="#FF725E"/>
<circle cx="172.953" cy="535.302" r="1.11023" transform="rotate(75 172.953 535.302)" fill="#FF725E"/>
<circle cx="178.504" cy="537.522" r="1.11023" transform="rotate(75 178.504 537.522)" fill="#FF725E"/>
<circle cx="207.37" cy="528.641" r="1.11023" transform="rotate(75 207.37 528.641)" fill="#FF725E"/>
<circle cx="156.299" cy="524.2" r="1.11023" transform="rotate(75 156.299 524.2)" fill="#FF725E"/>
<circle cx="134.094" cy="531.972" r="1.11023" transform="rotate(75 134.094 531.972)" fill="#FF725E"/>
<circle cx="128.543" cy="533.081" r="1.11023" transform="rotate(75 128.543 533.081)" fill="#FF725E"/>
<circle cx="149.638" cy="543.074" r="1.11023" transform="rotate(75 149.638 543.074)" fill="#FF725E"/>
<circle cx="121.882" cy="527.53" r="1.11023" transform="rotate(75 121.882 527.53)" fill="#FF725E"/>
<circle cx="176.92" cy="420.474" r="8.88187" transform="rotate(75 176.92 420.474)" fill="#FAFAFA"/>
<circle cx="176.843" cy="415.897" r="1.11023" transform="rotate(75 176.843 415.897)" fill="#FF725E"/>
<circle cx="176.283" cy="420.948" r="1.11023" transform="rotate(75 176.283 420.948)" fill="#FF725E"/>
<circle cx="175.173" cy="425.389" r="1.11023" transform="rotate(75 175.173 425.389)" fill="#FF725E"/>
<circle cx="171.768" cy="418.406" r="1.11023" transform="rotate(75 171.768 418.406)" fill="#FF725E"/>
<circle cx="181.21" cy="419.325" r="1.11023" transform="rotate(75 181.21 419.325)" fill="#FF725E"/>
<circle cx="181.835" cy="424.279" r="1.11023" transform="rotate(75 181.835 424.279)" fill="#FF725E"/>
<circle cx="136.951" cy="472.655" r="8.88187" transform="rotate(75 136.951 472.655)" fill="#FAFAFA"/>
<circle cx="136.874" cy="468.078" r="1.11023" transform="rotate(75 136.874 468.078)" fill="#FF725E"/>
<circle cx="136.315" cy="473.129" r="1.11023" transform="rotate(75 136.315 473.129)" fill="#FF725E"/>
<circle cx="135.204" cy="477.57" r="1.11023" transform="rotate(75 135.204 477.57)" fill="#FF725E"/>
<circle cx="131.799" cy="470.587" r="1.11023" transform="rotate(75 131.799 470.587)" fill="#FF725E"/>
<circle cx="141.241" cy="471.505" r="1.11023" transform="rotate(75 141.241 471.505)" fill="#FF725E"/>
<circle cx="141.866" cy="476.46" r="1.11023" transform="rotate(75 141.866 476.46)" fill="#FF725E"/>
<circle cx="174.699" cy="512.624" r="8.88187" transform="rotate(75 174.699 512.624)" fill="#FAFAFA"/>
<circle cx="174.622" cy="508.047" r="1.11023" transform="rotate(75 174.622 508.047)" fill="#FF725E"/>
<circle cx="174.063" cy="513.098" r="1.11023" transform="rotate(75 174.063 513.098)" fill="#FF725E"/>
<circle cx="172.953" cy="517.538" r="1.11023" transform="rotate(75 172.953 517.538)" fill="#FF725E"/>
<circle cx="169.548" cy="510.556" r="1.11023" transform="rotate(75 169.548 510.556)" fill="#FF725E"/>
<circle cx="178.989" cy="511.474" r="1.11023" transform="rotate(75 178.989 511.474)" fill="#FF725E"/>
<circle cx="179.614" cy="516.428" r="1.11023" transform="rotate(75 179.614 516.428)" fill="#FF725E"/>
<circle cx="161.376" cy="478.206" r="8.88187" transform="rotate(75 161.376 478.206)" fill="#FAFAFA"/>
<circle cx="161.3" cy="473.629" r="1.11023" transform="rotate(75 161.3 473.629)" fill="#FF725E"/>
<circle cx="160.74" cy="478.68" r="1.11023" transform="rotate(75 160.74 478.68)" fill="#FF725E"/>
<circle cx="159.63" cy="483.121" r="1.11023" transform="rotate(75 159.63 483.121)" fill="#FF725E"/>
<circle cx="156.225" cy="476.138" r="1.11023" transform="rotate(75 156.225 476.138)" fill="#FF725E"/>
<circle cx="165.666" cy="477.057" r="1.11023" transform="rotate(75 165.666 477.057)" fill="#FF725E"/>
<circle cx="166.291" cy="482.011" r="1.11023" transform="rotate(75 166.291 482.011)" fill="#FF725E"/>
<circle cx="206.071" cy="436.303" r="8.88187" transform="rotate(-57.2768 206.071 436.303)" fill="#FAFAFA"/>
<circle cx="202.736" cy="439.439" r="1.11023" transform="rotate(-57.2768 202.736 439.439)" fill="#FF725E"/>
<circle cx="206.85" cy="436.455" r="1.11023" transform="rotate(-57.2768 206.85 436.455)" fill="#FF725E"/>
<circle cx="210.883" cy="434.289" r="1.11023" transform="rotate(-57.2768 210.883 434.289)" fill="#FF725E"/>
<circle cx="208.007" cy="441.506" r="1.11023" transform="rotate(-57.2768 208.007 441.506)" fill="#FF725E"/>
<circle cx="202.335" cy="433.902" r="1.11023" transform="rotate(-57.2768 202.335 433.902)" fill="#FF725E"/>
<circle cx="205.58" cy="430.107" r="1.11023" transform="rotate(-57.2768 205.58 430.107)" fill="#FF725E"/>
<circle cx="246.04" cy="502.917" r="8.88187" transform="rotate(-57.2768 246.04 502.917)" fill="#FAFAFA"/>
<circle cx="242.705" cy="506.053" r="1.11023" transform="rotate(-57.2768 242.705 506.053)" fill="#FF725E"/>
<circle cx="246.818" cy="503.069" r="1.11023" transform="rotate(-57.2768 246.818 503.069)" fill="#FF725E"/>
<circle cx="250.851" cy="500.902" r="1.11023" transform="rotate(-57.2768 250.851 500.902)" fill="#FF725E"/>
<circle cx="247.975" cy="508.12" r="1.11023" transform="rotate(-57.2768 247.975 508.12)" fill="#FF725E"/>
<circle cx="242.303" cy="500.516" r="1.11023" transform="rotate(-57.2768 242.303 500.516)" fill="#FF725E"/>
<circle cx="245.549" cy="496.721" r="1.11023" transform="rotate(-57.2768 245.549 496.721)" fill="#FF725E"/>
<circle cx="189.418" cy="474.051" r="8.88187" transform="rotate(-57.2768 189.418 474.051)" fill="#FAFAFA"/>
<circle cx="186.083" cy="477.187" r="1.11023" transform="rotate(-57.2768 186.083 477.187)" fill="#FF725E"/>
<circle cx="190.197" cy="474.203" r="1.11023" transform="rotate(-57.2768 190.197 474.203)" fill="#FF725E"/>
<circle cx="194.229" cy="472.037" r="1.11023" transform="rotate(-57.2768 194.229 472.037)" fill="#FF725E"/>
<circle cx="191.354" cy="479.253" r="1.11023" transform="rotate(-57.2768 191.354 479.253)" fill="#FF725E"/>
<circle cx="185.681" cy="471.65" r="1.11023" transform="rotate(-57.2768 185.681 471.65)" fill="#FF725E"/>
<circle cx="188.927" cy="467.855" r="1.11023" transform="rotate(-57.2768 188.927 467.855)" fill="#FF725E"/>
</g>
<path d="M390.5 309.5C372 319 366 363 360.5 381C344.248 434.189 309 418 305.5 414" stroke="#FF725E" stroke-width="2" stroke-linecap="round"/>
<path d="M312 423.501L305.382 414.299L315.5 413" stroke="#FF725E" stroke-width="2" stroke-linecap="round" stroke-linejoin="round"/>
<path d="M343.177 207.26L343.177 225.887L326 224.229" stroke="#69CA90" stroke-width="6" stroke-linecap="round" stroke-linejoin="round"/>
<path d="M470.177 308.26L470.177 326.887L453 325.229" stroke="#69CA90" stroke-width="6" stroke-linecap="round" stroke-linejoin="round"/>
</svg>
