<svg width="132" height="164" viewBox="0 0 132 164" fill="none" xmlns="http://www.w3.org/2000/svg">
<path d="M22.5946 141.392C16.8072 141.214 11.3164 138.791 7.28541 134.634C3.25444 130.478 1.00008 124.915 1 119.125V44.875C1 38.9673 3.34682 33.3016 7.5242 29.1242C11.7016 24.9468 17.3673 22.6 23.275 22.6H79.3" stroke="#333333" stroke-width="2" stroke-miterlimit="10" stroke-linecap="round" stroke-linejoin="round"/>
<path d="M109 22.6105C114.788 22.786 120.28 25.2086 124.313 29.3648C128.345 33.521 130.6 39.084 130.6 44.8747V119.125C130.6 125.032 128.253 130.698 124.076 134.876C119.898 139.053 114.233 141.4 108.325 141.4H52.3" stroke="#333333" stroke-width="2" stroke-miterlimit="10" stroke-linecap="round" stroke-linejoin="round"/>
<path d="M55 44.2L79.3 22.6L55 1" stroke="#333333" stroke-width="2" stroke-miterlimit="10" stroke-linecap="round" stroke-linejoin="round"/>
<path d="M76.6 119.8L52.3 141.4L76.6 163" stroke="#333333" stroke-width="2" stroke-miterlimit="10" stroke-linecap="round" stroke-linejoin="round"/>
</svg>
