<svg width="67" height="34" viewBox="0 0 67 34" fill="none" xmlns="http://www.w3.org/2000/svg">
<rect x="1" y="1" width="65" height="32" rx="16" fill="white" fill-opacity="0.2" stroke="white" stroke-width="2"/>
<path d="M53.5481 16.6054C53.4346 16.4695 53.319 16.3399 53.1971 16.2145C52.3472 15.3163 51.2767 14.6537 50.0912 14.2917C49.9714 14.4254 49.8474 14.5571 49.7171 14.6846L49.6709 14.7285C50.8904 15.0402 51.9945 15.693 52.8525 16.6095C51.7754 17.769 50.3055 18.4917 48.7252 18.639C48.6622 18.57 48.5991 18.499 48.534 18.43C47.5788 17.4314 46.3384 16.7485 44.9804 16.4737C46.7484 16.0818 48.3657 15.1923 49.6394 13.9113C51.2525 12.3024 52.2233 10.1656 52.3713 7.89822C52.3839 7.68922 52.3881 7.49902 52.3881 7.29838C52.1779 7.29838 51.9867 7.29838 51.7871 7.31928C49.8065 7.46814 47.9225 8.22981 46.3992 9.49746C44.8758 10.7651 43.7897 12.4752 43.293 14.3878C42.999 13.1691 42.3897 12.048 41.5256 11.1357C41.4605 11.0667 41.3932 11.0019 41.3155 10.9392C41.4417 9.32509 42.1315 7.80567 43.2656 6.64419C44.1612 7.56499 44.7862 8.7121 45.0729 9.9611C45.2137 9.82734 45.3587 9.69775 45.5058 9.57235C45.1735 8.33692 44.5323 7.20521 43.6418 6.28261C43.522 6.15721 43.3959 6.03599 43.2656 5.91895C43.1374 6.03599 43.0135 6.15721 42.8916 6.28261C41.776 7.43884 41.0617 8.91974 40.8532 10.5087C39.6239 9.53653 38.0967 9.01278 36.5263 9.02476C36.356 9.02476 36.1837 9.02476 36.0114 9.04357C36.0009 9.22122 35.9946 9.39888 35.9946 9.57653C35.9782 11.192 36.4802 12.7705 37.4278 14.0827C35.8649 14.3143 34.4271 15.0658 33.3488 16.2145C33.2291 16.3399 33.1135 16.4695 33 16.6054C33.1135 16.7391 33.2291 16.8708 33.3488 16.9941C34.4271 18.1429 35.8649 18.8943 37.4278 19.126C36.4792 20.4385 35.9764 22.0178 35.9925 23.6342C35.9925 23.8098 35.9925 23.9895 36.0114 24.1651C36.1816 24.1776 36.3518 24.186 36.5242 24.186C38.0961 24.1942 39.6235 23.6676 40.8532 22.6937C41.0628 24.2887 41.7809 25.775 42.9021 26.9344C43.0219 27.0598 43.148 27.181 43.2782 27.2981C43.4064 27.181 43.5325 27.0598 43.6523 26.9344C44.7756 25.7764 45.4941 24.2895 45.7012 22.6937C46.9309 23.6676 48.4583 24.1942 50.0302 24.186C50.2026 24.186 50.3728 24.186 50.5451 24.1672C50.5451 23.9874 50.5619 23.8098 50.5619 23.6321C50.5802 22.0174 50.0803 20.4389 49.135 19.126C50.695 18.8907 52.129 18.1371 53.2034 16.9878C53.3253 16.8708 53.4409 16.7391 53.5481 16.6054ZM42.6415 16.3337H42.5701C41.0485 16.2451 39.6104 15.6127 38.5205 14.5529C40.0408 14.6192 41.486 15.2284 42.5911 16.2689L42.6415 16.3337ZM42.6415 16.875L42.5974 16.9293C41.496 17.9761 40.0508 18.5909 38.5289 18.6599C39.6186 17.5998 41.0568 16.9674 42.5785 16.8792L42.6415 16.875ZM43.0093 17.2596V17.3411C42.9321 18.8945 42.3293 20.3764 41.2987 21.5462C41.3518 19.9883 41.9341 18.4943 42.9504 17.3076L43.0093 17.2596ZM43.5325 17.2596L43.5851 17.3076C44.6022 18.494 45.1852 19.9881 45.2389 21.5462C44.2061 20.3761 43.6031 18.8921 43.5283 17.3369C43.5346 17.3118 43.5367 17.2867 43.5388 17.2596H43.5325ZM43.8919 16.8645C45.4447 16.9378 46.916 17.5769 48.0254 18.6599C46.5033 18.5941 45.0565 17.9823 43.9528 16.9377L43.8919 16.8645ZM43.0198 15.9575L42.9588 15.9031C41.9413 14.7162 41.3583 13.2213 41.305 11.6624C42.3584 12.8545 42.9663 14.3715 43.0261 15.9575H43.0198ZM36.5052 9.55563C38.088 9.53949 39.6201 10.1102 40.8027 11.1566C40.8027 11.2507 40.8027 11.3468 40.8027 11.4429C40.8022 12.6668 41.1085 13.8714 41.6937 14.948C40.6768 14.3445 39.5155 14.024 38.3314 14.02C38.2389 14.02 38.1465 14.02 38.0561 14.02C37.0344 12.7556 36.4855 11.1777 36.5031 9.55563H36.5052ZM33.6956 16.6054C34.7724 15.4441 36.2434 14.7204 37.825 14.5738C37.8859 14.6449 37.9489 14.7139 38.0141 14.7828C38.8388 15.6448 39.8787 16.2737 41.0276 16.6054C39.8783 16.9362 38.8382 17.5653 38.0141 18.4279C37.9489 18.4948 37.8859 18.5658 37.8229 18.6369C36.2423 18.4891 34.7724 17.7656 33.6956 16.6054ZM36.5031 23.6551C36.4794 22.032 37.0231 20.451 38.0414 19.1824C38.1339 19.1824 38.2242 19.1824 38.3167 19.1824C39.501 19.1796 40.6626 18.859 41.679 18.2544C41.093 19.3308 40.7861 20.5354 40.7859 21.7594C40.7859 21.8556 40.7859 21.9517 40.7859 22.0479C39.6075 23.0922 38.0815 23.6649 36.5031 23.6551ZM43.2782 26.5812C42.1452 25.4188 41.4548 23.9 41.326 22.2861C41.3932 22.2213 41.4605 22.1565 41.5361 22.0897C42.376 21.2078 42.9788 20.1295 43.2888 18.9546C43.5957 20.1303 44.1981 21.2091 45.0393 22.0897C45.1044 22.1565 45.1717 22.2213 45.2494 22.2861C45.1152 23.9006 44.418 25.4176 43.2782 26.5749V26.5812ZM50.0513 23.6551C48.4687 23.6702 46.9369 23.0996 45.7538 22.0541C45.7538 21.958 45.7538 21.8618 45.7538 21.7657C45.7536 20.5417 45.4466 19.337 44.8606 18.2607C45.8774 18.8644 47.0388 19.1849 48.223 19.1887C48.3155 19.1887 48.4058 19.1887 48.4983 19.1887C49.5208 20.4535 50.0697 22.0323 50.0513 23.6551Z" fill="white"/>
<ellipse rx="11.9694" ry="11.9694" transform="matrix(1 -8.74228e-08 -8.74228e-08 -1 16.8979 16.898)" fill="white"/>
<path d="M17.3967 18.8928L14.9031 16.6486L17.3967 14.4043" stroke="#2CA6FF" stroke-width="2" stroke-linecap="round" stroke-linejoin="round"/>
</svg>
