<svg width="134" height="36" viewBox="0 0 134 36" fill="none" xmlns="http://www.w3.org/2000/svg">
<path d="M46.68 10.7255H45.8113V7.16737C45.8113 6.87802 45.8278 6.5218 45.8607 6.09871C45.8255 6.27397 45.7774 6.44641 45.7166 6.61461L44.1275 10.7255H43.5223L41.9415 6.63099C41.8811 6.45322 41.8343 6.27119 41.8015 6.08642C41.8015 6.30343 41.8303 6.66375 41.8303 7.16328V10.7255H41.007V5.21021H42.242L43.6335 8.89524C43.7147 9.09977 43.7834 9.30896 43.8393 9.5217C43.934 9.23508 44.0081 9.01807 44.0617 8.87886L45.4779 5.23068H46.68V10.7255Z" fill="white"/>
<path d="M50.9487 10.7091H47.9805V5.21021H50.8334V5.98406H48.8574V7.54406H50.677V8.31382H48.8574V9.93934H50.9487V10.7091Z" fill="white"/>
<path d="M58.6184 10.7253H57.4945L55.6378 8.23589C55.5917 8.17641 55.5504 8.11343 55.5143 8.04755V10.7253H54.6662V8.04755C54.6309 8.11395 54.5896 8.177 54.5427 8.23589L52.6572 10.7253H51.5292L53.7729 7.8592L51.6897 5.21826H52.7478L54.4974 7.5644C54.5504 7.63253 54.5972 7.70514 54.6374 7.78141V5.21826H55.4896V7.78141C55.5296 7.70506 55.5765 7.63243 55.6295 7.5644L57.3792 5.21826H58.4331L56.3788 7.8592L58.6184 10.7253Z" fill="white"/>
<path d="M62.6578 9.93498V5.99608H61.5134C61.4612 6.67739 61.3426 7.35206 61.1593 8.01057C60.9933 8.67212 60.7645 9.31648 60.4759 9.93498H62.6578ZM64.2675 12.1951H63.4812V10.7252H59.8913V12.2074H59.1091V9.94726H59.5537C59.9153 9.22453 60.1982 8.46548 60.3977 7.68301C60.6192 6.88106 60.7504 6.0571 60.7888 5.22632H63.5388V9.95135H64.2675V12.1951Z" fill="white"/>
<path d="M69.6694 10.7255H68.8461V7.04044C68.8423 6.80649 68.8546 6.57255 68.8831 6.34028C68.8435 6.45239 68.7911 6.55956 68.7267 6.65965L66.1537 10.7255H65.1903V5.21021H66.0384V8.71099C66.0445 8.97347 66.0335 9.23606 66.0054 9.49713C66.0634 9.38027 66.128 9.2668 66.1989 9.15729L68.6649 5.21021H69.6736L69.6694 10.7255Z" fill="white"/>
<path d="M74.6751 10.4798C74.2165 10.7106 73.7066 10.8219 73.193 10.8033C72.8486 10.8187 72.505 10.7589 72.1863 10.6281C71.8677 10.4972 71.5817 10.2984 71.3486 10.0458C70.8679 9.49948 70.6186 8.78926 70.6529 8.06408C70.6195 7.27808 70.9008 6.51097 71.4351 5.93086C71.6871 5.66371 71.9931 5.45263 72.333 5.31149C72.6728 5.17035 73.0389 5.10235 73.4071 5.11196C73.841 5.09691 74.2732 5.17367 74.6751 5.33715V6.24204C74.3225 6.02184 73.9139 5.90674 73.4976 5.91038C73.2379 5.90106 72.9792 5.94743 72.7392 6.04634C72.4991 6.14525 72.2832 6.29438 72.1061 6.48361C71.7358 6.90465 71.544 7.45208 71.571 8.01086C71.5433 8.54047 71.7234 9.06009 72.0732 9.4603C72.2391 9.63791 72.4415 9.77779 72.6668 9.87036C72.892 9.96294 73.1347 10.006 73.3783 9.99668C73.8382 10.0082 74.2907 9.87965 74.6751 9.62818V10.4798Z" fill="white"/>
<path d="M80.6732 12.1995H79.891V10.7132H75.7042V5.21021H76.5811V9.91067H79.0677V5.21021H79.9487V9.91067H80.6732V12.1995Z" fill="white"/>
<path d="M86.0702 10.7255H85.2468V7.04044C85.2409 6.80645 85.2533 6.57236 85.2839 6.34028C85.2443 6.45239 85.1918 6.55956 85.1274 6.65965L82.5503 10.7255H81.5911V5.21021H82.4391V8.71099C82.4452 8.97347 82.4342 9.23606 82.4062 9.49713C82.4556 9.39477 82.5215 9.28012 82.5956 9.15729L85.0657 5.21021H86.0743L86.0702 10.7255Z" fill="white"/>
<path d="M91.6401 10.7091H90.7591V6.0291H88.256V10.7091H87.3792V5.21021H91.6401V10.7091Z" fill="white"/>
<path d="M97.0051 10.7253H96.1282V5.99612H94.8437C94.6653 7.32273 94.5281 8.26037 94.432 8.80903C94.3672 9.22743 94.2624 9.63874 94.1192 10.0374C94.037 10.2699 93.8864 10.4725 93.6869 10.6188C93.4955 10.7484 93.2678 10.8143 93.0364 10.8071C92.8448 10.8113 92.654 10.7822 92.4724 10.7212V9.90635C92.5987 9.97424 92.7406 10.0081 92.8841 10.0046C92.9699 9.99529 93.0521 9.96547 93.1238 9.9177C93.1955 9.86993 93.2545 9.80564 93.2958 9.7303C93.5108 9.28396 93.6499 8.80522 93.7075 8.3136C93.8447 7.55203 93.9956 6.51203 94.1603 5.1936H97.0421L97.0051 10.7253Z" fill="white"/>
<path d="M102.801 10.7255H101.977V7.04044C101.969 6.80643 101.982 6.57216 102.014 6.34028H101.99C101.952 6.45223 101.9 6.5594 101.837 6.65965L99.2767 10.7255H98.3052V5.21021H99.1532V8.71099C99.1591 8.97329 99.1508 9.23571 99.1285 9.49713C99.1865 9.38027 99.2511 9.2668 99.322 9.15729L101.772 5.21021H102.78L102.801 10.7255Z" fill="white"/>
<path d="M108.351 10.7091H107.47V8.32611H104.983V10.7091H104.106V5.21021H104.983V7.52359H107.47V5.21021H108.351V10.7091Z" fill="white"/>
<path d="M112.435 8.56742L111.702 6.37278C111.67 6.26004 111.646 6.14507 111.632 6.02884C111.617 6.14538 111.592 6.26046 111.558 6.37278L110.833 8.56742H112.435ZM114.106 10.7088H113.126L112.649 9.31262H110.59L110.129 10.7252H109.17L111.15 5.22632H112.138L114.106 10.7088Z" fill="white"/>
<path d="M115.802 5.96324V7.96953H116.371C116.681 7.9906 116.989 7.89408 117.231 7.6993C117.331 7.5993 117.409 7.47942 117.459 7.34748C117.51 7.21554 117.531 7.07452 117.523 6.93363C117.523 6.2867 117.165 5.96324 116.441 5.96324H115.802ZM115.802 8.71473V10.7251H114.93V5.20985H116.531C117.041 5.17798 117.544 5.33559 117.943 5.65205C118.113 5.80753 118.245 5.99821 118.332 6.21051C118.419 6.42281 118.458 6.65153 118.445 6.8804C118.455 7.12354 118.413 7.36593 118.323 7.59218C118.233 7.81843 118.097 8.02361 117.923 8.19473C117.733 8.36917 117.509 8.50398 117.266 8.59118C117.023 8.67839 116.765 8.71622 116.506 8.70244L115.802 8.71473Z" fill="white"/>
<path d="M123.604 10.7091H122.723V8.32611H120.232V10.7091H119.355V5.21021H120.232V7.52359H122.723V5.21021H123.604V10.7091Z" fill="white"/>
<path d="M127.688 8.56742L126.951 6.37278C126.921 6.25956 126.898 6.14472 126.881 6.02884C126.864 6.14505 126.839 6.25997 126.807 6.37278L126.082 8.56742H127.688ZM129.334 10.7088H128.375L127.898 9.31262H125.819L125.382 10.7252H124.423L126.403 5.22632H127.391L129.334 10.7088Z" fill="white"/>
<path d="M132.887 7.7241V5.95938H132.155C131.902 5.94271 131.653 6.02335 131.459 6.18458C131.374 6.26702 131.308 6.3668 131.265 6.47705C131.222 6.58731 131.204 6.70543 131.212 6.82332C131.205 6.94622 131.225 7.0691 131.271 7.18357C131.316 7.29804 131.386 7.40141 131.475 7.48662C131.672 7.65303 131.925 7.73803 132.183 7.7241H132.887ZM133.768 10.709H132.887V8.4652H132.323C132.185 8.46133 132.049 8.50628 131.94 8.59213C131.781 8.74962 131.66 8.94155 131.586 9.15308L130.961 10.709H129.936L130.714 8.96064C130.789 8.81188 130.885 8.67411 130.998 8.55119C131.114 8.40748 131.266 8.29607 131.438 8.22772C131.104 8.16793 130.803 7.99061 130.59 7.7282C130.382 7.46353 130.272 7.13485 130.281 6.79875C130.274 6.58388 130.315 6.37009 130.403 6.17358C130.491 5.97708 130.622 5.80301 130.788 5.66458C131.167 5.37354 131.639 5.22818 132.117 5.25513H133.764L133.768 10.709Z" fill="white"/>
<path d="M49.1421 25.2768H47.3924V20.5395H42.4481V25.2768H40.7067V14.3486H42.4481V18.9467H47.3924V14.3486H49.1421V25.2768Z" fill="white"/>
<path d="M57.2856 25.2768H51.3903V14.3486H57.0509V15.8882H53.1317V18.9836H56.7422V20.5149H53.1317V23.7455H57.2856V25.2768Z" fill="white"/>
<path d="M60.558 20.372V23.8278H62.0442C62.5879 23.8635 63.1254 23.6955 63.5509 23.3569C63.7286 23.1936 63.868 22.9934 63.9591 22.7705C64.0501 22.5476 64.0907 22.3074 64.0779 22.0671C64.0779 20.933 63.3286 20.3679 61.8177 20.3679L60.558 20.372ZM60.558 15.8067V18.9144H61.686C62.1998 18.9447 62.7069 18.7858 63.1104 18.4681C63.286 18.3099 63.4234 18.1143 63.5125 17.896C63.6016 17.6776 63.64 17.4422 63.625 17.207C63.625 16.2735 63.0281 15.8067 61.826 15.8067H60.558ZM58.8207 25.2772V14.3491H62.1553C63.0155 14.3027 63.8661 14.5481 64.5678 15.0451C64.853 15.255 65.0832 15.5302 65.2387 15.8474C65.3942 16.1646 65.4705 16.5144 65.4612 16.8672C65.4716 17.4394 65.2954 17.9997 64.9589 18.464C64.6119 18.9313 64.1224 19.2746 63.5633 19.4426V19.4712C64.2215 19.5227 64.8373 19.8144 65.2924 20.2901C65.7394 20.7934 65.9726 21.4495 65.9428 22.1204C65.9557 22.5552 65.8664 22.9871 65.682 23.3816C65.4976 23.776 65.2232 24.1223 64.8807 24.3928C64.1199 24.9906 63.1694 25.2984 62.2006 25.2608L58.8207 25.2772Z" fill="white"/>
<path d="M69.3353 15.8432V19.8353H70.4633C71.08 19.8782 71.6898 19.6848 72.1677 19.2948C72.3686 19.097 72.5247 18.8588 72.6255 18.5961C72.7264 18.3334 72.7696 18.0524 72.7523 17.7717C72.7523 16.486 72.036 15.8432 70.6033 15.8432H69.3353ZM69.3353 21.3175V25.2769H67.598V14.3487H70.7845C71.8016 14.2849 72.8064 14.5985 73.6045 15.229C73.9409 15.5413 74.2045 15.923 74.3766 16.3475C74.5487 16.7719 74.6252 17.2287 74.6008 17.6857C74.6185 18.1682 74.5354 18.649 74.3569 19.0979C74.1783 19.5469 73.9081 19.9541 73.5633 20.2939C73.1836 20.6461 72.7362 20.9183 72.2481 21.0942C71.7599 21.2701 71.2411 21.346 70.7227 21.3175H69.3353Z" fill="white"/>
<path d="M80.7725 15.7616C80.3206 15.7518 79.8728 15.8479 79.4651 16.0421C79.0575 16.2363 78.7015 16.5231 78.4259 16.8794C77.8407 17.7491 77.5262 18.7711 77.5218 19.8175C77.5174 20.864 77.8233 21.8886 78.4012 22.7631C78.6661 23.1185 79.0131 23.4053 79.413 23.5991C79.8128 23.793 80.2537 23.8882 80.6984 23.8768C81.1513 23.8972 81.6028 23.812 82.0167 23.6278C82.4306 23.4437 82.7954 23.1658 83.082 22.8164C83.6639 22.1121 83.9534 21.124 83.9507 19.852C83.948 18.5799 83.6735 17.5713 83.1273 16.8261C82.851 16.4773 82.4952 16.1989 82.0893 16.0138C81.6835 15.8287 81.2392 15.7422 80.7931 15.7616H80.7725ZM80.6943 25.4655C80.0117 25.4927 79.3315 25.3696 78.7023 25.1048C78.0732 24.8401 77.5107 24.4403 77.055 23.9342C76.1137 22.8236 75.6272 21.4013 75.6923 19.9502C75.6923 18.1896 76.1561 16.7866 77.0838 15.7411C77.5566 15.2174 78.1407 14.805 78.7936 14.5338C79.4466 14.2625 80.1521 14.1392 80.8589 14.1729C81.5296 14.1482 82.1973 14.272 82.8139 14.5355C83.4305 14.7989 83.9805 15.1953 84.4241 15.6961C85.3598 16.8107 85.8416 18.2336 85.7745 19.6841C85.7745 21.4638 85.3134 22.8737 84.3912 23.9137C83.9277 24.4292 83.3549 24.8358 82.7141 25.1042C82.0734 25.3725 81.3806 25.4959 80.686 25.4655" fill="white"/>
<path d="M95.2882 25.2809H93.5467V15.9127H90.9984C90.6389 18.5496 90.3644 20.4126 90.175 21.5017C90.0442 22.3218 89.8361 23.1279 89.5534 23.9093C89.3891 24.3688 89.091 24.7693 88.6971 25.0598C88.3159 25.3193 87.8621 25.4526 87.4003 25.4406C87.0196 25.4467 86.6407 25.3871 86.2805 25.2645V23.7168C86.5209 23.8446 86.7901 23.9094 87.0627 23.9052C87.2335 23.8874 87.3974 23.829 87.5407 23.7349C87.684 23.6408 87.8025 23.5139 87.8861 23.3647C88.1441 23.0044 88.4089 22.0667 88.6806 20.5518C88.9523 19.0368 89.2515 16.9691 89.5781 14.3486H95.2964L95.2882 25.2809Z" fill="white"/>
<path d="M102.035 15.7616C101.583 15.7518 101.135 15.8479 100.728 16.0421C100.32 16.2363 99.9639 16.5231 99.6883 16.8794C99.1031 17.7491 98.7887 18.7711 98.7843 19.8175C98.7799 20.864 99.0857 21.8886 99.6636 22.7631C99.929 23.118 100.276 23.4044 100.676 23.5982C101.076 23.792 101.516 23.8876 101.961 23.8768C102.414 23.8966 102.865 23.811 103.279 23.6269C103.693 23.4428 104.057 23.1653 104.344 22.8164C104.926 22.1121 105.216 21.124 105.213 19.852C105.21 18.5799 104.929 17.5713 104.369 16.8261C104.093 16.4773 103.737 16.1989 103.331 16.0138C102.925 15.8287 102.481 15.7422 102.035 15.7616ZM101.957 25.4655C101.274 25.4933 100.594 25.3704 99.9645 25.1056C99.3352 24.8409 98.7727 24.4408 98.3174 23.9342C97.3761 22.8236 96.8897 21.4013 96.9548 19.9502C96.9548 18.1896 97.4186 16.7866 98.3462 15.7411C98.819 15.2174 99.4031 14.805 100.056 14.5338C100.709 14.2625 101.415 14.1392 102.121 14.1729C102.792 14.1482 103.46 14.272 104.076 14.5355C104.693 14.7989 105.243 15.1953 105.687 15.6961C106.622 16.8107 107.104 18.2336 107.037 19.6841C107.037 21.4638 106.576 22.8737 105.654 23.9137C105.19 24.4292 104.617 24.8358 103.977 25.1042C103.336 25.3725 102.643 25.4959 101.948 25.4655" fill="white"/>
<path d="M114.51 15.9209H110.438V25.2768H108.697V14.3486H114.51V15.9209Z" fill="white"/>
<path d="M124.798 25.2809H123.118V18.0009C123.106 17.537 123.131 17.0729 123.192 16.6129H123.147C123.069 16.8348 122.966 17.0476 122.842 17.2475L117.803 25.2809H115.893V14.3486H117.572V21.3093C117.586 21.8313 117.567 22.3537 117.515 22.8733H117.544C117.657 22.6419 117.785 22.4176 117.927 22.2019L122.789 14.3568H124.798V25.2809Z" fill="white"/>
<path d="M132.064 19.3483V15.8352H130.606C130.104 15.8036 129.609 15.9648 129.223 16.2856C129.054 16.4501 128.922 16.6489 128.836 16.8687C128.751 17.0884 128.715 17.3239 128.729 17.559C128.717 17.8022 128.758 18.0452 128.849 18.2713C128.94 18.4974 129.079 18.7013 129.256 18.8692C129.646 19.2038 130.15 19.3754 130.664 19.3483H132.064ZM133.805 25.2771H132.064V20.8141H130.936C130.662 20.8088 130.395 20.897 130.178 21.0639C129.862 21.3796 129.622 21.7634 129.478 22.1858L128.243 25.2771H126.206L127.749 21.805C127.897 21.4975 128.085 21.2111 128.309 20.9533C128.542 20.6706 128.844 20.452 129.186 20.3187V20.29C128.524 20.1728 127.926 19.8207 127.505 19.299C127.083 18.7773 126.866 18.1213 126.893 17.4525C126.877 17.0259 126.959 16.6011 127.133 16.2108C127.307 15.8205 127.569 15.4749 127.898 15.2006C128.642 14.6065 129.579 14.3036 130.532 14.3489H133.826L133.805 25.2771Z" fill="white"/>
<path d="M41.2918 31.3695V32.127H41.6294C41.7519 32.1342 41.8729 32.0979 41.9711 32.0247C42.011 31.9886 42.0423 31.9442 42.063 31.8946C42.0836 31.8451 42.093 31.7916 42.0905 31.7381C42.0936 31.6868 42.0843 31.6356 42.0636 31.5886C42.0428 31.5416 42.0111 31.5002 41.9711 31.4678C41.8737 31.3966 41.7541 31.3618 41.6335 31.3695H41.2918ZM41.2918 30.2067V30.8864H41.5676C41.6218 30.8905 41.6762 30.884 41.7278 30.8671C41.7793 30.8503 41.8271 30.8234 41.8682 30.7881C41.9069 30.7557 41.9374 30.7148 41.9574 30.6686C41.9775 30.6224 41.9864 30.5722 41.9834 30.522C41.9834 30.3091 41.8311 30.2067 41.5265 30.2067H41.2918ZM40.6702 32.6061V29.7399H41.6788C41.9275 29.7234 42.1752 29.785 42.3869 29.916C42.4684 29.9708 42.5343 30.0455 42.5783 30.133C42.6223 30.2205 42.6428 30.3178 42.638 30.4155C42.6414 30.5663 42.5869 30.7127 42.4857 30.825C42.3846 30.943 42.2495 31.0273 42.0987 31.0666C42.2794 31.0828 42.4479 31.1643 42.5721 31.2958C42.688 31.4205 42.7513 31.5847 42.7492 31.7544C42.755 31.8726 42.7336 31.9904 42.6865 32.099C42.6394 32.2076 42.5679 32.3041 42.4775 32.3809C42.2658 32.5461 42.001 32.6291 41.7323 32.6143L40.6702 32.6061Z" fill="white"/>
<path d="M45.1979 32.5037C44.9502 32.6163 44.6795 32.6696 44.4074 32.6593C44.2203 32.6665 44.0338 32.6336 43.8605 32.563C43.6872 32.4924 43.5312 32.3856 43.4029 32.2499C43.1531 31.9635 43.0234 31.5927 43.0406 31.2139C43.0314 31.0092 43.063 30.8046 43.1336 30.612C43.2043 30.4195 43.3126 30.2428 43.4523 30.0921C43.5885 29.9495 43.7537 29.8374 43.9368 29.7632C44.12 29.6891 44.3169 29.6546 44.5145 29.6621C44.747 29.6545 44.9788 29.6907 45.1979 29.7686V30.3951C45.0085 30.2757 44.788 30.2144 44.5639 30.219C44.4468 30.2143 44.33 30.2345 44.2214 30.2783C44.1128 30.322 44.0148 30.3884 43.934 30.4728C43.8502 30.5729 43.7871 30.6884 43.7483 30.8128C43.7094 30.9371 43.6956 31.0679 43.7076 31.1976C43.6943 31.4407 43.7753 31.6796 43.934 31.865C44.0117 31.9472 44.1064 32.0118 44.2116 32.0542C44.3168 32.0966 44.4299 32.1158 44.5433 32.1106C44.7787 32.1137 45.0101 32.0498 45.2102 31.9264L45.1979 32.5037Z" fill="white"/>
<path d="M45.6964 29.728V32.6065H47.3555V32.0783H46.3222V31.419H47.2279V30.895H46.3222V30.2562H47.2937V29.728H45.6964Z" fill="white"/>
<path d="M48.4427 30.2231V31.1198H48.6855C49.019 31.1198 49.1837 30.9683 49.1837 30.6694C49.1837 30.3705 49.019 30.2231 48.6855 30.2231H48.4427ZM48.4427 31.6153V32.6061H47.8169V29.74H48.7926C49.4925 29.74 49.8424 30.043 49.8424 30.6571C49.847 30.7886 49.8225 30.9195 49.7705 31.0405C49.7186 31.1615 49.6405 31.2697 49.5419 31.3573C49.3183 31.5451 49.0314 31.6417 48.7391 31.6275L48.4427 31.6153Z" fill="white"/>
<path d="M51.4884 30.2357C51.3872 30.2324 51.2868 30.2543 51.1962 30.2993C51.1057 30.3443 51.0278 30.4111 50.9697 30.4936C50.8328 30.6918 50.7648 30.929 50.7762 31.1692C50.763 31.4096 50.8311 31.6474 50.9697 31.8448C51.0302 31.9214 51.1074 31.9834 51.1954 32.026C51.2835 32.0686 51.3802 32.0907 51.4781 32.0907C51.5761 32.0907 51.6727 32.0686 51.7608 32.026C51.8489 31.9834 51.9261 31.9214 51.9866 31.8448C52.1263 31.658 52.2001 31.4306 52.1965 31.1979C52.2109 30.9521 52.146 30.7082 52.0113 30.5018C51.9553 30.4216 51.88 30.3567 51.7923 30.313C51.7045 30.2694 51.6071 30.2484 51.509 30.252L51.4884 30.2357ZM51.4843 32.6719C51.3022 32.6778 51.1209 32.6443 50.9532 32.5736C50.7854 32.5029 50.6351 32.3967 50.5127 32.2624C50.2536 31.9694 50.1193 31.5876 50.1381 31.1979C50.1205 30.7964 50.2558 30.4031 50.5168 30.0964C50.6449 29.9593 50.8015 29.8516 50.9757 29.7809C51.1499 29.7102 51.3375 29.6781 51.5255 29.687C51.7064 29.6808 51.8865 29.7143 52.053 29.7851C52.2194 29.8559 52.3682 29.9621 52.4888 30.0964C52.7392 30.3922 52.8685 30.7707 52.8511 31.1569C52.8693 31.5572 52.7339 31.9494 52.4723 32.2542C52.3476 32.39 52.1946 32.497 52.0239 32.5677C51.8532 32.6385 51.669 32.6712 51.4843 32.6637" fill="white"/>
<path d="M55.3092 32.5037C55.0616 32.6163 54.7909 32.6696 54.5188 32.6593C54.3322 32.667 54.1462 32.6343 53.9735 32.5637C53.8008 32.493 53.6455 32.3859 53.5184 32.2499C53.2655 31.965 53.1341 31.5935 53.152 31.2139C53.1427 31.0092 53.1743 30.8046 53.245 30.612C53.3156 30.4195 53.424 30.2428 53.5637 30.0921C53.6999 29.9495 53.865 29.8374 54.0482 29.7632C54.2313 29.6891 54.4282 29.6546 54.6258 29.6621C54.8583 29.6545 55.0902 29.6907 55.3092 29.7686V30.3951C55.1199 30.2757 54.8994 30.2144 54.6752 30.219C54.5588 30.2149 54.4428 30.2354 54.335 30.2791C54.2271 30.3229 54.1298 30.3889 54.0495 30.4728C53.8825 30.6639 53.7969 30.9121 53.8107 31.1648C53.7974 31.4079 53.8784 31.6468 54.0371 31.8322C54.1139 31.9146 54.2078 31.9793 54.3124 32.0217C54.4169 32.0641 54.5295 32.0833 54.6423 32.0779C54.8777 32.0809 55.1091 32.017 55.3092 31.8936V32.5037Z" fill="white"/>
<path d="M57.7502 32.5037C57.5013 32.6168 57.2291 32.6701 56.9557 32.6593C56.7691 32.667 56.583 32.6343 56.4103 32.5636C56.2376 32.493 56.0824 32.3859 55.9553 32.2498C55.7035 31.9646 55.5735 31.593 55.593 31.2139C55.576 30.8006 55.724 30.3974 56.0047 30.092C56.1419 29.9498 56.3079 29.8379 56.4916 29.7638C56.6754 29.6897 56.8728 29.6551 57.0709 29.6621C57.3034 29.6545 57.5353 29.6906 57.7543 29.7686V30.395C57.565 30.2756 57.3445 30.2144 57.1203 30.219C57.0032 30.2143 56.8864 30.2345 56.7778 30.2783C56.6692 30.322 56.5712 30.3884 56.4904 30.4728C56.3235 30.6639 56.2379 30.9121 56.2517 31.1648C56.2384 31.4079 56.3194 31.6468 56.4781 31.8322C56.5556 31.9147 56.6503 31.9794 56.7555 32.0218C56.8607 32.0642 56.974 32.0834 57.0874 32.0779C57.3228 32.0809 57.5542 32.017 57.7543 31.8936L57.7502 32.5037Z" fill="white"/>
<path d="M60.7274 32.6061H60.1387V31.0216C60.1387 30.8414 60.1387 30.6858 60.1387 30.5589C60.1099 30.6121 60.0646 30.6899 59.9987 30.7964L58.8542 32.6061H58.2367V29.74H58.8254V31.3327C58.8357 31.469 58.8357 31.6059 58.8254 31.7422C58.8254 31.7422 58.8789 31.648 58.9695 31.5088L60.0687 29.7564H60.7356L60.7274 32.6061Z" fill="white"/>
<path d="M63.4275 28.7654C63.4196 28.8631 63.3922 28.9584 63.3469 29.0455C63.3017 29.1327 63.2395 29.21 63.164 29.2731C62.9986 29.3954 62.7979 29.4615 62.5918 29.4615C62.3856 29.4615 62.185 29.3954 62.0195 29.2731C61.9436 29.2115 61.8821 29.1342 61.8395 29.0465C61.7968 28.9588 61.7739 28.8628 61.7725 28.7654H62.213C62.2187 28.8629 62.2632 28.9543 62.3365 29.0192C62.4089 29.0837 62.5029 29.1188 62.6 29.1175C62.6486 29.1187 62.6969 29.1102 62.7421 29.0926C62.7873 29.0751 62.8286 29.0487 62.8635 29.0151C62.934 28.9502 62.9768 28.8608 62.9829 28.7654H63.4275ZM63.8186 32.606H63.2299V31.0255C63.2299 30.8413 63.2299 30.6857 63.2505 30.5588C63.2085 30.6406 63.1618 30.7199 63.1105 30.7962L61.9701 32.606H61.332V29.7399H61.9166V31.3326C61.9166 31.5292 61.9166 31.6656 61.9166 31.7421C61.9575 31.661 62.0043 31.583 62.0566 31.5087L63.1558 29.7562H63.8227L63.8186 32.606Z" fill="white"/>
<path d="M66.4251 32.5037C66.1762 32.6168 65.904 32.6701 65.6306 32.6593C65.444 32.6669 65.2579 32.6343 65.0852 32.5636C64.9125 32.4929 64.7573 32.3859 64.6302 32.2498C64.3784 31.9646 64.2485 31.5929 64.2679 31.2139C64.251 30.8006 64.3989 30.3973 64.6796 30.092C64.8167 29.9495 64.9826 29.8375 65.1664 29.7634C65.3502 29.6893 65.5477 29.6548 65.7459 29.6621C65.9783 29.6548 66.2101 29.6909 66.4293 29.7685V30.395C66.2399 30.2756 66.0194 30.2144 65.7953 30.2189C65.6781 30.2142 65.5614 30.2344 65.4527 30.2782C65.3441 30.322 65.2461 30.3883 65.1654 30.4728C64.9984 30.6639 64.9128 30.912 64.9266 31.1648C64.9133 31.4079 64.9943 31.6468 65.153 31.8322C65.2299 31.9143 65.3239 31.9788 65.4284 32.0213C65.5329 32.0637 65.6454 32.083 65.7582 32.0778C65.9949 32.0805 66.2275 32.0167 66.4293 31.8936L66.4251 32.5037Z" fill="white"/>
<path d="M69.2117 32.6061H68.4213L67.5979 31.3573C67.5688 31.3062 67.544 31.2528 67.5238 31.1976V32.6061H66.9104V29.74H67.5362V31.0994C67.5362 31.0625 67.5773 31.0093 67.6103 30.9397L68.376 29.74H69.1211L68.1537 31.1116L69.2117 32.6061Z" fill="white"/>
<path d="M72.0107 32.6061H71.422V31.0216C71.422 30.8414 71.422 30.6858 71.422 30.5589C71.3973 30.6121 71.3479 30.6899 71.2821 30.7964L70.1417 32.6061H69.5242V29.74H70.1088V31.3327C70.1088 31.5293 70.1088 31.6658 70.1088 31.7422C70.1088 31.7422 70.1623 31.648 70.2487 31.5088L71.3479 29.7564H72.0149L72.0107 32.6061Z" fill="white"/>
<path d="M74.7168 28.7654C74.7088 28.8635 74.6809 28.9591 74.635 29.0463C74.589 29.1336 74.5258 29.2107 74.4492 29.2731C74.2879 29.4002 74.0868 29.4669 73.8811 29.4614C73.6728 29.4671 73.469 29.4005 73.3047 29.2731C73.2296 29.2108 73.1687 29.1333 73.1261 29.0458C73.0835 28.9582 73.0602 28.8626 73.0577 28.7654H73.5023C73.5044 28.8134 73.516 28.8606 73.5365 28.9042C73.557 28.9477 73.5859 28.9869 73.6217 29.0192C73.6963 29.0827 73.7912 29.1175 73.8893 29.1175C73.9858 29.1168 74.0785 29.0804 74.1493 29.0152C74.2201 28.9501 74.2639 28.861 74.2722 28.7654H74.7168ZM75.1285 32.606H74.5192V31.0255C74.5096 30.8701 74.5096 30.7142 74.5192 30.5588C74.4903 30.612 74.4451 30.6939 74.3792 30.7962L73.2347 32.606H72.6172V29.7399H73.1935V31.3326C73.2038 31.4689 73.2038 31.6058 73.1935 31.7421C73.1935 31.7421 73.2471 31.6479 73.3376 31.5087L74.4286 29.7276H75.0955L75.1285 32.606Z" fill="white"/>
<path d="M78.0999 30.2354C77.9987 30.2322 77.8983 30.254 77.8077 30.2991C77.7171 30.3441 77.6393 30.4109 77.5812 30.4934C77.4426 30.6907 77.3744 30.9286 77.3877 31.169C77.3725 31.4095 77.4408 31.648 77.5812 31.8446C77.6412 31.9211 77.718 31.9831 77.8058 32.0257C77.8935 32.0683 77.9899 32.0904 78.0875 32.0904C78.1852 32.0904 78.2815 32.0683 78.3693 32.0257C78.457 31.9831 78.5339 31.9211 78.5939 31.8446C78.7316 31.6485 78.7984 31.4118 78.7833 31.1731C78.7989 30.9278 78.7355 30.6839 78.6021 30.477C78.5462 30.3968 78.4709 30.3319 78.3831 30.2882C78.2954 30.2446 78.198 30.2236 78.0999 30.2272V30.2354ZM78.0752 32.6471C77.8931 32.653 77.7118 32.6195 77.5441 32.5488C77.3763 32.4781 77.226 32.3719 77.1036 32.2376C76.8456 31.9488 76.7112 31.5713 76.729 31.1853C76.7114 30.7839 76.8466 30.3906 77.1077 30.0839C77.2354 29.9463 77.3919 29.8383 77.5662 29.7676C77.7405 29.6968 77.9283 29.665 78.1164 29.6745C78.2966 29.6689 78.4759 29.7027 78.6416 29.7735C78.8073 29.8442 78.9554 29.9502 79.0756 30.0839C79.3289 30.3782 79.4599 30.7574 79.442 31.1444C79.4602 31.5447 79.3248 31.9369 79.0632 32.2417C78.9383 32.3773 78.7853 32.4841 78.6146 32.5548C78.444 32.6255 78.2599 32.6584 78.0752 32.6512" fill="white"/>
<path d="M80.5128 31.3573V32.1312H80.8792C81.1673 32.1312 81.3156 32.0001 81.3156 31.7217C81.3156 31.4433 81.1756 31.345 80.9039 31.345L80.5128 31.3573ZM79.8911 32.6061V29.74H81.6696V30.2723H80.5128V30.8987H81.048C81.2946 30.8818 81.5385 30.9578 81.7314 31.1116C81.8139 31.1862 81.8786 31.2783 81.9207 31.381C81.9627 31.4838 81.981 31.5946 81.9743 31.7053C81.9815 31.8288 81.9626 31.9524 81.9186 32.0681C81.8746 32.1838 81.8066 32.289 81.719 32.3768C81.5153 32.5485 81.2527 32.6351 80.9862 32.6184L79.8911 32.6061Z" fill="white"/>
<path d="M83.0157 30.2231V31.1198H83.2586C83.592 31.1198 83.7608 30.9683 83.7608 30.6694C83.7608 30.3705 83.592 30.2231 83.2586 30.2231H83.0157ZM83.0157 31.6153V32.6061H82.394V29.74H83.3697C84.0655 29.74 84.4154 30.043 84.4154 30.6571C84.4209 30.7887 84.3968 30.9199 84.3448 31.041C84.2928 31.1622 84.2142 31.2702 84.1149 31.3573C83.886 31.5501 83.5908 31.647 83.2915 31.6275L83.0157 31.6153Z" fill="white"/>
<path d="M86.0664 31.4679L85.7741 30.5016C85.7471 30.4165 85.7305 30.3285 85.7247 30.2395C85.7168 30.3259 85.6988 30.4111 85.6712 30.4934L85.3706 31.4679H86.0664ZM87.0874 32.6061H86.4081L86.2105 31.9674H85.2266L85.0331 32.6061H84.3579L85.3665 29.74H86.1034L87.0874 32.6061Z" fill="white"/>
<path d="M87.3432 32.4995V31.9304C87.5617 32.0853 87.8241 32.1671 88.0924 32.1638C88.4424 32.1638 88.6153 32.0328 88.6153 31.7544C88.6153 31.4759 88.4259 31.3449 88.043 31.3449H87.689V30.8577H88.0142C88.3559 30.8577 88.5247 30.7348 88.5247 30.4851C88.5247 30.2353 88.3806 30.1411 88.0883 30.1411C87.8531 30.1504 87.6246 30.221 87.4255 30.3458V29.8463C87.6712 29.7312 87.9402 29.6738 88.2118 29.6784C88.462 29.6638 88.7099 29.733 88.9158 29.875C88.9966 29.937 89.0615 30.0173 89.1052 30.1091C89.1488 30.2009 89.17 30.3017 89.1669 30.4032C89.1709 30.5638 89.1201 30.7211 89.0228 30.8495C88.9207 30.9797 88.7743 31.0685 88.6111 31.0992C88.787 31.1169 88.9507 31.1968 89.0722 31.3244C89.1853 31.447 89.2459 31.6086 89.241 31.7748C89.247 31.8979 89.2236 32.0207 89.1729 32.1331C89.1221 32.2456 89.0453 32.3445 88.9487 32.4218C88.7062 32.584 88.4171 32.663 88.1254 32.6469C87.8516 32.6617 87.5785 32.6082 87.3308 32.4914" fill="white"/>
<path d="M90.933 30.2359C90.8318 30.2326 90.7313 30.2545 90.6408 30.2995C90.5502 30.3446 90.4724 30.4114 90.4142 30.4938C90.2773 30.692 90.2094 30.9293 90.2208 31.1694C90.2075 31.4098 90.2756 31.6477 90.4142 31.845C90.4747 31.9216 90.5519 31.9836 90.64 32.0262C90.7281 32.0688 90.8247 32.091 90.9227 32.091C91.0206 32.091 91.1173 32.0688 91.2054 32.0262C91.2934 31.9836 91.3706 31.9216 91.4311 31.845C91.5688 31.649 91.6356 31.4122 91.6205 31.1735C91.6349 30.9278 91.57 30.6839 91.4352 30.4775C91.3796 30.397 91.3043 30.3318 91.2165 30.2882C91.1286 30.2445 91.0311 30.2237 90.933 30.2277V30.2359ZM90.9083 32.6475C90.7261 32.6535 90.5449 32.62 90.3771 32.5493C90.2094 32.4785 90.0591 32.3724 89.9367 32.2381C89.6817 31.9478 89.549 31.5709 89.5662 31.1858C89.5475 30.7849 89.6812 30.3917 89.9408 30.0844C90.069 29.9475 90.2256 29.8399 90.3998 29.7692C90.574 29.6985 90.7615 29.6663 90.9494 29.6749C91.1297 29.6694 91.309 29.7032 91.4747 29.7739C91.6404 29.8447 91.7885 29.9506 91.9086 30.0844C92.1638 30.3776 92.2951 30.7576 92.275 31.1449C92.2932 31.5452 92.1578 31.9374 91.8963 32.2422C91.7719 32.3784 91.6189 32.4857 91.4482 32.5565C91.2774 32.6272 91.0931 32.6597 90.9083 32.6516" fill="white"/>
<path d="M93.366 31.3692V32.1267H93.7036C93.8262 32.1342 93.9473 32.0979 94.0453 32.0243C94.0852 31.9882 94.1166 31.9438 94.1372 31.8943C94.1579 31.8448 94.1672 31.7913 94.1647 31.7377C94.1678 31.6865 94.1586 31.6353 94.1378 31.5883C94.1171 31.5413 94.0854 31.4999 94.0453 31.4675C93.9476 31.3969 93.8283 31.3622 93.7077 31.3692H93.366ZM93.366 30.2064V30.8861H93.6419C93.7522 30.8921 93.8608 30.8571 93.9465 30.7878C93.9838 30.7544 94.013 30.7132 94.0323 30.6672C94.0515 30.6212 94.0602 30.5715 94.0577 30.5217C94.0577 30.3088 93.9054 30.2064 93.6007 30.2064H93.366ZM92.7444 32.6058V29.7396H93.753C94.0029 29.7252 94.2513 29.7866 94.4653 29.9157C94.5457 29.9712 94.6106 30.0462 94.6538 30.1336C94.697 30.221 94.7172 30.3179 94.7123 30.4152C94.7156 30.566 94.6612 30.7124 94.5599 30.8247C94.4596 30.9435 94.3242 31.028 94.173 31.0662C94.3534 31.0835 94.5215 31.1649 94.6464 31.2955C94.7641 31.419 94.8278 31.584 94.8234 31.7541C94.8293 31.8722 94.8078 31.9901 94.7607 32.0987C94.7136 32.2073 94.6421 32.3037 94.5517 32.3806C94.3401 32.5458 94.0752 32.6288 93.8066 32.6139L92.7444 32.6058Z" fill="white"/>
<path d="M96.6588 31.4679L96.3624 30.5016C96.3389 30.4159 96.3237 30.3281 96.3171 30.2395C96.3126 30.326 96.296 30.4115 96.2677 30.4934L95.9672 31.4679H96.6588ZM97.6798 32.6061H97.0005L96.8029 31.9674H95.8354L95.6378 32.6061H94.9626L95.9713 29.74H96.7123L97.6798 32.6061Z" fill="white"/>
<path d="M97.5234 29.728V30.2521H98.3098V32.6065H98.9355V30.2521H99.7218V29.728H97.5234Z" fill="white"/>
<path d="M100.093 29.728V32.6065H101.752V32.0783H100.718V31.419H101.624V30.895H100.718V30.2562H101.69V29.728H100.093Z" fill="white"/>
<path d="M104.538 32.6064H103.916V30.2685H103.361C103.307 30.9543 103.169 31.6308 102.949 32.283C102.896 32.3943 102.812 32.4881 102.707 32.5528C102.602 32.6175 102.48 32.6504 102.356 32.6474C102.241 32.6466 102.127 32.6273 102.019 32.5901V32.0742C102.081 32.0964 102.146 32.1088 102.212 32.111C102.263 32.1111 102.312 32.0937 102.352 32.0619C102.415 31.9785 102.461 31.884 102.488 31.7835C102.562 31.528 102.619 31.2681 102.661 31.0055C102.732 30.637 102.798 30.2112 102.858 29.728H104.542L104.538 32.6064Z" fill="white"/>
<path d="M105.769 31.2959V32.1148H106.049C106.366 32.1148 106.522 31.9797 106.522 31.7053C106.522 31.431 106.366 31.2959 106.061 31.2959H105.769ZM105.143 32.6061V29.74H105.769V30.7882H106.181C106.848 30.7882 107.181 31.0707 107.181 31.6357C107.188 31.7655 107.168 31.8954 107.121 32.0168C107.074 32.1382 107.002 32.2483 106.909 32.34C106.697 32.5171 106.424 32.6065 106.148 32.5897L105.143 32.6061Z" fill="white"/>
<path d="M109.347 29.728V30.8786H108.199V29.728H107.577V32.6065H108.199V31.4313H109.347V32.6065H109.973V29.728H109.347Z" fill="white"/>
<path d="M113.493 32.6061H112.875V29.74H113.493V32.6061ZM111.2 31.2959V32.1148H111.48C111.793 32.1148 111.949 31.9756 111.949 31.7053C111.949 31.4351 111.797 31.2959 111.492 31.2959H111.2ZM110.578 32.6061V29.74H111.2V30.7882H111.611C112.278 30.7882 112.616 31.0707 112.616 31.6357C112.624 31.7656 112.604 31.8956 112.557 32.0171C112.51 32.1385 112.437 32.2486 112.344 32.34C112.133 32.5182 111.859 32.6078 111.583 32.5897L110.578 32.6061Z" fill="white"/>
<path d="M116.198 28.7654C116.19 28.8635 116.162 28.9591 116.116 29.0463C116.07 29.1336 116.007 29.2107 115.931 29.2731C115.769 29.4002 115.568 29.4669 115.363 29.4614C115.154 29.4671 114.95 29.4005 114.786 29.2731C114.711 29.2108 114.65 29.1333 114.608 29.0458C114.565 28.9582 114.542 28.8626 114.539 28.7654H114.984C114.989 28.8629 115.034 28.9543 115.107 29.0192C115.179 29.0841 115.274 29.1192 115.371 29.1175C115.467 29.1168 115.56 29.0804 115.631 29.0152C115.702 28.9501 115.745 28.861 115.754 28.7654H116.198ZM116.589 32.606H116.009V31.0255C116.009 30.8413 116.009 30.6857 116.009 30.5588C115.98 30.612 115.935 30.6939 115.869 30.7962L114.724 32.606H114.099V29.7399H114.687V31.3326C114.698 31.4689 114.698 31.6058 114.687 31.7421C114.687 31.7421 114.741 31.6479 114.831 31.5087L115.931 29.7562H116.598L116.589 32.606Z" fill="white"/>
<path d="M118.388 29.728V32.6065H119.013V30.2931H120.158V32.6065H120.78V29.728H118.388Z" fill="white"/>
<path d="M122.007 30.2231V31.1198H122.25C122.583 31.1198 122.748 30.9683 122.748 30.6694C122.748 30.3705 122.583 30.2231 122.25 30.2231H122.007ZM122.007 31.6153V32.6061H121.385V29.74H122.361C123.057 29.74 123.407 30.043 123.407 30.6571C123.411 30.7886 123.387 30.9195 123.335 31.0405C123.283 31.1615 123.205 31.2697 123.106 31.3573C122.877 31.5501 122.582 31.647 122.283 31.6275L122.007 31.6153Z" fill="white"/>
<path d="M125.065 30.2355C124.964 30.2322 124.864 30.2541 124.773 30.2991C124.682 30.3442 124.605 30.4109 124.546 30.4934C124.41 30.6916 124.342 30.9288 124.353 31.169C124.34 31.4094 124.408 31.6472 124.546 31.8446C124.607 31.9212 124.684 31.9832 124.772 32.0258C124.86 32.0684 124.957 32.0905 125.055 32.0905C125.153 32.0905 125.25 32.0684 125.338 32.0258C125.426 31.9832 125.503 31.9212 125.563 31.8446C125.699 31.6477 125.766 31.4116 125.753 31.1731C125.767 30.9274 125.702 30.6835 125.567 30.477C125.512 30.3966 125.437 30.3314 125.349 30.2877C125.261 30.2441 125.163 30.2233 125.065 30.2273V30.2355ZM125.041 32.6471C124.858 32.6531 124.677 32.6195 124.509 32.5488C124.342 32.4781 124.191 32.3719 124.069 32.2377C123.814 31.9474 123.681 31.5705 123.698 31.1854C123.679 30.7836 123.814 30.3896 124.077 30.084C124.204 29.9469 124.36 29.8393 124.534 29.7685C124.707 29.6978 124.894 29.6657 125.082 29.6745C125.262 29.669 125.441 29.7028 125.607 29.7735C125.773 29.8442 125.921 29.9502 126.041 30.084C126.294 30.3783 126.425 30.7575 126.407 31.1444C126.428 31.545 126.292 31.938 126.029 32.2418C125.904 32.3775 125.751 32.4845 125.58 32.5553C125.409 32.626 125.225 32.6587 125.041 32.6512" fill="white"/>
<path d="M126.844 29.728V32.6065H128.503V32.0783H127.465V31.419H128.371V30.895H127.465V30.2562H128.441V29.728H126.844Z" fill="white"/>
<path d="M131.265 32.6061H130.479L129.655 31.3573C129.655 31.3327 129.618 31.2795 129.585 31.1976V32.6061H128.959V29.74H129.593V31.0994C129.614 31.0443 129.639 30.991 129.668 30.9397L130.433 29.74H131.178L130.211 31.1116L131.265 32.6061Z" fill="white"/>
<path d="M131.405 29.728V30.2521H132.191V32.6065H132.817V30.2521H133.607V29.728H131.405Z" fill="white"/>
<path d="M33.8105 17.5838C33.6238 17.3602 33.4336 17.147 33.233 16.9407C31.8344 15.4628 30.0731 14.3724 28.1224 13.7768C27.9253 13.9969 27.7213 14.2135 27.5069 14.4233L27.4308 14.4955C29.4374 15.0085 31.2541 16.0826 32.6659 17.5907C30.8936 19.4984 28.475 20.6877 25.8748 20.93C25.7711 20.8165 25.6673 20.6995 25.5601 20.5861C23.9885 18.9429 21.9475 17.8193 19.713 17.3671C22.6221 16.7223 25.2833 15.2587 27.3789 13.1509C30.0332 10.5035 31.6306 6.98756 31.8741 3.25676C31.8948 2.91286 31.9018 2.59991 31.9018 2.26976C31.556 2.26976 31.2413 2.26976 30.9128 2.30415C27.654 2.5491 24.5539 3.80237 22.0474 5.88821C19.5409 7.97404 17.7537 10.7878 16.9364 13.935C16.4527 11.9296 15.4502 10.0849 14.0283 8.58383C13.9211 8.47034 13.8105 8.36373 13.6826 8.26056C13.8902 5.60457 15.0253 3.10447 16.8914 1.19334C18.365 2.70846 19.3935 4.59594 19.8651 6.65109C20.0968 6.43099 20.3354 6.21777 20.5774 6.01143C20.0307 3.97861 18.9756 2.11646 17.5104 0.598392C17.3133 0.39205 17.1058 0.192586 16.8914 0C16.6805 0.192586 16.4765 0.39205 16.2759 0.598392C14.4404 2.50088 13.265 4.9376 12.9218 7.55212C10.8992 5.95249 8.38632 5.0907 5.80221 5.1104C5.52212 5.1104 5.23858 5.1104 4.95504 5.14135C4.93776 5.43367 4.92738 5.72599 4.92738 6.01831C4.90037 8.6764 5.72648 11.2738 7.28561 13.4329C4.71405 13.814 2.34821 15.0505 0.573995 16.9407C0.3769 17.147 0.186722 17.3602 0 17.5838C0.186722 17.8039 0.3769 18.0205 0.573995 18.2234C2.34821 20.1136 4.71405 21.3501 7.28561 21.7312C5.72477 23.891 4.89742 26.4896 4.92392 29.1492C4.92392 29.4381 4.92392 29.7339 4.95504 30.0228C5.23513 30.0434 5.51521 30.0571 5.79875 30.0571C8.38521 30.0707 10.8986 29.2043 12.9218 27.6017C13.2668 30.2262 14.4483 32.6718 16.2932 34.5795C16.4903 34.7858 16.6978 34.9853 16.9122 35.1779C17.1231 34.9853 17.3306 34.7858 17.5276 34.5795C19.376 32.6742 20.5581 30.2274 20.899 27.6017C22.9223 29.2043 25.4356 30.0707 28.0221 30.0571C28.3056 30.0571 28.5857 30.0571 28.8693 30.0262C28.8693 29.7304 28.8969 29.4381 28.8969 29.1458C28.927 26.4889 28.1045 23.8916 26.5491 21.7312C29.116 21.3442 31.4755 20.1041 33.2434 18.2131C33.444 18.0205 33.6341 17.8039 33.8105 17.5838ZM15.8644 17.1367H15.7469C13.2433 16.9909 10.8769 15.9503 9.08367 14.2066C11.5851 14.3156 13.9632 15.3181 15.7815 17.0301L15.8644 17.1367ZM15.8644 18.0274L15.7918 18.1168C13.9796 19.8393 11.6016 20.8508 9.0975 20.9643C10.8904 19.2201 13.2569 18.1795 15.7607 18.0343L15.8644 18.0274ZM16.4696 18.6602V18.7943C16.3426 21.3504 15.3507 23.7888 13.6549 25.7136C13.7424 23.1502 14.7004 20.6918 16.3727 18.7393L16.4696 18.6602ZM17.3305 18.6602L17.417 18.7393C19.0906 20.6914 20.0498 23.1498 20.1383 25.7136C18.4389 23.7883 17.4466 21.3465 17.3236 18.7874C17.334 18.7462 17.3375 18.7049 17.3409 18.6602H17.3305ZM17.9218 18.0102C20.4768 18.1308 22.8978 19.1824 24.7234 20.9643C22.2187 20.8562 19.8382 19.8495 18.0221 18.1306L17.9218 18.0102ZM16.4868 16.5177L16.3866 16.4283C14.7122 14.4753 13.7529 12.0155 13.6653 9.45046C15.3987 11.412 16.3989 13.908 16.4972 16.5177H16.4868ZM5.76763 5.98392C8.37199 5.95736 10.8929 6.8965 12.8389 8.61822C12.8389 8.77297 12.8389 8.93117 12.8389 9.08936C12.8381 11.1031 13.342 13.0853 14.305 14.8566C12.6317 13.8637 10.7209 13.3364 8.77247 13.3297C8.62032 13.3297 8.46818 13.3297 8.31949 13.3297C6.63833 11.2492 5.73519 8.65289 5.76417 5.98392H5.76763ZM1.14453 17.5838C2.91638 15.6729 5.33681 14.4821 7.93913 14.241C8.03941 14.358 8.14315 14.4715 8.25034 14.5849C9.60737 16.0032 11.3184 17.038 13.2088 17.5838C11.3178 18.1282 9.60642 19.1632 8.25034 20.5826C8.14315 20.6927 8.03941 20.8096 7.93568 20.9265C5.33495 20.6833 2.91632 19.4928 1.14453 17.5838ZM5.76417 29.1836C5.72512 26.5129 6.61978 23.9116 8.29529 21.8241C8.44743 21.8241 8.59612 21.8241 8.74826 21.8241C10.697 21.8194 12.6083 21.2919 14.2808 20.2972C13.3165 22.0682 12.8115 24.0504 12.8112 26.0644C12.8112 26.2226 12.8112 26.3808 12.8112 26.539C10.8721 28.2574 8.36128 29.1997 5.76417 29.1836ZM16.9122 33.9983C15.0477 32.0857 13.9118 29.5866 13.6998 26.9311C13.8105 26.8245 13.9211 26.7178 14.0456 26.6078C15.4276 25.1567 16.4194 23.3825 16.9294 21.4492C17.4345 23.3837 18.4257 25.1588 19.8098 26.6078C19.917 26.7178 20.0276 26.8245 20.1556 26.9311C19.9347 29.5875 18.7875 32.0837 16.9122 33.988V33.9983ZM28.0567 29.1836C25.4526 29.2085 22.9323 28.2696 20.9855 26.5493C20.9855 26.3911 20.9855 26.2329 20.9855 26.0747C20.9852 24.0607 20.4801 22.0785 19.5159 20.3075C21.1889 21.3008 23.0999 21.8282 25.0484 21.8344C25.2005 21.8344 25.3492 21.8344 25.5014 21.8344C27.1838 23.9156 28.087 26.5134 28.0567 29.1836Z" fill="white"/>
</svg>
