<svg width="1404" height="86" viewBox="0 0 1404 86" fill="none" xmlns="http://www.w3.org/2000/svg">
<path d="M11.7021 70.9414C9.34902 70.9414 7.23124 70.9414 5.34876 70.9414C3.46629 70.9414 1.68337 70.9414 0 70.9414C0 67.0301 0 63.2655 0 59.6475C0 56.0296 0 52.0857 0 47.8158V24.4946C0 21.6263 0 18.921 0 16.3786C0 13.8037 0 11.2939 0 8.84935C0 6.37218 0 3.82983 0 1.22228H23.7572V7.4315C21.8385 7.4315 19.7841 7.4315 17.5939 7.4315C15.4037 7.4315 12.8244 7.4315 9.85584 7.4315H1.62906L3.774 2.15122C3.774 6.06254 3.774 9.84347 3.774 13.494C3.774 17.112 3.774 21.1048 3.774 25.4724V46.7891C3.774 50.1137 3.774 53.2427 3.774 56.1762C3.774 59.0771 3.774 62.0432 3.774 65.0745H11.1591C13.4398 65.0745 15.3947 64.6345 17.0237 63.7544C18.6528 62.8744 19.9017 61.3261 20.7706 59.1097C21.6394 56.8607 22.0738 53.7317 22.0738 49.7226C22.0738 46.4957 21.748 43.986 21.0964 42.1933C20.4629 40.368 19.6574 39.0479 18.6799 38.2331C17.7206 37.3856 16.7251 36.8641 15.6933 36.6686C14.6616 36.473 13.7475 36.3752 12.9511 36.3752H3.25813V30.606C4.39847 30.606 5.80128 30.606 7.46654 30.606C9.14991 30.606 11.0595 30.606 13.1954 30.606C16.0915 30.606 18.4808 31.3068 20.3633 32.7084C22.2458 34.0773 23.6486 36.1959 24.5717 39.0642C25.4949 41.9325 25.9564 45.5994 25.9564 50.0648C25.9564 54.1065 25.522 57.7082 24.6532 60.8698C23.8024 63.9989 22.3363 66.4597 20.2547 68.2524C18.1912 70.0451 15.3404 70.9414 11.7021 70.9414Z" fill="#ECECEC"/>
<path d="M29.9294 70.9414C30.7077 67.1605 31.5222 63.2166 32.373 59.1097C33.2237 54.9702 34.0382 51.0263 34.8166 47.278L39.7309 23.3701C40.6179 19.1002 41.4143 15.2215 42.1202 11.7339C42.8442 8.24635 43.5683 4.74247 44.2923 1.22228H49.3967C50.1207 4.80765 50.8357 8.32784 51.5416 11.7828C52.2476 15.2378 53.035 19.1165 53.9038 23.419L58.791 47.4247C59.5693 51.2708 60.3748 55.231 61.2074 59.3053C62.0401 63.347 62.8274 67.2257 63.5696 70.9414H59.6055C58.7729 66.7694 57.9131 62.4832 57.0262 58.083C56.1573 53.6502 55.3337 49.4618 54.5554 45.5179L47.0346 7.67595H46.6001L39.025 45.1757C38.2105 49.25 37.3507 53.5198 36.4456 57.9852C35.5587 62.418 34.6899 66.7368 33.8391 70.9414H29.9294ZM36.5271 52.6072L36.7986 47.0335H57.0533L57.2705 52.6072H36.5271Z" fill="#ECECEC"/>
<path d="M97.1347 69.9147C97.1347 66.0034 97.1347 62.2388 97.1347 58.6208C97.1347 55.0028 97.1347 51.0589 97.1347 46.7891V25.4724C97.1347 21.1048 97.1347 17.112 97.1347 13.494C97.1347 9.84347 97.1347 6.06254 97.1347 2.15122L98.818 7.23593H78.1289L80.1109 2.73792C79.9299 7.23593 79.758 11.7828 79.5951 16.3786C79.4322 20.9418 79.2692 25.505 79.1063 30.0682C78.8891 36.0656 78.5362 41.2644 78.0474 45.6646C77.5768 50.0648 76.9342 53.8946 76.1197 57.1541C75.3233 60.4135 74.3368 63.3633 73.1602 66.0034L69.4134 65.2211C70.5718 62.744 71.5583 59.9246 72.3729 56.7629C73.2055 53.6013 73.8933 49.7389 74.4363 45.1757C74.9794 40.6125 75.3685 35.0388 75.6038 28.4548C75.7849 23.6634 75.9568 18.9862 76.1197 14.423C76.3007 9.82718 76.4636 5.42695 76.6084 1.22228H100.936C100.936 5.1336 100.936 8.91454 100.936 12.5651C100.936 16.1831 100.936 20.1596 100.936 24.4946V46.7891C100.936 51.0589 100.936 55.0028 100.936 58.6208C100.936 62.2388 100.936 66.0034 100.936 69.9147H97.1347ZM66.0467 86C66.0467 84.3051 66.0467 82.5939 66.0467 80.8664C66.0467 79.1389 66.0467 77.3951 66.0467 75.635C66.0467 73.9075 66.0467 72.1311 66.0467 70.3059C66.0467 68.4806 66.0467 66.6879 66.0467 64.9278C68.3274 64.9278 70.6262 64.9278 72.943 64.9278C75.2599 64.9278 77.5135 64.9278 79.7037 64.9278H92.2746C94.4829 64.9278 96.7455 64.9278 99.0624 64.9278C101.379 64.9278 103.669 64.9278 105.932 64.9278C105.932 66.6879 105.932 68.4806 105.932 70.3059C105.932 72.1311 105.932 73.9075 105.932 75.635C105.932 77.3951 105.932 79.1389 105.932 80.8664C105.932 82.5939 105.932 84.3051 105.932 86H102.619L102.375 69.8169L103.434 70.9414H68.5446L69.6035 69.8169L69.3591 86H66.0467Z" fill="#ECECEC"/>
<path d="M121.394 44.7356V39.162C122.987 39.162 124.544 39.162 126.064 39.162C127.603 39.162 129.087 39.162 130.517 39.162C131.965 39.162 133.341 39.162 134.644 39.162H143.794C145.097 39.162 146.464 39.162 147.894 39.162C149.324 39.162 150.799 39.162 152.319 39.162C153.858 39.162 155.423 39.162 157.016 39.162V44.7356C155.423 44.7356 153.858 44.7356 152.319 44.7356C150.799 44.7356 149.324 44.7356 147.894 44.7356C146.464 44.7356 145.097 44.7356 143.794 44.7356H134.644C133.341 44.7356 131.965 44.7356 130.517 44.7356C129.087 44.7356 127.603 44.7356 126.064 44.7356C124.544 44.7356 122.987 44.7356 121.394 44.7356Z" fill="#ECECEC"/>
<path d="M202.443 70.9414C202.443 67.0301 202.443 63.2655 202.443 59.6475C202.443 56.0296 202.443 52.0857 202.443 47.8158V24.4946C202.443 20.1596 202.443 16.1831 202.443 12.5651C202.443 8.91454 202.443 5.1336 202.443 1.22228H206.272C206.272 5.1336 206.272 8.91454 206.272 12.5651C206.272 16.1831 206.272 20.1596 206.272 24.4946V47.8158C206.272 52.0857 206.272 56.0296 206.272 59.6475C206.272 63.2655 206.272 67.0301 206.272 70.9414H202.443ZM176.27 70.9414C176.27 67.0301 176.27 63.2655 176.27 59.6475C176.27 56.0296 176.27 52.0857 176.27 47.8158V24.4946C176.27 20.1596 176.27 16.1831 176.27 12.5651C176.27 8.91454 176.27 5.1336 176.27 1.22228H180.098C180.098 5.1336 180.098 8.91454 180.098 12.5651C180.098 16.1831 180.098 20.1596 180.098 24.4946V47.8158C180.098 52.0857 180.098 56.0296 180.098 59.6475C180.098 63.2655 180.098 67.0301 180.098 70.9414H176.27ZM178.578 38.6242V32.5617H204.127V38.6242H178.578Z" fill="#ECECEC"/>
<path d="M216.943 70.9414C216.943 67.0301 216.943 63.2655 216.943 59.6475C216.943 56.0296 216.943 52.0857 216.943 47.8158V24.4946C216.943 20.1596 216.943 16.1831 216.943 12.5651C216.943 8.91454 216.943 5.1336 216.943 1.22228H240.538V7.23593C238.691 7.23593 236.709 7.23593 234.592 7.23593C232.474 7.23593 229.985 7.23593 227.125 7.23593H218.627L220.69 2.15122C220.69 6.06254 220.69 9.84347 220.69 13.494C220.69 17.1446 220.69 21.1211 220.69 25.4235V46.838C220.69 51.0752 220.69 55.0028 220.69 58.6208C220.69 62.2388 220.69 66.0034 220.69 69.9147L218.79 64.9278H227.451C229.894 64.9278 232.193 64.9278 234.347 64.9278C236.501 64.9278 238.574 64.9278 240.565 64.9278V70.9414H216.943ZM219.876 38.4775V32.6595H227.532C230.066 32.6595 232.248 32.6595 234.076 32.6595C235.922 32.6595 237.696 32.6595 239.397 32.6595V38.4775C237.605 38.4775 235.786 38.4775 233.94 38.4775C232.112 38.4775 229.958 38.4775 227.478 38.4775H219.876Z" fill="#ECECEC"/>
<path d="M255.942 70.9414C256.775 69.1488 257.716 67.1116 258.766 64.83C259.816 62.5484 260.893 60.2179 261.997 57.8385C263.101 55.4266 264.133 53.1613 265.092 51.0426L271.445 37.3042L272.206 40.4332C269.708 40.4332 267.617 39.8954 265.934 38.8198C264.25 37.7116 262.902 36.2122 261.888 34.3218C260.893 32.3987 260.169 30.1986 259.716 27.7214C259.282 25.2443 259.064 22.6041 259.064 19.801C259.064 15.3682 259.535 11.7991 260.476 9.0938C261.418 6.35588 262.838 4.36763 264.739 3.12905C266.64 1.85787 269.038 1.22228 271.934 1.22228C273.726 1.22228 275.409 1.22228 276.984 1.22228C278.559 1.22228 280.007 1.22228 281.328 1.22228C282.65 1.22228 283.817 1.22228 284.831 1.22228C284.831 5.1336 284.831 8.91454 284.831 12.5651C284.831 16.1831 284.831 20.1596 284.831 24.4946V47.8158C284.831 52.0857 284.831 56.0296 284.831 59.6475C284.831 63.2655 284.831 67.0301 284.831 70.9414H281.057C281.057 67.0301 281.057 63.2655 281.057 59.6475C281.057 56.0296 281.057 52.0857 281.057 47.8158V25.4724C281.057 21.1048 281.057 17.112 281.057 13.494C281.057 9.84347 281.057 6.06254 281.057 2.15122L283.256 7.08925H272.097C271.12 7.08925 270.097 7.20334 269.029 7.4315C267.979 7.62706 266.993 8.13227 266.069 8.94713C265.164 9.76199 264.422 11.0658 263.843 12.8584C263.282 14.6511 263.001 17.1446 263.001 20.3388C263.001 25.8799 263.879 29.8401 265.635 32.2194C267.409 34.5988 270.16 35.7885 273.889 35.7885H281.708V41.6066H272.64L275.274 38.3798L268.133 54.1228C266.92 56.7629 265.671 59.4846 264.386 62.2877C263.119 65.0908 261.798 67.9754 260.422 70.9414H255.942Z" fill="#ECECEC"/>
<path d="M307.181 70.9414C305.407 70.9414 303.769 70.9414 302.266 70.9414C300.764 70.9414 299.443 70.9414 298.302 70.9414C297.162 70.9414 296.239 70.9414 295.533 70.9414C295.533 67.0301 295.533 63.2655 295.533 59.6475C295.533 56.0296 295.533 52.0857 295.533 47.8158V24.4946C295.533 20.1596 295.533 16.1831 295.533 12.5651C295.533 8.91454 295.533 5.1336 295.533 1.22228C297.542 1.22228 299.723 1.22228 302.076 1.22228C304.448 1.22228 306.891 1.22228 309.407 1.22228C311.543 1.22228 313.371 1.59712 314.892 2.34679C316.43 3.09646 317.688 4.18836 318.666 5.62251C319.661 7.05666 320.385 8.80046 320.838 10.8539C321.308 12.8747 321.544 15.1726 321.544 17.7476C321.544 20.7137 321.254 23.3049 320.675 25.5213C320.096 27.7377 319.29 29.5956 318.258 31.0949C317.245 32.5617 316.104 33.6699 314.837 34.4196V35.2018C316.104 35.6581 317.326 36.5056 318.503 37.7442C319.697 38.9502 320.675 40.694 321.435 42.9756C322.213 45.2572 322.603 48.2232 322.603 51.8738C322.603 54.5465 322.349 57.04 321.842 59.3542C321.336 61.6684 320.494 63.7055 319.317 65.4656C318.141 67.1931 316.557 68.5458 314.566 69.5236C312.593 70.4688 310.131 70.9414 307.181 70.9414ZM299.28 65.0745H307.452C310.167 65.0745 312.349 64.5204 313.996 63.4122C315.643 62.304 316.828 60.7394 317.553 58.7186C318.295 56.6977 318.666 54.2695 318.666 51.4338C318.666 46.7402 317.752 43.3993 315.923 41.411C314.095 39.3902 311.552 38.3798 308.294 38.3798H298.438V32.7572H308.375C310.566 32.7572 312.34 32.1217 313.697 30.8505C315.055 29.5467 316.041 27.8518 316.657 25.7658C317.29 23.6797 317.607 21.4307 317.607 19.0188C317.607 14.8141 316.892 11.7828 315.462 9.92496C314.032 8.03449 311.914 7.08925 309.109 7.08925H299.28C299.28 10.0879 299.28 13.0703 299.28 16.0364C299.28 18.9699 299.28 22.1641 299.28 25.6191V46.7402C299.28 50.1626 299.28 53.3405 299.28 56.274C299.28 59.1749 299.28 62.1084 299.28 65.0745Z" fill="#ECECEC"/>
<path d="M328.826 71.7726C328.428 71.7726 328.038 71.74 327.658 71.6748C327.296 71.6096 326.952 71.5281 326.627 71.4304C326.319 71.3652 326.038 71.2837 325.785 71.1859L326.083 65.0256C326.464 65.1886 326.817 65.3026 327.142 65.3678C327.486 65.433 327.803 65.4656 328.093 65.4656C329.758 65.4656 331.025 64.2596 331.894 61.8476C332.781 59.4031 333.423 55.6221 333.822 50.5048C334.22 45.3875 334.555 38.8361 334.826 30.8505C334.989 25.9287 335.152 21.007 335.315 16.0853C335.478 11.1635 335.641 6.20921 335.804 1.22228H360.402C360.402 5.1336 360.402 8.91454 360.402 12.5651C360.402 16.1831 360.402 20.1596 360.402 24.4946V47.8158C360.402 52.0857 360.402 56.0296 360.402 59.6475C360.402 63.2655 360.402 67.0301 360.402 70.9414H356.574C356.574 67.0301 356.574 63.2655 356.574 59.6475C356.574 56.0296 356.574 52.0857 356.574 47.8158V25.4724C356.574 21.1048 356.574 17.112 356.574 13.494C356.574 9.84347 356.574 6.06254 356.574 2.15122L358.746 7.23593H337.188L339.388 2.64014C339.207 7.62706 339.026 12.6303 338.845 17.6498C338.682 22.6693 338.501 27.8844 338.301 33.2951C338.066 39.8139 337.795 45.5016 337.487 50.3582C337.179 55.1821 336.709 59.1749 336.075 62.3366C335.46 65.4982 334.573 67.8613 333.414 69.4258C332.274 70.9903 330.744 71.7726 328.826 71.7726Z" fill="#ECECEC"/>
<path d="M367.516 70.9414C368.349 69.1488 369.29 67.1116 370.34 64.83C371.39 62.5484 372.467 60.2179 373.571 57.8385C374.675 55.4266 375.707 53.1613 376.666 51.0426L383.019 37.3042L383.78 40.4332C381.282 40.4332 379.191 39.8954 377.508 38.8198C375.824 37.7116 374.476 36.2122 373.462 34.3218C372.467 32.3987 371.743 30.1986 371.29 27.7214C370.856 25.2443 370.638 22.6041 370.638 19.801C370.638 15.3682 371.109 11.7991 372.05 9.0938C372.991 6.35588 374.412 4.36763 376.313 3.12905C378.214 1.85787 380.612 1.22228 383.508 1.22228C385.3 1.22228 386.983 1.22228 388.558 1.22228C390.133 1.22228 391.581 1.22228 392.902 1.22228C394.224 1.22228 395.391 1.22228 396.405 1.22228C396.405 5.1336 396.405 8.91454 396.405 12.5651C396.405 16.1831 396.405 20.1596 396.405 24.4946V47.8158C396.405 52.0857 396.405 56.0296 396.405 59.6475C396.405 63.2655 396.405 67.0301 396.405 70.9414H392.631C392.631 67.0301 392.631 63.2655 392.631 59.6475C392.631 56.0296 392.631 52.0857 392.631 47.8158V25.4724C392.631 21.1048 392.631 17.112 392.631 13.494C392.631 9.84347 392.631 6.06254 392.631 2.15122L394.83 7.08925H383.671C382.693 7.08925 381.671 7.20334 380.603 7.4315C379.553 7.62706 378.566 8.13227 377.643 8.94713C376.738 9.76199 375.996 11.0658 375.417 12.8584C374.856 14.6511 374.575 17.1446 374.575 20.3388C374.575 25.8799 375.453 29.8401 377.209 32.2194C378.983 34.5988 381.734 35.7885 385.463 35.7885H393.282V41.6066H384.214L386.848 38.3798L379.707 54.1228C378.494 56.7629 377.245 59.4846 375.96 62.2877C374.693 65.0908 373.372 67.9754 371.996 70.9414H367.516Z" fill="#ECECEC"/>
<path d="M407.107 70.9414C407.107 67.0301 407.107 63.2655 407.107 59.6475C407.107 56.0296 407.107 52.0857 407.107 47.8158V24.4946C407.107 20.1596 407.107 16.1831 407.107 12.5651C407.107 8.91454 407.107 5.1336 407.107 1.22228H430.701V7.23593C428.855 7.23593 426.873 7.23593 424.755 7.23593C422.637 7.23593 420.149 7.23593 417.289 7.23593H408.79L410.854 2.15122C410.854 6.06254 410.854 9.84347 410.854 13.494C410.854 17.1446 410.854 21.1211 410.854 25.4235V46.838C410.854 51.0752 410.854 55.0028 410.854 58.6208C410.854 62.2388 410.854 66.0034 410.854 69.9147L408.953 64.9278H417.614C420.058 64.9278 422.357 64.9278 424.511 64.9278C426.665 64.9278 428.737 64.9278 430.728 64.9278V70.9414H407.107ZM410.039 38.4775V32.6595H417.696C420.23 32.6595 422.411 32.6595 424.239 32.6595C426.086 32.6595 427.859 32.6595 429.561 32.6595V38.4775C427.769 38.4775 425.95 38.4775 424.104 38.4775C422.275 38.4775 420.121 38.4775 417.642 38.4775H410.039Z" fill="#ECECEC"/>
<path d="M449.423 70.9414C449.423 67.0301 449.423 63.2655 449.423 59.6475C449.423 56.0296 449.423 52.0857 449.423 47.8158V25.4724C449.423 21.1048 449.423 17.112 449.423 13.494C449.423 9.84347 449.423 6.06254 449.423 2.15122L450.971 7.4315H446.518C444.292 7.4315 442.319 7.4315 440.599 7.4315C438.898 7.4315 437.269 7.4315 435.712 7.4315V1.22228H466.908V7.4315C465.37 7.4315 463.741 7.4315 462.021 7.4315C460.32 7.4315 458.347 7.4315 456.102 7.4315H451.65L453.224 2.15122C453.224 6.06254 453.224 9.84347 453.224 13.494C453.224 17.112 453.224 21.1048 453.224 25.4724V47.8158C453.224 52.0857 453.224 56.0296 453.224 59.6475C453.224 63.2655 453.224 67.0301 453.224 70.9414H449.423Z" fill="#ECECEC"/>
<path d="M489.415 71.9682C486.374 71.9682 483.632 71.0555 481.188 69.2302C478.763 67.405 476.699 64.8789 474.998 61.6521C473.296 58.3926 471.993 54.5791 471.088 50.2115C470.183 45.8113 469.73 41.0525 469.73 35.9352C469.73 28.8948 470.536 22.6693 472.147 17.2587C473.758 11.848 475.984 7.62706 478.826 4.59579C481.686 1.53193 484.971 0 488.682 0C489.967 0 491.216 0.162971 492.429 0.488914C493.642 0.814856 494.782 1.27118 495.85 1.85787C496.936 2.44457 497.931 3.06386 498.836 3.71575C499.741 4.36763 500.52 5.01952 501.171 5.67141L500.791 12.4184C499.398 10.9517 498.031 9.76198 496.691 8.84935C495.352 7.93671 494.031 7.26852 492.727 6.8448C491.442 6.42107 490.175 6.20921 488.926 6.20921C485.958 6.20921 483.324 7.43149 481.025 9.87607C478.745 12.288 476.953 15.7267 475.649 20.1922C474.346 24.625 473.695 29.889 473.695 35.9841C473.695 40.091 474.029 43.9534 474.699 47.5714C475.369 51.1567 476.373 54.3184 477.713 57.0563C479.07 59.7942 480.745 61.9454 482.736 63.51C484.745 65.0419 487.062 65.8078 489.687 65.8078C490.628 65.8078 491.56 65.7101 492.483 65.5145C493.424 65.2863 494.356 64.9604 495.28 64.5367C496.203 64.0804 497.108 63.4774 497.995 62.7277C498.882 61.978 499.732 61.0817 500.547 60.0387L500.927 66.7368C500.167 67.6168 499.325 68.3991 498.402 69.0836C497.497 69.7355 496.547 70.2733 495.551 70.697C494.574 71.1207 493.56 71.4304 492.51 71.6259C491.478 71.8541 490.447 71.9682 489.415 71.9682Z" fill="#ECECEC"/>
<path d="M505.817 70.9414C506.649 69.1488 507.591 67.1116 508.641 64.83C509.69 62.5484 510.767 60.2179 511.871 57.8385C512.976 55.4266 514.007 53.1613 514.967 51.0426L521.32 37.3042L522.08 40.4332C519.582 40.4332 517.492 39.8954 515.808 38.8198C514.125 37.7116 512.777 36.2122 511.763 34.3218C510.767 32.3987 510.043 30.1986 509.591 27.7214C509.156 25.2443 508.939 22.6041 508.939 19.801C508.939 15.3682 509.41 11.7991 510.351 9.0938C511.292 6.35588 512.713 4.36763 514.614 3.12905C516.514 1.85787 518.913 1.22228 521.809 1.22228C523.601 1.22228 525.284 1.22228 526.859 1.22228C528.434 1.22228 529.882 1.22228 531.203 1.22228C532.524 1.22228 533.692 1.22228 534.706 1.22228C534.706 5.1336 534.706 8.91454 534.706 12.5651C534.706 16.1831 534.706 20.1596 534.706 24.4946V47.8158C534.706 52.0857 534.706 56.0296 534.706 59.6475C534.706 63.2655 534.706 67.0301 534.706 70.9414H530.932C530.932 67.0301 530.932 63.2655 530.932 59.6475C530.932 56.0296 530.932 52.0857 530.932 47.8158V25.4724C530.932 21.1048 530.932 17.112 530.932 13.494C530.932 9.84347 530.932 6.06254 530.932 2.15122L533.131 7.08925H521.972C520.994 7.08925 519.972 7.20334 518.904 7.4315C517.854 7.62706 516.867 8.13227 515.944 8.94713C515.039 9.76199 514.297 11.0658 513.718 12.8584C513.157 14.6511 512.876 17.1446 512.876 20.3388C512.876 25.8799 513.754 29.8401 515.51 32.2194C517.284 34.5988 520.035 35.7885 523.764 35.7885H531.583V41.6066H522.515L525.148 38.3798L518.008 54.1228C516.795 56.7629 515.546 59.4846 514.261 62.2877C512.994 65.0908 511.672 67.9754 510.297 70.9414H505.817Z" fill="#ECECEC"/>
<path d="M554.254 71.7726C553.856 71.7726 553.466 71.74 553.086 71.6748C552.724 71.6096 552.38 71.5281 552.055 71.4304C551.747 71.3652 551.466 71.2837 551.213 71.1859L551.512 65.0256C551.892 65.1886 552.245 65.3026 552.57 65.3678C552.914 65.433 553.231 65.4656 553.521 65.4656C555.186 65.4656 556.453 64.2596 557.322 61.8476C558.209 59.4031 558.851 55.6221 559.25 50.5048C559.648 45.3875 559.983 38.8361 560.254 30.8505C560.417 25.9287 560.58 21.007 560.743 16.0853C560.906 11.1635 561.069 6.20921 561.232 1.22228H585.831C585.831 5.1336 585.831 8.91454 585.831 12.5651C585.831 16.1831 585.831 20.1596 585.831 24.4946V47.8158C585.831 52.0857 585.831 56.0296 585.831 59.6475C585.831 63.2655 585.831 67.0301 585.831 70.9414H582.002C582.002 67.0301 582.002 63.2655 582.002 59.6475C582.002 56.0296 582.002 52.0857 582.002 47.8158V25.4724C582.002 21.1048 582.002 17.112 582.002 13.494C582.002 9.84347 582.002 6.06254 582.002 2.15122L584.174 7.23593H562.616L564.816 2.64014C564.635 7.62706 564.454 12.6303 564.273 17.6498C564.11 22.6693 563.929 27.8844 563.73 33.2951C563.494 39.8139 563.223 45.5016 562.915 50.3582C562.607 55.1821 562.137 59.1749 561.503 62.3366C560.888 65.4982 560.001 67.8613 558.842 69.4258C557.702 70.9903 556.173 71.7726 554.254 71.7726Z" fill="#ECECEC"/>
<path d="M596.528 70.9414C596.528 67.0301 596.528 63.2655 596.528 59.6475C596.528 56.0296 596.528 52.0857 596.528 47.8158V24.4946C596.528 20.1596 596.528 16.1831 596.528 12.5651C596.528 8.91454 596.528 5.1336 596.528 1.22228H620.122V7.23593C618.276 7.23593 616.294 7.23593 614.176 7.23593C612.059 7.23593 609.57 7.23593 606.71 7.23593H598.211L600.275 2.15122C600.275 6.06254 600.275 9.84347 600.275 13.494C600.275 17.1446 600.275 21.1211 600.275 25.4235V46.838C600.275 51.0752 600.275 55.0028 600.275 58.6208C600.275 62.2388 600.275 66.0034 600.275 69.9147L598.374 64.9278H607.036C609.479 64.9278 611.778 64.9278 613.932 64.9278C616.086 64.9278 618.158 64.9278 620.15 64.9278V70.9414H596.528ZM599.46 38.4775V32.6595H607.117C609.651 32.6595 611.832 32.6595 613.66 32.6595C615.507 32.6595 617.281 32.6595 618.982 32.6595V38.4775C617.19 38.4775 615.371 38.4775 613.525 38.4775C611.697 38.4775 609.542 38.4775 607.063 38.4775H599.46Z" fill="#ECECEC"/>
<path d="M652.691 70.9414C650.827 67.4865 649.08 64.2596 647.451 61.2609C645.822 58.2623 644.229 55.3288 642.673 52.4605L634.717 37.7931H632.002V32.0239H634.717L641.586 19.7032C643.198 16.8023 644.79 13.9341 646.365 11.0984C647.94 8.26265 649.768 4.97063 651.85 1.22228H656.655C654.574 4.93803 652.547 8.556 650.574 12.0762C648.601 15.5964 646.637 19.1165 644.682 22.6367L637.242 35.9352L637.188 32.9528L645.469 48.3536C646.754 50.733 648.13 53.2916 649.596 56.0296C651.062 58.7675 652.492 61.4402 653.886 64.0478C655.298 66.6553 656.538 68.9532 657.606 70.9414H652.691ZM628.717 70.9414C628.717 67.0301 628.717 63.2655 628.717 59.6475C628.717 56.0296 628.717 52.0857 628.717 47.8158V24.4946C628.717 20.1596 628.717 16.1831 628.717 12.5651C628.717 8.91454 628.717 5.1336 628.717 1.22228H632.518C632.518 5.1336 632.518 8.91454 632.518 12.5651C632.518 16.1831 632.518 20.1596 632.518 24.4946V47.8158C632.518 52.0857 632.518 56.0296 632.518 59.6475C632.518 63.2655 632.518 67.0301 632.518 70.9414H628.717Z" fill="#ECECEC"/>
<path d="M661.086 70.9414C661.864 67.1605 662.679 63.2166 663.529 59.1097C664.38 54.9702 665.195 51.0263 665.973 47.278L670.887 23.3701C671.774 19.1002 672.571 15.2215 673.276 11.7339C674.001 8.24635 674.725 4.74247 675.449 1.22228H680.553C681.277 4.80765 681.992 8.32784 682.698 11.7828C683.404 15.2378 684.191 19.1165 685.06 23.419L689.947 47.4247C690.726 51.2708 691.531 55.231 692.364 59.3053C693.196 63.347 693.984 67.2257 694.726 70.9414H690.762C689.929 66.7694 689.069 62.4832 688.182 58.083C687.314 53.6502 686.49 49.4618 685.712 45.5179L678.191 7.67595H677.756L670.181 45.1757C669.367 49.25 668.507 53.5198 667.602 57.9852C666.715 62.418 665.846 66.7368 664.995 70.9414H661.086ZM667.683 52.6072L667.955 47.0335H688.21L688.427 52.6072H667.683Z" fill="#ECECEC"/>
<path d="M701.792 70.9414C701.792 67.0301 701.792 63.2655 701.792 59.6475C701.792 56.0296 701.792 52.0857 701.792 47.8158V24.4946C701.792 20.1596 701.792 16.1831 701.792 12.5651C701.792 8.91454 701.792 5.1336 701.792 1.22228C703.24 1.22228 705.086 1.22228 707.33 1.22228C709.575 1.22228 712.127 1.22228 714.987 1.22228C717.883 1.22228 720.272 1.92306 722.155 3.32462C724.037 4.72617 725.44 6.8611 726.363 9.72939C727.286 12.5977 727.748 16.232 727.748 20.6322C727.748 24.8042 727.313 28.52 726.445 31.7794C725.594 35.0063 724.137 37.5649 722.073 39.4554C720.01 41.3132 717.177 42.2422 713.575 42.2422C712.652 42.2422 711.665 42.2422 710.616 42.2422C709.584 42.2422 708.57 42.2422 707.575 42.2422C706.597 42.2422 705.756 42.2422 705.05 42.2422V36.473H712.951C715.467 36.473 717.53 35.9515 719.141 34.9085C720.752 33.8329 721.938 32.138 722.698 29.8238C723.476 27.477 723.865 24.4294 723.865 20.6811C723.865 17.552 723.576 15.0749 722.996 13.2496C722.417 11.4243 721.666 10.0716 720.743 9.19159C719.838 8.31154 718.851 7.74114 717.784 7.48039C716.734 7.21963 715.72 7.08925 714.743 7.08925H703.692L705.565 2.15122C705.565 6.06254 705.565 9.84347 705.565 13.494C705.565 17.1446 705.565 21.1211 705.565 25.4235V47.8158C705.565 52.0857 705.565 56.0296 705.565 59.6475C705.565 63.2655 705.565 67.0301 705.565 70.9414H701.792Z" fill="#ECECEC"/>
<path d="M752.759 71.9682C749.718 71.9682 746.976 71.0555 744.532 69.2302C742.107 67.405 740.043 64.8789 738.342 61.6521C736.64 58.3926 735.337 54.5791 734.432 50.2115C733.527 45.8113 733.075 41.0525 733.075 35.9352C733.075 28.8948 733.88 22.6693 735.491 17.2587C737.102 11.848 739.328 7.62706 742.17 4.59579C745.03 1.53193 748.315 0 752.026 0C753.311 0 754.56 0.162971 755.773 0.488914C756.986 0.814856 758.126 1.27118 759.194 1.85787C760.28 2.44457 761.276 3.06386 762.181 3.71575C763.086 4.36763 763.864 5.01952 764.516 5.67141L764.135 12.4184C762.742 10.9517 761.375 9.76198 760.036 8.84935C758.696 7.93671 757.375 7.26852 756.072 6.8448C754.786 6.42107 753.519 6.20921 752.27 6.20921C749.302 6.20921 746.668 7.43149 744.369 9.87607C742.089 12.288 740.297 15.7267 738.993 20.1922C737.69 24.625 737.039 29.889 737.039 35.9841C737.039 40.091 737.373 43.9534 738.043 47.5714C738.713 51.1567 739.718 54.3184 741.057 57.0563C742.415 59.7942 744.089 61.9454 746.08 63.51C748.089 65.0419 750.406 65.8078 753.031 65.8078C753.972 65.8078 754.904 65.7101 755.827 65.5145C756.768 65.2863 757.701 64.9604 758.624 64.5367C759.547 64.0804 760.452 63.4774 761.339 62.7277C762.226 61.978 763.077 61.0817 763.891 60.0387L764.271 66.7368C763.511 67.6168 762.669 68.3991 761.746 69.0836C760.841 69.7355 759.891 70.2733 758.895 70.697C757.918 71.1207 756.904 71.4304 755.854 71.6259C754.823 71.8541 753.791 71.9682 752.759 71.9682Z" fill="#ECECEC"/>
<path d="M782.872 70.9414C782.872 67.0301 782.872 63.2655 782.872 59.6475C782.872 56.0296 782.872 52.0857 782.872 47.8158V25.4724C782.872 21.1048 782.872 17.112 782.872 13.494C782.872 9.84347 782.872 6.06254 782.872 2.15122L784.42 7.4315H779.967C777.741 7.4315 775.768 7.4315 774.048 7.4315C772.347 7.4315 770.718 7.4315 769.161 7.4315V1.22228H800.357V7.4315C798.819 7.4315 797.19 7.4315 795.47 7.4315C793.769 7.4315 791.796 7.4315 789.551 7.4315H785.099L786.673 2.15122C786.673 6.06254 786.673 9.84347 786.673 13.494C786.673 17.112 786.673 21.1048 786.673 25.4724V47.8158C786.673 52.0857 786.673 56.0296 786.673 59.6475C786.673 63.2655 786.673 67.0301 786.673 70.9414H782.872Z" fill="#ECECEC"/>
<path d="M819.127 70.9414C817.353 70.9414 815.715 70.9414 814.213 70.9414C812.71 70.9414 811.389 70.9414 810.249 70.9414C809.108 70.9414 808.185 70.9414 807.479 70.9414C807.479 67.0301 807.479 63.2655 807.479 59.6475C807.479 56.0296 807.479 52.0857 807.479 47.8158V24.4946C807.479 20.1596 807.479 16.1831 807.479 12.5651C807.479 8.91454 807.479 5.1336 807.479 1.22228C809.488 1.22228 811.669 1.22228 814.023 1.22228C816.394 1.22228 818.837 1.22228 821.353 1.22228C823.489 1.22228 825.317 1.59712 826.838 2.34679C828.376 3.09646 829.634 4.18836 830.612 5.62251C831.607 7.05666 832.331 8.80046 832.784 10.8539C833.255 12.8747 833.49 15.1726 833.49 17.7476C833.49 20.7137 833.2 23.3049 832.621 25.5213C832.042 27.7377 831.236 29.5956 830.205 31.0949C829.191 32.5617 828.051 33.6699 826.784 34.4196V35.2018C828.051 35.6581 829.272 36.5056 830.449 37.7442C831.644 38.9502 832.621 40.694 833.381 42.9756C834.16 45.2572 834.549 48.2232 834.549 51.8738C834.549 54.5465 834.295 57.04 833.789 59.3542C833.282 61.6684 832.44 63.7055 831.263 65.4656C830.087 67.1931 828.503 68.5458 826.512 69.5236C824.539 70.4688 822.077 70.9414 819.127 70.9414ZM811.226 65.0745H819.398C822.114 65.0745 824.295 64.5204 825.942 63.4122C827.589 62.304 828.775 60.7394 829.499 58.7186C830.241 56.6977 830.612 54.2695 830.612 51.4338C830.612 46.7402 829.698 43.3993 827.87 41.411C826.041 39.3902 823.498 38.3798 820.24 38.3798H810.384V32.7572H820.322C822.512 32.7572 824.286 32.1217 825.643 30.8505C827.001 29.5467 827.987 27.8518 828.603 25.7658C829.236 23.6797 829.553 21.4307 829.553 19.0188C829.553 14.8141 828.838 11.7828 827.408 9.92496C825.978 8.03449 823.86 7.08925 821.055 7.08925H811.226C811.226 10.0879 811.226 13.0703 811.226 16.0364C811.226 18.9699 811.226 22.1641 811.226 25.6191V46.7402C811.226 50.1626 811.226 53.3405 811.226 56.274C811.226 59.1749 811.226 62.1084 811.226 65.0745Z" fill="#ECECEC"/>
<path d="M842.32 70.9414C842.32 67.0301 842.32 63.2655 842.32 59.6475C842.32 56.0296 842.32 52.0857 842.32 47.8158V24.4946C842.32 20.1596 842.32 16.1831 842.32 12.5651C842.32 8.91454 842.32 5.1336 842.32 1.22228H865.914V7.23593C864.068 7.23593 862.086 7.23593 859.968 7.23593C857.85 7.23593 855.361 7.23593 852.501 7.23593H844.003L846.066 2.15122C846.066 6.06254 846.066 9.84347 846.066 13.494C846.066 17.1446 846.066 21.1211 846.066 25.4235V46.838C846.066 51.0752 846.066 55.0028 846.066 58.6208C846.066 62.2388 846.066 66.0034 846.066 69.9147L844.166 64.9278H852.827C855.271 64.9278 857.569 64.9278 859.723 64.9278C861.877 64.9278 863.95 64.9278 865.941 64.9278V70.9414H842.32ZM845.252 38.4775V32.6595H852.908C855.443 32.6595 857.624 32.6595 859.452 32.6595C861.298 32.6595 863.072 32.6595 864.773 32.6595V38.4775C862.981 38.4775 861.162 38.4775 859.316 38.4775C857.488 38.4775 855.334 38.4775 852.854 38.4775H845.252Z" fill="#ECECEC"/>
<path d="M900.682 70.9414C900.682 67.0301 900.682 63.2655 900.682 59.6475C900.682 56.0296 900.682 52.0857 900.682 47.8158V24.4946C900.682 20.1596 900.682 16.1831 900.682 12.5651C900.682 8.91454 900.682 5.1336 900.682 1.22228H904.51C904.51 5.1336 904.51 8.91454 904.51 12.5651C904.51 16.1831 904.51 20.1596 904.51 24.4946V47.8158C904.51 52.0857 904.51 56.0296 904.51 59.6475C904.51 63.2655 904.51 67.0301 904.51 70.9414H900.682ZM874.508 70.9414C874.508 67.0301 874.508 63.2655 874.508 59.6475C874.508 56.0296 874.508 52.0857 874.508 47.8158V24.4946C874.508 20.1596 874.508 16.1831 874.508 12.5651C874.508 8.91454 874.508 5.1336 874.508 1.22228H878.337C878.337 5.1336 878.337 8.91454 878.337 12.5651C878.337 16.1831 878.337 20.1596 878.337 24.4946V47.8158C878.337 52.0857 878.337 56.0296 878.337 59.6475C878.337 63.2655 878.337 67.0301 878.337 70.9414H874.508ZM876.816 38.6242V32.5617H902.365V38.6242H876.816Z" fill="#ECECEC"/>
<path d="M941.356 70.9414C941.356 67.0301 941.356 63.2655 941.356 59.6475C941.356 56.0296 941.356 52.0857 941.356 47.8158V24.4946C941.356 20.1596 941.356 16.1831 941.356 12.5651C941.356 8.91454 941.356 5.1336 941.356 1.22228H945.184C945.184 5.1336 945.184 8.91454 945.184 12.5651C945.184 16.1831 945.184 20.1596 945.184 24.4946V47.8158C945.184 52.0857 945.184 56.0296 945.184 59.6475C945.184 63.2655 945.184 67.0301 945.184 70.9414H941.356ZM915.182 70.9414C915.182 67.0301 915.182 63.2655 915.182 59.6475C915.182 56.0296 915.182 52.0857 915.182 47.8158V24.4946C915.182 20.1596 915.182 16.1831 915.182 12.5651C915.182 8.91454 915.182 5.1336 915.182 1.22228H919.01C919.01 5.1336 919.01 8.91454 919.01 12.5651C919.01 16.1831 919.01 20.1596 919.01 24.4946V47.8158C919.01 52.0857 919.01 56.0296 919.01 59.6475C919.01 63.2655 919.01 67.0301 919.01 70.9414H915.182ZM917.49 38.6242V32.5617H943.039V38.6242H917.49Z" fill="#ECECEC"/>
<path d="M967.558 70.9414C965.204 70.9414 963.087 70.9414 961.204 70.9414C959.322 70.9414 957.539 70.9414 955.855 70.9414C955.855 67.0301 955.855 63.2655 955.855 59.6475C955.855 56.0296 955.855 52.0857 955.855 47.8158V24.4946C955.855 20.1596 955.855 16.1831 955.855 12.5651C955.855 8.91454 955.855 5.1336 955.855 1.22228H959.629C959.629 5.1336 959.629 8.91454 959.629 12.5651C959.629 16.1831 959.629 20.1596 959.629 24.4946V46.7891C959.629 50.1137 959.629 53.2265 959.629 56.1273C959.629 59.0282 959.629 62.0106 959.629 65.0745H967.015C969.531 65.0745 971.585 64.553 973.178 63.51C974.789 62.4343 975.983 60.7394 976.762 58.4252C977.54 56.0785 977.929 52.9983 977.929 49.1848C977.929 46.0231 977.64 43.5297 977.06 41.7044C976.499 39.8465 975.757 38.4612 974.834 37.5486C973.929 36.636 972.943 36.0493 971.875 35.7885C970.825 35.5278 969.802 35.3974 968.807 35.3974H959.114V29.5304C960.254 29.5304 961.657 29.5304 963.322 29.5304C965.005 29.5304 966.915 29.5304 969.051 29.5304C971.947 29.5304 974.336 30.2475 976.219 31.6816C978.101 33.0832 979.504 35.2344 980.427 38.1353C981.35 41.0362 981.812 44.7193 981.812 49.1848C981.812 53.3894 981.377 57.1378 980.509 60.4298C979.658 63.6892 978.192 66.2642 976.11 68.1546C974.047 70.0125 971.196 70.9414 967.558 70.9414ZM988.871 70.9414C988.871 67.0301 988.871 63.2655 988.871 59.6475C988.871 56.0296 988.871 52.0857 988.871 47.8158V24.4946C988.871 20.1596 988.871 16.1831 988.871 12.5651C988.871 8.91454 988.871 5.1336 988.871 1.22228H992.727C992.727 5.1336 992.727 8.91454 992.727 12.5651C992.727 16.1831 992.727 20.1596 992.727 24.4946V47.8158C992.727 52.0857 992.727 56.0296 992.727 59.6475C992.727 63.2655 992.727 67.0301 992.727 70.9414H988.871Z" fill="#ECECEC"/>
<path d="M1002.01 70.9414C1002.28 67.1279 1002.54 63.3796 1002.8 59.6964C1003.05 55.9807 1003.32 51.9553 1003.61 47.6202L1005.21 24.6902C1005.52 20.4203 1005.79 16.4601 1006.03 12.8096C1006.28 9.15899 1006.55 5.29657 1006.84 1.22228H1010.67C1011.88 6.43737 1013.04 11.4895 1014.15 16.3786C1015.27 21.2678 1016.38 26.1243 1017.49 30.9483L1024.03 59.5986H1024.36L1030.87 30.9483C1031.98 26.0917 1033.08 21.2352 1034.18 16.3786C1035.29 11.5221 1036.44 6.46996 1037.63 1.22228H1041.46C1041.73 5.23138 1041.99 9.07751 1042.22 12.7607C1042.47 16.4112 1042.75 20.3877 1043.04 24.6902L1044.61 47.8158C1044.9 52.0531 1045.16 55.997 1045.4 59.6475C1045.65 63.2655 1045.9 67.0301 1046.16 70.9414H1042.52C1042.07 64.39 1041.64 58.1808 1041.24 52.3138C1040.86 46.4142 1040.5 40.9058 1040.16 35.7885L1038.66 13.7874H1038.36L1033.04 37.4997C1031.74 43.2689 1030.44 49.0381 1029.13 54.8073C1027.85 60.5765 1026.64 65.9545 1025.52 70.9414H1022.89C1022.18 67.8124 1021.4 64.39 1020.55 60.6742C1019.7 56.9259 1018.83 53.0798 1017.92 49.1359C1017.03 45.192 1016.16 41.3621 1015.29 37.6464L1009.86 13.7874H1009.56L1008.09 35.7885C1007.75 40.8732 1007.38 46.3817 1006.98 52.3138C1006.58 58.2134 1006.16 64.4226 1005.73 70.9414H1002.01Z" fill="#ECECEC"/>
<path d="M1083.03 71.9682C1079.99 71.9682 1077.24 71.0555 1074.8 69.2302C1072.37 67.405 1070.31 64.8789 1068.61 61.6521C1066.91 58.3926 1065.6 54.5791 1064.7 50.2115C1063.79 45.8113 1063.34 41.0525 1063.34 35.9352C1063.34 28.8948 1064.15 22.6693 1065.76 17.2587C1067.37 11.848 1069.6 7.62706 1072.44 4.59579C1075.3 1.53193 1078.58 0 1082.29 0C1083.58 0 1084.83 0.162971 1086.04 0.488914C1087.25 0.814856 1088.39 1.27118 1089.46 1.85787C1090.55 2.44457 1091.54 3.06386 1092.45 3.71575C1093.35 4.36763 1094.13 5.01952 1094.78 5.67141L1094.4 12.4184C1093.01 10.9517 1091.64 9.76198 1090.3 8.84935C1088.96 7.93671 1087.64 7.26852 1086.34 6.8448C1085.05 6.42107 1083.79 6.20921 1082.54 6.20921C1079.57 6.20921 1076.94 7.43149 1074.64 9.87607C1072.36 12.288 1070.56 15.7267 1069.26 20.1922C1067.96 24.625 1067.31 29.889 1067.31 35.9841C1067.31 40.091 1067.64 43.9534 1068.31 47.5714C1068.98 51.1567 1069.98 54.3184 1071.32 57.0563C1072.68 59.7942 1074.36 61.9454 1076.35 63.51C1078.36 65.0419 1080.67 65.8078 1083.3 65.8078C1084.24 65.8078 1085.17 65.7101 1086.09 65.5145C1087.04 65.2863 1087.97 64.9604 1088.89 64.5367C1089.81 64.0804 1090.72 63.4774 1091.61 62.7277C1092.49 61.978 1093.34 61.0817 1094.16 60.0387L1094.54 66.7368C1093.78 67.6168 1092.94 68.3991 1092.01 69.0836C1091.11 69.7355 1090.16 70.2733 1089.16 70.697C1088.19 71.1207 1087.17 71.4304 1086.12 71.6259C1085.09 71.8541 1084.06 71.9682 1083.03 71.9682Z" fill="#ECECEC"/>
<path d="M1103.01 70.9414C1103.01 67.0301 1103.01 63.2655 1103.01 59.6475C1103.01 56.0296 1103.01 52.0857 1103.01 47.8158V24.4946C1103.01 20.1596 1103.01 16.1831 1103.01 12.5651C1103.01 8.91454 1103.01 5.1336 1103.01 1.22228C1104.46 1.22228 1106.31 1.22228 1108.55 1.22228C1110.8 1.22228 1113.35 1.22228 1116.21 1.22228C1119.1 1.22228 1121.49 1.92306 1123.38 3.32462C1125.26 4.72617 1126.66 6.8611 1127.58 9.72939C1128.51 12.5977 1128.97 16.232 1128.97 20.6322C1128.97 24.8042 1128.53 28.52 1127.67 31.7794C1126.81 35.0063 1125.36 37.5649 1123.29 39.4554C1121.23 41.3132 1118.4 42.2422 1114.8 42.2422C1113.87 42.2422 1112.89 42.2422 1111.84 42.2422C1110.8 42.2422 1109.79 42.2422 1108.8 42.2422C1107.82 42.2422 1106.98 42.2422 1106.27 42.2422V36.473H1114.17C1116.69 36.473 1118.75 35.9515 1120.36 34.9085C1121.97 33.8329 1123.16 32.138 1123.92 29.8238C1124.7 27.477 1125.09 24.4294 1125.09 20.6811C1125.09 17.552 1124.8 15.0749 1124.22 13.2496C1123.64 11.4243 1122.89 10.0716 1121.96 9.19159C1121.06 8.31154 1120.07 7.74114 1119 7.48039C1117.95 7.21963 1116.94 7.08925 1115.96 7.08925H1104.91L1106.79 2.15122C1106.79 6.06254 1106.79 9.84347 1106.79 13.494C1106.79 17.1446 1106.79 21.1211 1106.79 25.4235V47.8158C1106.79 52.0857 1106.79 56.0296 1106.79 59.6475C1106.79 63.2655 1106.79 67.0301 1106.79 70.9414H1103.01Z" fill="#ECECEC"/>
<path d="M1136.74 70.9414C1136.74 67.0301 1136.74 63.2655 1136.74 59.6475C1136.74 56.0296 1136.74 52.0857 1136.74 47.8158V24.4946C1136.74 20.1596 1136.74 16.1831 1136.74 12.5651C1136.74 8.91454 1136.74 5.1336 1136.74 1.22228H1160.33V7.23593C1158.49 7.23593 1156.5 7.23593 1154.39 7.23593C1152.27 7.23593 1149.78 7.23593 1146.92 7.23593H1138.42L1140.49 2.15122C1140.49 6.06254 1140.49 9.84347 1140.49 13.494C1140.49 17.1446 1140.49 21.1211 1140.49 25.4235V46.838C1140.49 51.0752 1140.49 55.0028 1140.49 58.6208C1140.49 62.2388 1140.49 66.0034 1140.49 69.9147L1138.59 64.9278H1147.25C1149.69 64.9278 1151.99 64.9278 1154.14 64.9278C1156.3 64.9278 1158.37 64.9278 1160.36 64.9278V70.9414H1136.74ZM1139.67 38.4775V32.6595H1147.33C1149.86 32.6595 1152.04 32.6595 1153.87 32.6595C1155.72 32.6595 1157.49 32.6595 1159.19 32.6595V38.4775C1157.4 38.4775 1155.58 38.4775 1153.74 38.4775C1151.91 38.4775 1149.75 38.4775 1147.27 38.4775H1139.67Z" fill="#ECECEC"/>
<path d="M1195.43 69.9147C1195.43 66.0034 1195.43 62.2388 1195.43 58.6208C1195.43 55.0028 1195.43 51.0589 1195.43 46.7891V25.4724C1195.43 21.1048 1195.43 17.112 1195.43 13.494C1195.43 9.84347 1195.43 6.06254 1195.43 2.15122L1197.11 7.23593H1176.42L1178.4 2.73792C1178.22 7.23593 1178.05 11.7828 1177.89 16.3786C1177.72 20.9418 1177.56 25.505 1177.4 30.0682C1177.18 36.0656 1176.83 41.2644 1176.34 45.6646C1175.87 50.0648 1175.23 53.8946 1174.41 57.1541C1173.62 60.4135 1172.63 63.3633 1171.45 66.0034L1167.71 65.2211C1168.86 62.744 1169.85 59.9246 1170.67 56.7629C1171.5 53.6013 1172.19 49.7389 1172.73 45.1757C1173.27 40.6125 1173.66 35.0388 1173.9 28.4548C1174.08 23.6634 1174.25 18.9862 1174.41 14.423C1174.59 9.82718 1174.76 5.42695 1174.9 1.22228H1199.23C1199.23 5.1336 1199.23 8.91454 1199.23 12.5651C1199.23 16.1831 1199.23 20.1596 1199.23 24.4946V46.7891C1199.23 51.0589 1199.23 55.0028 1199.23 58.6208C1199.23 62.2388 1199.23 66.0034 1199.23 69.9147H1195.43ZM1164.34 86C1164.34 84.3051 1164.34 82.5939 1164.34 80.8664C1164.34 79.1389 1164.34 77.3951 1164.34 75.635C1164.34 73.9075 1164.34 72.1311 1164.34 70.3059C1164.34 68.4806 1164.34 66.6879 1164.34 64.9278C1166.62 64.9278 1168.92 64.9278 1171.24 64.9278C1173.55 64.9278 1175.81 64.9278 1178 64.9278H1190.57C1192.78 64.9278 1195.04 64.9278 1197.35 64.9278C1199.67 64.9278 1201.96 64.9278 1204.22 64.9278C1204.22 66.6879 1204.22 68.4806 1204.22 70.3059C1204.22 72.1311 1204.22 73.9075 1204.22 75.635C1204.22 77.3951 1204.22 79.1389 1204.22 80.8664C1204.22 82.5939 1204.22 84.3051 1204.22 86H1200.91L1200.67 69.8169L1201.73 70.9414H1166.84L1167.9 69.8169L1167.65 86H1164.34Z" fill="#ECECEC"/>
<path d="M1228.38 71.9682C1225.34 71.9682 1222.6 71.0555 1220.15 69.2302C1217.73 67.405 1215.66 64.8789 1213.96 61.6521C1212.26 58.3926 1210.96 54.5791 1210.05 50.2115C1209.15 45.8113 1208.7 41.0525 1208.7 35.9352C1208.7 28.8948 1209.5 22.6693 1211.11 17.2587C1212.72 11.848 1214.95 7.62706 1217.79 4.59579C1220.65 1.53193 1223.94 0 1227.65 0C1228.93 0 1230.18 0.162971 1231.39 0.488914C1232.61 0.814856 1233.75 1.27118 1234.81 1.85787C1235.9 2.44457 1236.9 3.06386 1237.8 3.71575C1238.71 4.36763 1239.48 5.01952 1240.14 5.67141L1239.76 12.4184C1238.36 10.9517 1237 9.76198 1235.66 8.84935C1234.32 7.93671 1233 7.26852 1231.69 6.8448C1230.41 6.42107 1229.14 6.20921 1227.89 6.20921C1224.92 6.20921 1222.29 7.43149 1219.99 9.87607C1217.71 12.288 1215.92 15.7267 1214.61 20.1922C1213.31 24.625 1212.66 29.889 1212.66 35.9841C1212.66 40.091 1212.99 43.9534 1213.66 47.5714C1214.33 51.1567 1215.34 54.3184 1216.68 57.0563C1218.04 59.7942 1219.71 61.9454 1221.7 63.51C1223.71 65.0419 1226.03 65.8078 1228.65 65.8078C1229.59 65.8078 1230.53 65.7101 1231.45 65.5145C1232.39 65.2863 1233.32 64.9604 1234.24 64.5367C1235.17 64.0804 1236.07 63.4774 1236.96 62.7277C1237.85 61.978 1238.7 61.0817 1239.51 60.0387L1239.89 66.7368C1239.13 67.6168 1238.29 68.3991 1237.37 69.0836C1236.46 69.7355 1235.51 70.2733 1234.52 70.697C1233.54 71.1207 1232.53 71.4304 1231.48 71.6259C1230.44 71.8541 1229.41 71.9682 1228.38 71.9682Z" fill="#ECECEC"/>
<path d="M1258.49 70.9414C1258.49 67.0301 1258.49 63.2655 1258.49 59.6475C1258.49 56.0296 1258.49 52.0857 1258.49 47.8158V25.4724C1258.49 21.1048 1258.49 17.112 1258.49 13.494C1258.49 9.84347 1258.49 6.06254 1258.49 2.15122L1260.04 7.4315H1255.59C1253.36 7.4315 1251.39 7.4315 1249.67 7.4315C1247.97 7.4315 1246.34 7.4315 1244.78 7.4315V1.22228H1275.98V7.4315C1274.44 7.4315 1272.81 7.4315 1271.09 7.4315C1269.39 7.4315 1267.42 7.4315 1265.17 7.4315H1260.72L1262.29 2.15122C1262.29 6.06254 1262.29 9.84347 1262.29 13.494C1262.29 17.112 1262.29 21.1048 1262.29 25.4724V47.8158C1262.29 52.0857 1262.29 56.0296 1262.29 59.6475C1262.29 63.2655 1262.29 67.0301 1262.29 70.9414H1258.49Z" fill="#ECECEC"/>
<path d="M1294.75 70.9414C1292.97 70.9414 1291.34 70.9414 1289.83 70.9414C1288.33 70.9414 1287.01 70.9414 1285.87 70.9414C1284.73 70.9414 1283.81 70.9414 1283.1 70.9414C1283.1 67.0301 1283.1 63.2655 1283.1 59.6475C1283.1 56.0296 1283.1 52.0857 1283.1 47.8158V24.4946C1283.1 20.1596 1283.1 16.1831 1283.1 12.5651C1283.1 8.91454 1283.1 5.1336 1283.1 1.22228C1285.11 1.22228 1287.29 1.22228 1289.64 1.22228C1292.01 1.22228 1294.46 1.22228 1296.97 1.22228C1299.11 1.22228 1300.94 1.59712 1302.46 2.34679C1304 3.09646 1305.26 4.18836 1306.23 5.62251C1307.23 7.05666 1307.95 8.80046 1308.4 10.8539C1308.88 12.8747 1309.11 15.1726 1309.11 17.7476C1309.11 20.7137 1308.82 23.3049 1308.24 25.5213C1307.66 27.7377 1306.86 29.5956 1305.83 31.0949C1304.81 32.5617 1303.67 33.6699 1302.4 34.4196V35.2018C1303.67 35.6581 1304.89 36.5056 1306.07 37.7442C1307.26 38.9502 1308.24 40.694 1309 42.9756C1309.78 45.2572 1310.17 48.2232 1310.17 51.8738C1310.17 54.5465 1309.92 57.04 1309.41 59.3542C1308.9 61.6684 1308.06 63.7055 1306.88 65.4656C1305.71 67.1931 1304.12 68.5458 1302.13 69.5236C1300.16 70.4688 1297.7 70.9414 1294.75 70.9414ZM1286.85 65.0745H1295.02C1297.73 65.0745 1299.92 64.5204 1301.56 63.4122C1303.21 62.304 1304.4 60.7394 1305.12 58.7186C1305.86 56.6977 1306.23 54.2695 1306.23 51.4338C1306.23 46.7402 1305.32 43.3993 1303.49 41.411C1301.66 39.3902 1299.12 38.3798 1295.86 38.3798H1286.01V32.7572H1295.94C1298.13 32.7572 1299.91 32.1217 1301.26 30.8505C1302.62 29.5467 1303.61 27.8518 1304.22 25.7658C1304.86 23.6797 1305.17 21.4307 1305.17 19.0188C1305.17 14.8141 1304.46 11.7828 1303.03 9.92496C1301.6 8.03449 1299.48 7.08925 1296.68 7.08925H1286.85C1286.85 10.0879 1286.85 13.0703 1286.85 16.0364C1286.85 18.9699 1286.85 22.1641 1286.85 25.6191V46.7402C1286.85 50.1626 1286.85 53.3405 1286.85 56.274C1286.85 59.1749 1286.85 62.1084 1286.85 65.0745Z" fill="#ECECEC"/>
<path d="M1334.99 71.9682C1331.75 71.9682 1328.91 71.0229 1326.47 69.1325C1324.04 67.2094 1322.01 64.5856 1320.38 61.2609C1318.76 57.9363 1317.53 54.1065 1316.72 49.7715C1315.9 45.4364 1315.5 40.8406 1315.5 35.9841C1315.5 29.2371 1316.26 23.1419 1317.78 17.6987C1319.32 12.2554 1321.52 7.95301 1324.4 4.79136C1327.3 1.59712 1330.77 0 1334.83 0C1337.92 0 1340.67 0.928937 1343.06 2.78681C1345.44 4.61209 1347.45 7.18704 1349.08 10.5117C1350.73 13.8037 1351.97 17.6172 1352.8 21.9522C1353.65 26.2873 1354.08 30.9646 1354.08 35.9841C1354.08 42.8289 1353.31 48.9729 1351.77 54.4161C1350.25 59.8268 1348.06 64.1129 1345.2 67.2746C1342.36 70.4036 1338.96 71.9682 1334.99 71.9682ZM1334.86 65.8078C1337.52 65.8078 1339.81 64.993 1341.72 63.3633C1343.64 61.7336 1345.22 59.5172 1346.45 56.714C1347.7 53.8783 1348.62 50.6841 1349.22 47.1313C1349.82 43.5785 1350.11 39.8628 1350.11 35.9841C1350.11 31.812 1349.79 27.917 1349.14 24.299C1348.5 20.6811 1347.54 17.5194 1346.26 14.8141C1344.99 12.0762 1343.41 9.94125 1341.51 8.40933C1339.61 6.87739 1337.39 6.11143 1334.86 6.11143C1332.25 6.11143 1329.98 6.92628 1328.04 8.556C1326.12 10.1531 1324.53 12.3532 1323.26 15.1563C1321.99 17.9594 1321.04 21.1537 1320.41 24.7391C1319.78 28.2918 1319.46 32.0402 1319.46 35.9841C1319.46 39.928 1319.77 43.6926 1320.38 47.278C1321 50.8634 1321.93 54.0576 1323.18 56.8607C1324.43 59.6312 1326.02 61.815 1327.96 63.4122C1329.9 65.0093 1332.19 65.8078 1334.86 65.8078Z" fill="#ECECEC"/>
<path d="M1359.85 70.9414C1360.12 67.1279 1360.39 63.3796 1360.64 59.6964C1360.89 55.9807 1361.16 51.9553 1361.45 47.6202L1363.06 24.6902C1363.36 20.4203 1363.64 16.4601 1363.87 12.8096C1364.12 9.15899 1364.4 5.29657 1364.69 1.22228H1368.51C1369.73 6.43737 1370.88 11.4895 1371.99 16.3786C1373.11 21.2678 1374.22 26.1243 1375.33 30.9483L1381.87 59.5986H1382.2L1388.71 30.9483C1389.82 26.0917 1390.92 21.2352 1392.03 16.3786C1393.13 11.5221 1394.28 6.46996 1395.47 1.22228H1399.3C1399.57 5.23138 1399.83 9.07751 1400.06 12.7607C1400.32 16.4112 1400.59 20.3877 1400.88 24.6902L1402.45 47.8158C1402.74 52.0531 1403 55.997 1403.24 59.6475C1403.49 63.2655 1403.75 67.0301 1404 70.9414H1400.36C1399.91 64.39 1399.48 58.1808 1399.09 52.3138C1398.71 46.4142 1398.34 40.9058 1398 35.7885L1396.51 13.7874H1396.21L1390.89 37.4997C1389.58 43.2689 1388.28 49.0381 1386.98 54.8073C1385.69 60.5765 1384.49 65.9545 1383.37 70.9414H1380.73C1380.03 67.8124 1379.25 64.39 1378.4 60.6742C1377.55 56.9259 1376.67 53.0798 1375.76 49.1359C1374.88 45.192 1374 41.3621 1373.13 37.6464L1367.7 13.7874H1367.4L1365.93 35.7885C1365.59 40.8732 1365.22 46.3817 1364.82 52.3138C1364.42 58.2134 1364.01 64.4226 1363.57 70.9414H1359.85Z" fill="#ECECEC"/>
</svg>
