<svg width="688" height="620" viewBox="0 0 688 620" fill="none" xmlns="http://www.w3.org/2000/svg">
<rect width="688" height="620" rx="32" fill="white"/>
<path d="M348.975 73.0178C350.788 70.7369 353.105 68.9072 355.744 67.672C358.383 66.4369 361.273 65.8299 364.186 65.8987C366.546 65.8987 369.159 66.4186 371.065 65.0188C372.398 64.0189 373.038 62.3525 373.985 60.9127C374.759 59.8883 375.731 59.0299 376.844 58.3886C377.957 57.7473 379.187 57.3361 380.461 57.1794C381.736 57.0227 383.029 57.1238 384.264 57.4765C385.499 57.8293 386.65 58.4266 387.65 59.2329C388.496 60.1954 389.496 61.0108 390.609 61.6459C395.395 63.5923 399.595 54.5668 404.354 56.5666C402.376 57.5436 400.743 59.1018 399.675 61.0327C399.169 62.0083 399.004 63.1252 399.207 64.2053C399.41 65.2854 399.969 66.2664 400.794 66.9919C405.407 70.3248 411.606 61.2993 416.646 63.9389C419.312 65.3654 420.139 69.6849 423.165 70.1115C424.354 70.1195 425.536 69.921 426.658 69.5249C428.627 69.1928 430.648 69.6207 432.314 70.722C433.979 71.8232 435.164 73.5158 435.63 75.4574C436.297 78.8037 434.99 83.0965 437.736 85.1095C439.429 86.3494 441.736 85.8961 443.842 85.3895C444.104 88.5042 443.648 91.6374 442.509 94.5483C445.359 95.9763 447.544 98.4535 448.606 101.459C449.668 104.465 449.523 107.765 448.202 110.666C451.196 112.329 453.836 114.562 455.974 117.239C457.934 120.038 458.707 123.904 456.96 126.877C456.507 127.508 456.135 128.193 455.854 128.917C455.701 129.75 455.784 130.609 456.094 131.397C457.04 134.503 458.76 137.423 458.934 140.729C459.107 144.035 457.08 147.728 453.841 147.768C453.081 147.768 452.241 147.595 451.641 148.075C451.438 148.274 451.278 148.513 451.17 148.777C451.062 149.04 451.009 149.323 451.015 149.608C451.018 151.942 451.396 154.26 452.134 156.474C452.668 158.74 452.921 161.273 451.734 163.273C450.548 165.272 447.455 166.246 445.829 164.606C447.1 168.117 448.362 171.623 449.615 175.124C450.375 177.204 451.055 179.737 449.615 181.457C447.775 183.697 443.936 182.43 442.162 180.124C440.389 177.817 439.683 174.791 437.843 172.591C437.002 171.753 436.251 170.828 435.603 169.832C435.177 169.005 434.963 167.979 434.177 167.459C432.617 166.406 430.591 168.632 430.964 170.472C431.337 172.312 432.95 173.605 434.27 174.951C435.59 176.298 436.736 178.271 435.937 179.977C435.55 180.79 434.763 181.31 434.403 182.217C433.137 185.097 437.403 187.376 438.163 190.416C438.736 192.682 437.27 194.895 435.777 196.695C433.964 198.868 430.257 200.854 428.751 198.441C428.402 197.527 428.108 196.592 427.871 195.642C427.253 194.667 426.406 193.857 425.405 193.282C423.091 191.557 421.338 189.187 420.365 186.47C423.032 189.136 425.898 192.829 424.538 196.375C423.804 197.785 422.865 199.079 421.752 200.215C419.805 202.654 418.752 205.694 416.846 208.214C414.939 210.733 411.593 212.56 408.74 211.293C409.333 212.746 409.421 214.356 408.99 215.865C408.559 217.374 407.635 218.695 406.365 219.617C405.095 220.538 403.552 221.007 401.984 220.948C400.416 220.889 398.912 220.306 397.715 219.292C397.14 218.65 396.436 218.136 395.648 217.786C394.746 217.655 393.825 217.77 392.982 218.119C390.287 218.838 387.446 218.802 384.77 218.015C382.094 217.227 379.686 215.718 377.811 213.653L380.477 212.413C374.971 212.213 369.225 211.973 364.386 209.293C359.547 206.614 356.04 200.734 357.933 195.548C358.747 193.295 360.493 190.909 359.387 188.789C358.64 187.323 356.854 186.79 355.254 186.39L335.176 181.404C331.923 180.604 328.511 179.697 326.164 177.298C323.818 174.898 323.218 170.498 325.804 168.392C324.012 165.51 321.436 163.198 318.379 161.726C314.966 160.086 311.126 159.58 307.633 158.113C304.14 156.647 300.821 153.687 300.701 149.914C300.581 146.142 305.487 142.729 308.34 145.208C307.273 139.596 297.155 140.209 295.755 134.676C294.622 130.184 300.234 127.251 302.901 123.465C302.141 121.931 300.421 121.065 299.608 119.572C297.915 116.412 301.007 112.799 304.087 110.959C307.167 109.12 310.94 107.187 311.379 103.64C311.819 100.094 308.407 96.2681 310.046 92.9752C310.513 92.0655 311.311 91.3692 312.276 91.0295C313.24 90.6898 314.298 90.7325 315.232 91.1487C317.205 84.3763 329.897 88.1225 332.963 81.7366C333.222 81.2362 333.315 80.6669 333.23 80.1102C333.096 79.6456 332.838 79.2262 332.483 78.897C330.897 77.2439 328.604 76.4973 326.671 75.2708C324.738 74.0443 322.938 71.7779 323.538 69.5649C324.138 67.3518 328.191 67.0452 328.364 69.3249C328.92 68.799 329.589 68.4066 330.319 68.1777C331.05 67.9487 331.823 67.8891 332.579 68.0035C333.336 68.1179 334.057 68.4032 334.687 68.8377C335.317 69.2722 335.84 69.8446 336.216 70.5114C337.549 68.4584 340.696 68.1917 342.882 69.2449C345.027 70.4996 346.852 72.2335 348.215 74.3109" fill="#263238"/>
<path d="M386.783 142.156C383.65 133.05 375.865 126.291 367.559 121.412C364.079 119.359 360.32 117.519 356.28 117.412C352.241 117.305 347.895 119.199 346.308 122.905L347.642 129.571C348.055 140.236 357.32 148.235 362.413 157.7C364.626 161.806 366.639 166.819 371.105 168.152C373.511 168.731 376.045 168.403 378.224 167.232C386.93 162.94 389.916 151.261 386.783 142.156Z" fill="#455A64"/>
<path d="M393.596 191.163C395.98 186.718 396.73 181.578 395.714 176.637C394.698 171.696 391.981 167.269 388.036 164.126C391.276 158.7 388.863 151.341 384.25 147.022C379.637 142.702 373.371 140.716 367.332 138.863C362.306 124.944 344.855 117.026 331.07 122.438C322.178 112.519 306.114 112.933 293.942 118.332C290.956 119.665 288.023 121.238 284.796 121.652C282.412 121.805 280.021 121.805 277.637 121.652C264.519 121.652 252.934 132.45 249.521 145.129C249.121 147.195 248.449 149.199 247.521 151.088C246.188 153.461 243.775 155.087 241.842 157.034C239.754 159.17 238.15 161.73 237.14 164.541C236.13 167.353 235.738 170.348 235.989 173.325C236.456 178.364 238.762 183.457 237.323 188.296C236.576 190.709 234.91 192.816 234.403 195.295C232.95 202.494 241.522 208.507 241.069 215.839C240.975 217.332 240.495 218.786 240.282 220.265C239.858 223.336 240.558 226.457 242.255 229.051C243.588 231.024 245.455 232.744 245.908 235.063C246.028 236.848 245.916 238.64 245.575 240.396C245.268 244.782 256.68 259.994 260.68 261.82L370.932 247.928C374.97 246.433 378.442 243.719 380.869 240.163C383.296 236.606 384.557 232.383 384.477 228.078C384.241 226.661 384.408 225.206 384.957 223.878C385.704 222.919 386.639 222.121 387.703 221.532C394.289 216.773 393.836 206.867 392.009 199.002C391.682 197.909 391.551 196.767 391.622 195.629C391.97 194.021 392.641 192.502 393.596 191.163Z" fill="#263238"/>
<path d="M362.239 195.535C359.946 176.004 344.722 155.26 324.071 148.328C311.059 143.955 301.541 145.195 295.021 145.315C285.898 145.662 277.095 148.778 269.785 154.247C263.905 156.487 244.455 179.844 246.214 202.108C248.227 226.838 251.667 256.941 257.226 274.805C268.412 310.707 297.221 311.294 297.221 311.294L306.393 353.075L345.481 420.159L383.077 335.25L362.239 195.535Z" fill="#FFCDB2"/>
<path d="M311.393 261.3C310.941 259.445 309.827 257.818 308.26 256.728C306.83 255.706 305.103 255.183 303.346 255.241C301.59 255.299 299.901 255.934 298.541 257.047C297.135 258.339 296.102 259.983 295.548 261.81C294.995 263.637 294.942 265.579 295.395 267.433C296.299 268.489 297.418 269.339 298.679 269.925C299.939 270.512 301.311 270.821 302.701 270.832C303.146 270.833 303.591 270.806 304.034 270.752C306.207 270.548 308.225 269.535 309.686 267.913C310.452 267.011 311.003 265.948 311.299 264.802C311.594 263.657 311.627 262.46 311.393 261.3Z" fill="#FFAE89"/>
<path d="M276.931 225.438C276.264 224.905 273.038 228.024 267.958 228.704C262.879 229.384 258.813 227.371 258.346 228.038C258.106 228.344 258.853 229.371 260.639 230.344C263.039 231.582 265.763 232.048 268.438 231.677C271.083 231.329 273.549 230.148 275.478 228.304C276.877 226.865 277.251 225.678 276.931 225.438Z" fill="#263238"/>
<path d="M292.036 250.755C292.036 250.461 288.796 250.368 283.583 250.461C282.25 250.461 281.01 250.461 280.664 249.582C280.353 248.249 280.46 246.852 280.97 245.582C281.73 242.263 282.53 238.796 283.37 235.157C286.636 220.345 288.823 208.227 288.223 208.107C287.623 207.987 284.477 219.892 281.197 234.77C280.424 238.423 279.682 241.907 278.971 245.222C278.691 246.769 278.091 248.568 278.971 250.408C279.225 250.836 279.573 251.201 279.989 251.476C280.405 251.751 280.877 251.928 281.37 251.995C282.118 252.089 282.875 252.089 283.623 251.995C288.876 251.488 292.062 251.048 292.036 250.755Z" fill="#263238"/>
<path d="M297.261 311.294C314.611 309.04 330.994 302.015 344.588 291.003C344.588 291.003 336.589 318.519 299.261 320.426L297.261 311.294Z" fill="#FFAE89"/>
<path d="M277.704 212.973C276.904 211.64 272.945 212.32 268.372 211.72C263.799 211.12 260.08 209.733 259.04 210.813C258.573 211.333 259.04 212.586 260.533 213.919C262.63 215.596 265.167 216.629 267.839 216.892C270.491 217.248 273.189 216.816 275.598 215.652C277.344 214.706 278.051 213.599 277.704 212.973Z" fill="#263238"/>
<path d="M308.953 222.292C309.366 221.532 313.552 223.132 318.485 221.745C323.418 220.359 326.351 216.866 327.057 217.332C327.39 217.519 327.057 218.759 325.857 220.359C324.132 222.438 321.802 223.929 319.192 224.625C316.631 225.36 313.901 225.253 311.406 224.318C309.606 223.572 308.753 222.638 308.953 222.292Z" fill="#263238"/>
<path d="M304.074 206.347C304.607 204.907 308.726 204.641 313.206 203.027C317.685 201.414 321.205 199.215 322.458 200.028C323.045 200.441 322.858 201.761 321.591 203.414C320.912 204.641 318.312 206.64 314.859 207.973C312.269 208.907 309.468 209.087 306.78 208.493C304.794 207.96 303.847 207.04 304.074 206.347Z" fill="#263238"/>
<path d="M361.226 231.251C360.826 228.518 363.053 221.599 365.706 220.785C372.758 218.612 385.85 217.306 388.636 235.623C392.449 260.66 366.519 259.314 366.372 258.607C366.226 257.9 362.573 240.703 361.226 231.251Z" fill="#FFCDB2"/>
<path d="M371.879 248.408C371.986 248.315 372.372 248.648 373.212 248.875C374.317 249.156 375.487 248.998 376.478 248.435C378.985 247.102 380.571 242.529 379.998 237.996C379.742 235.842 379.004 233.774 377.838 231.944C377.484 231.195 376.954 230.544 376.291 230.047C375.629 229.55 374.856 229.222 374.039 229.091C373.518 229.035 372.994 229.163 372.559 229.453C372.123 229.742 371.802 230.176 371.652 230.677C371.412 231.424 371.652 231.904 371.532 232.011C371.412 232.117 370.932 231.664 370.972 230.677C371.013 230.031 371.277 229.418 371.719 228.944C372.332 228.321 373.164 227.962 374.039 227.944C375.985 227.784 378.038 229.278 379.185 231.131C380.577 233.142 381.46 235.462 381.758 237.89C382.358 242.956 380.491 248.075 377.038 249.662C376.4 249.971 375.701 250.131 374.992 250.131C374.283 250.131 373.583 249.971 372.945 249.662C372.026 249.008 371.799 248.462 371.879 248.408Z" fill="#FFAE89"/>
<path d="M369.518 190.069C367.092 178.231 361.239 167.272 353.787 157.78C350.724 153.726 347.138 150.094 343.122 146.981C338.363 143.694 333.246 140.957 327.87 138.823C320.965 135.81 313.886 132.81 306.38 132.157C292.395 130.917 279.05 137.863 267.278 145.488C262.693 148.246 258.5 151.609 254.813 155.487C250.587 160.273 247.814 166.152 245.481 172.125C242.162 180.737 239.695 189.869 240.149 199.095L240.522 203.254C245.135 199.348 247.734 194.575 246.561 188.656C250.067 189.176 252.84 184.35 254.387 181.164C255.933 177.977 258.106 176.164 257.453 172.685C257.267 172.009 257.267 171.295 257.453 170.618C257.813 169.579 258.973 169.099 259.959 168.619C262.507 167.356 264.697 165.474 266.327 163.144C267.958 160.815 268.977 158.113 269.291 155.287C275.043 156.916 281.111 157.081 286.942 155.767C288.52 157.471 290.504 158.747 292.709 159.474C294.914 160.202 297.268 160.357 299.55 159.925C301.831 159.493 303.966 158.489 305.753 157.006C307.54 155.523 308.921 153.61 309.766 151.448C310.837 152.852 312.197 154.01 313.754 154.842C315.311 155.675 317.029 156.163 318.792 156.274C322.311 156.461 325.839 156.147 329.27 155.34C329.114 158.831 330.223 162.26 332.393 164.999C334.563 167.737 337.648 169.6 341.082 170.245C341.552 170.242 342.018 170.332 342.453 170.511C342.888 170.689 343.283 170.952 343.615 171.285C343.804 171.737 343.901 172.222 343.901 172.711C343.901 173.201 343.804 173.686 343.615 174.138C343.346 175.651 343.384 177.203 343.728 178.701C344.071 180.199 344.714 181.613 345.616 182.857C346.518 184.101 347.662 185.151 348.978 185.944C350.295 186.736 351.759 187.255 353.28 187.47C349.641 191.229 351.121 198.521 355.947 200.575C356.947 200.988 358.227 201.481 358.24 202.561C358.206 202.971 358.068 203.365 357.84 203.707C356.333 206.454 354.867 209.427 355.094 212.56C355.32 215.693 357.907 218.865 361.026 218.545C360.245 219.325 359.63 220.255 359.22 221.28C358.81 222.304 358.612 223.401 358.64 224.505C358.906 226.678 361.439 228.584 363.359 227.504C364.172 227.051 376.304 222.785 376.691 221.958C382.397 211.253 371.945 201.908 369.518 190.069Z" fill="#263238"/>
<path d="M234.35 195.215C234.522 194.211 234.85 193.239 235.323 192.336C235.723 191.429 236.336 190.349 236.869 189.003C237.458 187.442 237.708 185.775 237.603 184.11C237.442 182.024 237.108 179.955 236.603 177.924C235.978 175.486 235.686 172.975 235.736 170.459C235.867 167.548 236.602 164.697 237.896 162.086C238.592 160.656 239.456 159.313 240.469 158.087C241.548 156.819 242.73 155.642 244.002 154.567C245.316 153.481 246.446 152.189 247.348 150.741C248.126 149.132 248.695 147.429 249.041 145.675C251.033 137.821 255.76 130.934 262.373 126.251C264.157 125.003 266.07 123.948 268.079 123.105C270.165 122.279 272.346 121.715 274.571 121.425C275.703 121.287 276.843 121.215 277.984 121.212C279.13 121.212 280.264 121.292 281.41 121.332C283.674 121.486 285.945 121.164 288.076 120.385C290.262 119.625 292.342 118.492 294.582 117.585C299.117 115.677 303.937 114.533 308.847 114.199C311.365 114.044 313.893 114.143 316.392 114.492C321.565 115.168 326.395 117.448 330.204 121.012L331.31 122.118L330.884 122.012C337.987 119.576 345.752 119.949 352.589 123.055C359.425 126.161 364.814 131.764 367.652 138.716L367.412 138.489C370.628 139.428 373.785 140.558 376.864 141.876C379.869 143.137 382.613 144.945 384.957 147.208C387.183 149.47 388.742 152.303 389.463 155.394C390.21 158.375 389.786 161.529 388.276 164.206L388.196 163.793C392.055 166.782 394.748 171.026 395.809 175.791C396.85 180.05 396.562 184.526 394.982 188.616C394.603 189.536 394.158 190.427 393.649 191.282C393.142 192.136 392.622 192.936 392.236 193.762C391.853 194.569 391.67 195.456 391.702 196.349C391.775 197.226 391.923 198.096 392.142 198.948C392.879 202.081 393.246 205.289 393.236 208.507C393.254 211.104 392.769 213.68 391.809 216.093C391.072 217.869 389.936 219.451 388.49 220.719C387.316 221.759 386.21 222.252 385.65 222.812C385.355 223.082 385.083 223.376 384.837 223.692C385.02 223.329 385.274 223.008 385.583 222.745C386.143 222.145 387.236 221.625 388.356 220.572C389.757 219.309 390.848 217.74 391.542 215.986C392.462 213.597 392.915 211.053 392.876 208.494C392.847 205.309 392.458 202.138 391.716 199.041C391.476 198.169 391.315 197.277 391.236 196.375C391.194 195.409 391.391 194.447 391.809 193.576C392.228 192.699 392.7 191.848 393.222 191.029C395.816 186.422 396.532 180.993 395.222 175.871C394.181 171.233 391.555 167.103 387.796 164.193L387.556 164.019L387.703 163.779C389.125 161.241 389.517 158.253 388.796 155.434C388.093 152.468 386.59 149.752 384.45 147.582C382.161 145.366 379.48 143.594 376.544 142.356C373.509 141.043 370.392 139.93 367.212 139.023H367.039V138.849C364.238 132.108 358.971 126.689 352.313 123.696C345.654 120.704 338.105 120.363 331.204 122.745L330.977 122.825L330.777 122.638L329.711 121.585C326.007 118.118 321.305 115.906 316.272 115.266C313.827 114.918 311.353 114.815 308.887 114.959C304.087 115.291 299.376 116.413 294.942 118.279C292.755 119.172 290.649 120.305 288.396 121.078C287.278 121.487 286.121 121.778 284.943 121.945C283.78 122.084 282.607 122.124 281.437 122.065C280.277 122.065 279.144 121.945 278.024 121.932C276.915 121.938 275.806 122.005 274.704 122.131C272.53 122.419 270.4 122.97 268.359 123.771C266.391 124.583 264.518 125.607 262.773 126.824C256.259 131.388 251.591 138.131 249.614 145.835C249.255 147.635 248.659 149.378 247.841 151.021C246.911 152.534 245.74 153.885 244.375 155.021C243.113 156.068 241.94 157.218 240.869 158.46C239.874 159.648 239.023 160.951 238.336 162.34C237.051 164.883 236.311 167.666 236.163 170.512C236.096 172.999 236.365 175.483 236.963 177.898C237.45 179.947 237.763 182.034 237.896 184.137C237.986 185.838 237.708 187.538 237.083 189.123C236.523 190.456 235.883 191.549 235.456 192.442C235.109 193.112 234.815 193.807 234.576 194.522C234.416 194.962 234.376 195.229 234.35 195.215Z" fill="#455A64"/>
<path d="M318.512 118.559C318.512 118.559 317.792 118.266 316.486 117.852C314.65 117.249 312.724 116.97 310.793 117.026C307.963 117.099 305.202 117.923 302.794 119.412C299.837 121.268 297.549 124.019 296.262 127.264C295.871 128.235 295.59 129.245 295.422 130.277C295.311 130.735 295.304 131.212 295.401 131.674C295.498 132.135 295.696 132.569 295.982 132.944L296.715 133.703L295.662 133.557C292.954 133.223 290.221 133.949 288.036 135.583C286.309 136.905 285.052 138.746 284.45 140.836C284.044 142.219 283.908 143.667 284.05 145.102C284.17 146.115 284.317 146.648 284.263 146.675C284.185 146.556 284.127 146.426 284.09 146.289C283.961 145.915 283.863 145.532 283.797 145.142C283.543 143.666 283.607 142.152 283.983 140.703C284.549 138.473 285.838 136.494 287.65 135.077C289.948 133.285 292.862 132.475 295.755 132.824L295.435 133.45C295.083 132.999 294.832 132.478 294.698 131.921C294.565 131.364 294.552 130.786 294.662 130.224C294.834 129.126 295.134 128.053 295.555 127.024C296.905 123.633 299.313 120.767 302.421 118.852C304.968 117.319 307.887 116.517 310.86 116.532C312.844 116.52 314.812 116.887 316.659 117.612C317.159 117.804 317.645 118.031 318.112 118.292C318.366 118.439 318.526 118.532 318.512 118.559Z" fill="#455A64"/>
<path d="M363.293 141.542C363.293 141.542 363.08 141.942 362.546 142.569C361.782 143.451 360.923 144.246 359.987 144.942C358.572 146.02 356.938 146.776 355.201 147.155C352.988 147.645 350.671 147.288 348.708 146.155L349.255 145.995L348.668 147.128C348.442 147.502 348.188 147.862 347.948 148.235C346.47 150.279 344.51 151.928 342.242 153.034C340.407 153.938 338.416 154.481 336.376 154.634C335.007 154.723 333.632 154.606 332.297 154.287C331.805 154.185 331.329 154.014 330.884 153.781C332.677 154.11 334.504 154.213 336.323 154.087C338.278 153.872 340.176 153.298 341.922 152.394C344.039 151.306 345.867 149.729 347.255 147.795C347.482 147.435 347.722 147.102 347.935 146.742L348.495 145.675L348.695 145.302L349.041 145.515C350.845 146.562 352.971 146.908 355.014 146.488C356.672 146.167 358.244 145.499 359.627 144.529C362.066 142.876 363.2 141.449 363.293 141.542Z" fill="#455A64"/>
<path d="M379.864 162.913C379.891 163.067 379.891 163.225 379.864 163.379C379.802 163.84 379.671 164.29 379.477 164.713C378.708 166.218 377.406 167.382 375.825 167.979C373.471 168.751 370.945 168.834 368.545 168.219C367.139 167.956 365.746 167.622 364.373 167.219C362.793 166.82 361.404 165.876 360.453 164.553L360.24 164.179L360.853 164.273C358.879 166.445 356.586 168.306 354.054 169.792C351.951 171.007 349.549 171.608 347.122 171.525C345.491 171.484 343.898 171.025 342.496 170.192C342.122 169.962 341.774 169.694 341.456 169.392C341.242 169.179 341.149 169.059 341.162 169.045C341.176 169.032 341.669 169.419 342.642 169.925C344.032 170.64 345.572 171.01 347.135 171.005C349.452 171.007 351.727 170.385 353.721 169.205C356.152 167.715 358.356 165.883 360.267 163.766L360.627 163.406L360.88 163.859L361.066 164.179C361.925 165.344 363.158 166.177 364.559 166.539C365.901 166.946 367.263 167.284 368.639 167.552C370.91 168.192 373.314 168.192 375.585 167.552C377.086 167.045 378.357 166.019 379.171 164.659C379.446 164.096 379.678 163.512 379.864 162.913Z" fill="#455A64"/>
<path d="M393.942 69.5516C393.942 69.5516 393.516 69.6316 392.782 69.9249C391.738 70.3961 390.857 71.1662 390.249 72.1379C389.286 73.6369 388.859 75.4177 389.036 77.1906C389.337 79.4964 389.985 81.7436 390.956 83.8564L391.103 84.243H390.689C387.576 84.6061 384.665 85.9725 382.397 88.1359C381.109 89.3419 380.124 90.835 379.521 92.4936C378.919 94.1523 378.717 95.9297 378.931 97.6813C379.084 99.2693 379.6 100.801 380.439 102.158C381.278 103.515 382.418 104.66 383.77 105.507L384.717 106.054L383.637 106.2C381.84 106.455 380.116 107.083 378.576 108.042C377.036 109.002 375.713 110.273 374.692 111.773C373.068 114.167 372.323 117.05 372.585 119.932C372.743 121.83 373.297 123.674 374.212 125.344C374.865 126.518 375.345 127.077 375.305 127.104C375.265 127.131 375.158 126.997 374.918 126.731C374.571 126.316 374.263 125.869 373.998 125.398C372.966 123.732 372.323 121.854 372.119 119.905C371.771 116.901 372.494 113.871 374.158 111.346C375.218 109.768 376.596 108.427 378.202 107.411C379.809 106.394 381.61 105.723 383.49 105.44L383.357 106.12C381.895 105.226 380.661 104.004 379.751 102.551C378.842 101.098 378.283 99.4539 378.118 97.7479C377.889 95.842 378.136 93.909 378.838 92.122C379.521 90.4376 380.557 88.9192 381.877 87.6693C384.268 85.4108 387.338 84.0048 390.609 83.6698L390.343 84.1097C389.38 81.9156 388.759 79.5865 388.503 77.204C388.348 75.315 388.852 73.4305 389.93 71.8713C390.598 70.8694 391.57 70.1079 392.702 69.6983C392.994 69.5919 393.299 69.5246 393.609 69.4983L393.942 69.5516Z" fill="#455A64"/>
<path d="M446.442 117.492C446.442 117.492 446.322 117.612 446.069 117.785C445.815 117.959 445.429 118.252 444.895 118.545C443.367 119.399 441.724 120.028 440.016 120.412C437.389 121.008 434.668 121.067 432.017 120.585C428.597 120.015 425.398 118.521 422.765 116.266L423.325 116.132C422.429 118.345 421.051 120.331 419.291 121.946C417.532 123.56 415.435 124.762 413.153 125.464C410.687 126.169 408.062 126.079 405.65 125.208C403.238 124.337 401.161 122.729 399.715 120.612L400.355 120.492C399.981 122.24 399.153 123.858 397.955 125.184C396.878 126.373 395.595 127.358 394.169 128.091C391.825 129.249 389.262 129.894 386.65 129.984C384.966 130.076 383.277 130.049 381.597 129.904C380.995 129.889 380.397 129.813 379.811 129.677C380.41 129.634 381.011 129.634 381.61 129.677C383.278 129.726 384.946 129.691 386.61 129.571C389.141 129.409 391.614 128.733 393.875 127.584C395.306 126.876 396.564 125.864 397.561 124.618C398.558 123.372 399.271 121.922 399.648 120.372L399.835 119.492L400.301 120.252C401.675 122.222 403.631 123.715 405.894 124.52C408.158 125.326 410.616 125.404 412.926 124.744C415.102 124.068 417.102 122.921 418.784 121.384C420.466 119.847 421.789 117.959 422.658 115.852L422.858 115.412L423.218 115.732C425.748 117.923 428.819 119.396 432.11 119.998C434.69 120.509 437.344 120.509 439.923 119.998C442.209 119.494 444.407 118.649 446.442 117.492Z" fill="#455A64"/>
<path d="M425.391 157.927C425.391 157.927 425.391 158.127 425.151 158.42C424.805 158.832 424.339 159.125 423.818 159.26C421.942 159.679 419.993 159.634 418.139 159.127C415.358 158.439 412.863 156.895 411.006 154.714C408.737 151.998 407.567 148.531 407.727 144.995L408.327 145.328C405.432 147.294 401.984 148.28 398.488 148.141C395.656 148.052 392.884 147.298 390.396 145.942C388.727 145.054 387.188 143.942 385.823 142.635C385.316 142.177 384.868 141.658 384.49 141.089C386.36 142.794 388.433 144.263 390.662 145.462C393.104 146.699 395.791 147.377 398.528 147.448C401.87 147.528 405.154 146.568 407.927 144.702L408.54 144.262V145.102C408.381 148.141 409.266 151.143 411.048 153.609C412.831 156.075 415.403 157.858 418.339 158.66C420.105 159.193 421.97 159.316 423.791 159.02C424.443 158.869 425.014 158.479 425.391 157.927Z" fill="#455A64"/>
<path d="M339.269 78.2839C338.79 80.884 338.79 83.5496 339.269 86.1496C339.871 89.2641 341.327 92.1499 343.474 94.4852C345.621 96.8204 348.375 98.5132 351.428 99.3745C353.357 99.9352 355.369 100.156 357.373 100.028H357.84V100.494C357.405 103.227 357.487 106.017 358.08 108.72C358.508 110.859 359.245 112.925 360.266 114.853C360.657 115.579 361.103 116.274 361.6 116.932C361.762 117.177 361.979 117.38 362.233 117.526C362.488 117.672 362.773 117.756 363.066 117.772C363.25 117.771 363.431 117.73 363.596 117.652C363.762 117.574 363.909 117.46 364.026 117.319C364.186 117.119 364.199 116.959 364.226 116.972C364.253 116.986 364.226 117.132 364.146 117.386C364.035 117.569 363.881 117.723 363.698 117.834C363.514 117.946 363.307 118.011 363.093 118.025C362.751 118.039 362.412 117.969 362.103 117.823C361.794 117.677 361.526 117.458 361.32 117.186C360.769 116.53 360.274 115.83 359.84 115.092C358.668 113.149 357.804 111.035 357.28 108.827C356.628 106.048 356.51 103.17 356.934 100.348L357.333 100.774C355.24 100.919 353.137 100.693 351.121 100.108C347.628 99.0895 344.524 97.0404 342.215 94.2285C340.382 91.8996 339.159 89.1504 338.656 86.2296C338.318 84.2844 338.318 82.2956 338.656 80.3503C338.745 79.8213 338.874 79.2998 339.043 78.7905C339.089 78.6099 339.165 78.4386 339.269 78.2839Z" fill="#455A64"/>
<path d="M295.462 198.868C294.27 199.798 293.373 201.054 292.882 202.483C292.39 203.913 292.325 205.455 292.693 206.921C293.062 208.387 293.849 209.715 294.958 210.742C296.067 211.769 297.451 212.451 298.941 212.706" fill="#FFCDB2"/>
<path d="M298.941 212.706C298.031 212.759 297.126 212.526 296.355 212.04C295.365 211.539 294.494 210.833 293.8 209.968C293.106 209.103 292.605 208.099 292.331 207.024C292.057 205.95 292.016 204.829 292.211 203.737C292.406 202.645 292.833 201.608 293.462 200.695C294.422 199.361 295.382 198.801 295.408 198.868C295.435 198.935 294.675 199.575 293.875 200.948C293.341 201.821 292.986 202.791 292.831 203.803C292.676 204.814 292.724 205.847 292.972 206.84C293.22 207.832 293.663 208.766 294.276 209.585C294.889 210.405 295.659 211.094 296.541 211.613C297.995 212.44 299.021 212.586 298.941 212.706Z" fill="#FFAE89"/>
<path d="M283.316 214.426C283.236 214.36 283.796 213.626 284.396 212.32C285.195 210.631 285.587 208.778 285.543 206.911C285.5 205.043 285.02 203.211 284.143 201.561C283.721 200.897 283.334 200.212 282.983 199.508C283.653 199.968 284.198 200.586 284.57 201.308C285.614 202.987 286.19 204.914 286.236 206.891C286.283 208.867 285.8 210.82 284.836 212.546C284.09 213.813 283.383 214.426 283.316 214.426Z" fill="#FFAE89"/>
<path d="M317.991 263.753C317.845 264.233 316.165 264.1 313.592 263.913C310.348 263.608 307.077 263.756 303.873 264.353C300.764 265.015 297.85 266.383 295.354 268.352C293.421 269.872 292.421 271.192 291.955 271.019C291.488 270.845 291.808 268.992 293.595 266.686C296.035 263.756 299.403 261.748 303.14 260.993C306.768 260.261 310.522 260.449 314.059 261.54C316.698 262.3 318.138 263.273 317.991 263.753Z" fill="#263238"/>
<path d="M276.531 338.73L304.274 333.171L379.211 326.158L407.434 327.945C407.434 327.945 394.102 395.549 324.471 394.389C287.183 393.776 276.531 338.73 276.531 338.73Z" fill="#FFCDB2"/>
<path d="M442.243 336.37C442.243 336.37 460.907 334.677 475.372 360.58C489.837 386.484 496.249 423.345 496.249 423.345L430.204 423.705L442.243 336.37Z" fill="#2CA6FF"/>
<path d="M239.723 620H452.401L437.59 532.465L435.004 417.226L447.562 336.89L402.235 325.465C402.235 325.465 391.569 377.778 333.004 375.205C274.438 372.632 279.504 336.544 279.504 336.544L222.978 359.087C222.978 359.087 239.483 465.06 255.161 491.137C270.838 517.213 267.332 535.304 267.332 535.304C267.332 535.304 247.375 580.498 239.723 620Z" fill="#2CA6FF"/>
<path opacity="0.15" d="M248.281 585.044C308.82 617.907 384.09 623.706 449.482 602.056L444.562 573.753L254.854 565.754L248.281 585.044Z" fill="black"/>
<path d="M222.631 358.887C222.631 358.887 210.859 363.847 208.62 391.576C206.38 419.306 205.194 435.731 205.62 434.571C206.047 433.411 245.935 424.119 245.935 424.119L222.631 358.887Z" fill="#2CA6FF"/>
<path opacity="0.15" d="M276.531 538.491C276.531 538.491 282.797 520.547 281.797 508.388C280.797 496.23 266.945 362.247 266.945 362.247L279.544 336.49L258.213 348.049L248.281 379.845C248.281 379.845 263.573 529.332 265.439 532.318C267.305 535.305 276.531 538.491 276.531 538.491Z" fill="black"/>
<path d="M437.977 357.98C437.997 358.216 437.997 358.452 437.977 358.687C437.977 359.207 437.883 359.86 437.83 360.66C437.67 362.473 437.443 364.926 437.19 367.926C436.643 374.045 435.963 382.524 435.404 391.923C434.844 401.322 434.524 409.787 434.324 415.92C434.23 418.919 434.164 421.386 434.11 423.212C434.11 423.999 434.044 424.665 434.017 425.185C434.015 425.418 433.992 425.65 433.95 425.878C433.892 425.652 433.869 425.418 433.884 425.185C433.884 424.652 433.884 423.999 433.884 423.212C433.884 421.479 433.884 418.999 433.884 415.92C433.95 409.76 434.19 401.255 434.75 391.923C435.31 382.591 436.083 374.058 436.737 367.926C437.07 364.86 437.363 362.393 437.603 360.687C437.71 359.9 437.803 359.247 437.883 358.714C437.875 358.466 437.907 358.218 437.977 357.98Z" fill="#263238"/>
<path d="M355.72 499.815C355.032 499.473 354.372 499.076 353.747 498.629C352.507 497.842 350.748 496.656 348.588 495.149C344.255 492.15 338.403 487.83 332.19 482.738C325.978 477.645 320.565 472.766 316.765 469.126C314.859 467.313 313.353 465.82 312.326 464.753C311.773 464.229 311.256 463.668 310.78 463.074C311.402 463.517 311.982 464.016 312.513 464.567L317.099 468.78C320.978 472.312 326.431 477.125 332.63 482.204C338.829 487.284 344.628 491.657 348.868 494.749L353.907 498.416C354.549 498.831 355.156 499.3 355.72 499.815Z" fill="#263238"/>
<path d="M475.413 210.765L456.353 252.545L440.174 238.994L423.304 296.165L442.069 258.84L459.265 273.365L486.17 220.197L475.413 210.765Z" fill="#EF6F3A"/>
<path d="M504.462 290.707L471.193 304.609L469.042 288.201L428.873 312.126L459.593 300.626L461.791 318.144L505.664 301.849L504.462 290.707Z" fill="#EF6F3A"/>
<path d="M138.063 61.3833L172.136 101.893L185.97 81.9105L222.317 140.162L189.957 104.503L175.29 125.895L129 75.1375L138.063 61.3833Z" fill="#EF6F3A"/>
<path d="M131.449 154.684L171.911 164.243L171.254 145.157L221.483 164.819L184.368 157.518L185.152 177.885L132.185 167.605L131.449 154.684Z" fill="#EF6F3A"/>
<path d="M208.419 19L218.827 53.8898L233.029 45.0833L240.026 91.8059L229.362 60.4226L214.247 69.9177L198.924 25.1806L208.419 19Z" fill="#EF6F3A"/>
<path d="M276.531 303.575C272.712 300.899 269.319 297.663 266.465 293.976C258.293 306.961 256.573 309.094 256.573 309.094L254.92 303.895V279.031C254.92 279.031 255.653 252.248 255.333 246.035C254.92 237.796 247.814 235.61 246.095 235.903C244.588 236.17 240.615 271.245 237.282 279.404C233.95 287.563 229.124 299.068 229.124 305.374C229.124 311.68 233.576 348.035 233.576 348.035L263.999 355.834C263.999 355.834 274.011 349.889 273.651 326.892C273.464 315.973 274.864 308.907 276.531 303.575Z" fill="#FFCDB2"/>
<path opacity="0.15" d="M261.866 341.729C263.247 334.352 262.472 326.732 259.635 319.783C256.798 312.834 252.018 306.85 245.868 302.548" fill="black"/>
<path d="M245.908 301.842C246.808 301.108 247.552 300.202 248.094 299.175C248.693 297.932 248.951 296.551 248.841 295.176C248.803 294.315 248.692 293.458 248.507 292.616C248.363 291.709 247.971 290.86 247.374 290.163L247.241 290.043V289.91C248.321 284.284 249.681 277.138 251.24 269.192C251.44 266.953 251.84 264.66 252.147 262.327C252.587 258.78 252.907 255.221 251.654 252.195C251.122 250.715 250.201 249.407 248.987 248.408C247.817 247.508 246.506 246.805 245.108 246.329L245.508 246.102C244.268 252.355 243.215 257.594 242.468 261.38C242.095 263.167 241.788 264.593 241.562 265.66C241.47 266.171 241.341 266.674 241.175 267.166C241.205 266.651 241.272 266.139 241.375 265.633C241.562 264.553 241.802 263.113 242.108 261.313C242.801 257.514 243.775 252.248 244.921 245.982V245.635L245.268 245.755C246.733 246.245 248.107 246.975 249.334 247.915C250.635 248.966 251.629 250.348 252.214 251.915C252.854 253.54 253.175 255.274 253.16 257.021C253.156 258.805 253.027 260.587 252.774 262.353C252.467 264.713 252.054 267.006 251.854 269.206C250.267 277.125 248.841 284.27 247.721 289.883L247.614 289.616C248.33 290.389 248.795 291.361 248.947 292.403C249.116 293.282 249.209 294.174 249.227 295.069C249.31 296.502 249.001 297.931 248.334 299.202C247.914 299.994 247.349 300.699 246.668 301.282C246.453 301.515 246.195 301.705 245.908 301.842Z" fill="#FFAE89"/>
<path d="M233.376 348.049C233.376 348.049 201.98 476.432 201.98 477.565C201.98 478.698 189.809 514.827 204.26 532.318C204.26 532.318 206.926 563.874 238.922 556.315C270.918 548.756 270.025 523.186 270.411 517.053C270.798 510.921 262.586 405.668 262.586 405.668L263.812 355.794L233.376 348.049Z" fill="#FFCDB2"/>
<path d="M265.465 532.318C267.772 532.971 296.261 542.583 296.261 542.583L279.157 579.912C279.157 579.912 273.451 580.285 262.799 577.619C252.147 574.953 231.63 564.287 231.63 564.287L226.297 565.434C226.297 565.434 236.469 575.646 229.097 583.311L213.619 570.7C213.619 570.7 209.619 562.887 214.872 557.448C218.031 554.209 231.99 543.343 231.99 543.343L265.465 532.318Z" fill="#FFCDB2"/>
<path d="M212.286 550.502C211.806 549.982 209.726 554.382 208.9 557.035C207.687 560.914 211.059 566.98 212.286 568.207C213.512 569.433 240.962 587.271 240.962 587.271C240.962 587.271 246.162 580.085 240.322 573.766L232.497 566.647L233.83 563.581L228.284 550.382L212.286 550.502Z" fill="#FFCDB2"/>
<path d="M271.011 522.999C270.996 523.289 270.947 523.575 270.864 523.853C270.758 524.399 270.598 525.186 270.331 526.239C268.384 533.494 264.876 540.237 260.052 545.996C258.37 548.036 256.514 549.928 254.507 551.649C252.364 553.532 250.011 555.16 247.494 556.502C242.583 559.084 237.008 560.125 231.496 559.488C227.013 559.117 222.639 557.905 218.605 555.915C215.867 554.611 213.426 552.76 211.432 550.476C210.876 549.871 210.396 549.199 210.006 548.476C209.847 548.242 209.713 547.992 209.606 547.73C209.807 547.928 209.982 548.152 210.126 548.396C210.562 549.081 211.067 549.72 211.632 550.303C213.676 552.475 216.12 554.231 218.831 555.475C222.826 557.375 227.138 558.519 231.55 558.848C236.936 559.433 242.375 558.403 247.174 555.888C249.642 554.571 251.951 552.974 254.053 551.129C256.046 549.444 257.888 547.588 259.559 545.583C262.414 542.199 264.845 538.478 266.798 534.505C268.082 531.806 269.178 529.022 270.078 526.172L270.731 523.813C270.795 523.532 270.889 523.26 271.011 522.999Z" fill="#FFAE89"/>
<path d="M266.945 578.512C266.728 578.53 266.509 578.53 266.292 578.512C265.865 578.512 265.239 578.392 264.426 578.272C262.166 577.839 259.939 577.251 257.76 576.512C250.581 574.025 243.598 571.003 236.869 567.474C234.994 566.514 233.185 565.554 231.443 564.594H231.67L226.337 565.727L226.417 565.127C227.573 566.086 228.556 567.236 229.323 568.527C230.083 569.713 230.723 570.873 231.31 571.98C232.455 573.905 232.804 576.2 232.283 578.379C231.892 579.768 231.21 581.058 230.283 582.165C229.977 582.58 229.603 582.94 229.177 583.232C229.177 583.232 229.537 582.832 230.11 582.032C230.948 580.914 231.556 579.64 231.896 578.285C232.383 576.206 232.034 574.018 230.923 572.193C230.337 571.1 229.683 569.953 228.923 568.807C228.2 567.621 227.301 566.551 226.257 565.634L225.657 565.181L226.35 565.034L231.683 563.874H231.803L231.91 563.941C233.643 564.887 235.469 565.847 237.336 566.794C244.038 570.308 250.963 573.38 258.066 575.992C260.219 576.766 262.414 577.42 264.639 577.952C265.418 578.093 266.188 578.28 266.945 578.512Z" fill="#FFAE89"/>
<path d="M213.992 553.142C213.711 553.968 213.386 554.778 213.019 555.569C211.541 559.491 211.451 563.8 212.765 567.78C213.111 568.581 213.401 569.405 213.632 570.247C213.041 569.573 212.588 568.789 212.299 567.94C211.491 565.938 211.098 563.793 211.141 561.635C211.185 559.477 211.665 557.35 212.552 555.382C212.874 554.545 213.364 553.783 213.992 553.142Z" fill="#FFAE89"/>
<path d="M466.999 565.714C466.839 565.714 466.652 563.168 465.306 559.275L464.759 557.768C464.559 557.248 464.293 556.728 464.053 556.182C463.517 555.018 462.921 553.883 462.266 552.782C460.716 550.288 458.902 547.968 456.854 545.863C454.756 543.813 452.44 541.998 449.948 540.451C448.85 539.787 447.715 539.186 446.548 538.651C446.002 538.411 445.495 538.131 444.962 537.931L443.455 537.384C439.576 536.051 437.003 535.838 437.03 535.678C437.628 535.675 438.226 535.724 438.816 535.824C439.522 535.896 440.222 536.02 440.909 536.198C441.812 536.38 442.703 536.62 443.575 536.918L445.122 537.438C445.655 537.624 446.188 537.891 446.748 538.131C447.948 538.65 449.114 539.242 450.241 539.904C455.418 542.956 459.731 547.279 462.773 552.462C463.425 553.588 464.013 554.749 464.533 555.942C464.773 556.515 465.039 557.035 465.226 557.582L465.732 559.128C466.036 559.998 466.277 560.89 466.452 561.794C466.628 562.477 466.753 563.173 466.826 563.874C466.952 564.479 467.01 565.096 466.999 565.714Z" fill="#FFAE89"/>
<path d="M249.028 231.917C249.14 232.251 249.221 232.595 249.268 232.944C249.414 233.677 249.601 234.663 249.828 235.89C250.294 238.556 250.948 242.222 251.761 246.768L254.56 262.9C255.79 269.447 257.707 275.846 260.28 281.99C262.761 288.172 266.508 293.766 271.278 298.415C275.233 302.172 279.726 305.318 284.61 307.747C286.48 308.673 288.419 309.453 290.409 310.08C291.913 310.544 293.458 310.866 295.022 311.04C296.353 311.14 297.69 311.14 299.021 311.04C297.71 311.335 296.359 311.416 295.022 311.28C293.433 311.154 291.861 310.868 290.329 310.427C288.305 309.831 286.33 309.078 284.423 308.174C279.473 305.768 274.919 302.621 270.918 298.842C266.067 294.137 262.269 288.457 259.773 282.177C257.157 275.994 255.226 269.543 254.014 262.94C252.947 256.847 252.107 251.368 251.348 246.768C250.588 242.169 250.014 238.503 249.641 235.863C249.468 234.623 249.321 233.623 249.214 232.89C249.123 232.572 249.061 232.246 249.028 231.917Z" fill="#FFAE89"/>
<path d="M524.525 551.716C524.525 553.23 524.975 554.71 525.816 555.969C526.657 557.227 527.853 558.208 529.252 558.787C530.651 559.366 532.191 559.516 533.676 559.22C535.16 558.924 536.524 558.194 537.593 557.122C538.663 556.051 539.391 554.686 539.685 553.201C539.978 551.715 539.825 550.176 539.244 548.778C538.663 547.38 537.68 546.186 536.419 545.347C535.159 544.507 533.678 544.061 532.164 544.063C531.16 544.063 530.166 544.261 529.238 544.646C528.31 545.031 527.468 545.595 526.758 546.306C526.049 547.016 525.486 547.86 525.103 548.788C524.72 549.717 524.524 550.712 524.525 551.716Z" fill="white"/>
<path d="M296.275 542.583L437.403 535.611L433.964 423.345H491.983C491.983 423.345 494.649 476.779 495.836 491.683C497.022 506.588 497.409 544.636 495.836 559.541C494.262 574.446 486.597 592.87 457.721 597.203C437.243 600.282 279.17 579.872 279.17 579.872L296.275 542.583Z" fill="#FFCDB2"/>
<circle cx="443.751" cy="593.612" r="25.8161" fill="#EF6F3A" fill-opacity="0.3"/>
<circle cx="443.752" cy="593.612" r="8.60538" fill="#EF6F3A"/>
<circle cx="381.793" cy="326.271" r="25.8161" fill="#EF6F3A" fill-opacity="0.3"/>
<circle cx="381.793" cy="326.271" r="8.60538" fill="#EF6F3A"/>
<circle cx="233.78" cy="546.569" r="25.8161" fill="#EF6F3A" fill-opacity="0.3"/>
<circle cx="233.78" cy="546.569" r="8.60538" fill="#EF6F3A"/>
<circle cx="270.497" cy="139.248" r="25.8161" fill="#EF6F3A" fill-opacity="0.3"/>
<circle cx="270.496" cy="139.248" r="8.60538" fill="#EF6F3A"/>
<path d="M158.404 538.685C158.404 538.685 157.729 539.272 157.272 540.38C156.969 541.167 156.894 542.023 157.054 542.85C157.215 543.677 157.604 544.443 158.179 545.059C160.491 547.008 162.668 549.112 164.695 551.356C167.278 555.091 164.509 560.32 166.451 561.185C167.141 561.765 168.864 561.654 170.655 561.327C172.642 560.78 174.742 560.799 176.719 561.382C177.602 561.876 178.353 562.576 178.905 563.423C179.458 564.271 179.797 565.24 179.892 566.247C180.027 567.39 180.543 568.454 181.356 569.267C181.988 569.879 182.735 570.359 183.554 570.679C184.373 570.999 185.247 571.152 186.126 571.13C187.325 570.781 188.045 570.572 188.244 571.034C188.444 571.496 187.854 571.928 186.295 572.382C185.188 572.669 184.028 572.695 182.909 572.456C181.79 572.218 180.741 571.722 179.847 571.007C178.568 569.969 177.653 568.549 177.236 566.955C176.782 565.396 176.503 564.437 175.567 564.124C174.116 563.922 172.639 564.02 171.228 564.412C170.13 564.784 168.965 564.918 167.811 564.806C166.657 564.693 165.54 564.337 164.535 563.76C163.449 562.854 162.75 561.57 162.578 560.167C162.504 559.133 162.55 558.094 162.717 557.07C163.011 555.67 162.816 554.212 162.164 552.939C160.814 550.535 157.915 548.843 156.41 546.355C155.742 545.414 155.373 544.294 155.35 543.141C155.327 541.987 155.652 540.854 156.283 539.888C157.21 538.382 158.369 538.565 158.404 538.685Z" fill="#263238"/>
<path d="M145.494 550.183C145.494 550.183 145.704 550.902 145.966 551.802C146.18 552.428 146.532 552.999 146.996 553.472C147.46 553.944 148.024 554.307 148.647 554.533C151.045 555.173 153.321 556.202 155.387 557.578C156.081 558.234 156.587 559.063 156.854 559.98C157.121 560.897 157.139 561.868 156.905 562.794C156.537 564.657 155.738 565.931 155.802 566.822C155.867 567.714 158.186 570.095 160.434 570.221C162.894 570.246 165.34 570.606 167.704 571.291C168.573 571.63 169.354 572.16 169.992 572.841C170.629 573.522 171.105 574.337 171.386 575.227C171.753 576.486 171.173 577.175 170.976 577.167C170.624 576.282 170.075 575.489 169.37 574.849C168.665 574.209 167.823 573.738 166.909 573.474C164.726 573.178 162.521 573.08 160.32 573.181C158.677 573.08 157.083 572.585 155.672 571.738C154.774 571.234 154.026 570.501 153.504 569.612C152.983 568.724 152.707 567.713 152.705 566.684C152.966 565.13 153.396 563.609 153.986 562.148C154.097 561.723 154.091 561.275 153.968 560.853C153.845 560.431 153.61 560.05 153.288 559.75C151.882 558.273 149.392 557.763 147.524 556.486C146.697 556.034 146.001 555.375 145.505 554.573C145.009 553.771 144.73 552.853 144.697 551.911C144.57 550.582 145.339 550.098 145.494 550.183Z" fill="#263238"/>
<path d="M524.082 554.093C524.082 554.093 524.92 554.442 525.538 555.925C526.613 557.865 526.89 560.19 526.318 562.469C525.977 564.073 525.257 565.612 524.219 566.959C522.964 568.382 521.46 569.578 519.791 570.48C518.379 571.603 518.2 572.083 519.267 573.661C520.06 574.599 520.437 575.827 520.325 577.107C520.152 577.806 519.81 578.469 519.329 579.038C518.847 579.608 518.242 580.066 517.564 580.374C515.091 581.494 513.297 581.51 512.361 582.762C511.362 584.123 510.819 585.724 510.814 587.321C510.667 589.017 510.745 590.76 510.429 592.478C510.064 594.489 508.924 596.356 507.25 597.687C505.576 599.018 503.499 599.708 501.458 599.611C499.817 599.506 499.115 598.936 499.164 598.841C499.213 598.745 500.055 598.865 501.515 598.663C503.507 598.402 505.393 597.407 506.783 595.885C508.624 593.97 508.542 591.045 508.484 587.368C508.442 585.229 509.173 583.071 510.55 581.269C512.33 579.12 515.054 579.097 516.528 578.208C518.001 577.318 518.36 576.751 517.155 575.001C516.403 574.066 516.081 572.847 516.256 571.598C516.424 570.993 516.719 570.418 517.123 569.912C517.527 569.406 518.03 568.98 518.597 568.665C520.014 567.854 521.304 566.828 522.414 565.63C523.324 564.556 524.002 563.324 524.402 562.018C525.207 559.329 525.094 556.541 524.082 554.093Z" fill="#263238"/>
<path d="M534.607 564.509C534.772 564.716 534.502 566.962 533.538 571C533.059 572.905 532.498 575.099 531.742 577.674C531.37 579.217 530.543 580.661 529.368 581.819C527.937 582.872 526.246 583.487 524.534 583.575C524.006 583.586 523.478 583.741 523.009 584.024C522.54 584.307 522.149 584.707 521.882 585.176C521.39 586.212 521.183 587.332 521.282 588.418C521.778 590.658 521.852 593.007 521.5 595.353C521.242 596.23 520.735 597.04 520.04 597.682C519.345 598.325 518.492 598.773 517.586 598.972C516.23 599.147 515.774 598.495 515.823 598.4C515.872 598.304 516.545 598.446 517.435 598.077C518.03 597.787 518.558 597.365 518.973 596.849C519.387 596.332 519.676 595.737 519.814 595.113C519.871 592.973 519.603 590.867 519.019 588.863C518.826 587.342 519.075 585.757 519.74 584.285C520.207 583.453 520.875 582.733 521.678 582.193C522.482 581.653 523.394 581.311 524.328 581.201C525.957 580.977 527.105 580.854 527.852 580.147C528.672 579.313 529.264 578.296 529.564 577.207C530.349 575.059 531.068 572.908 531.798 570.692C533.276 566.752 534.252 564.453 534.607 564.509Z" fill="#263238"/>
<path d="M201.332 80.6972C200.715 79.56 188.872 45.2461 188.872 45.2461L182.498 54.51L168 28.2189L180.789 70.7924L187.543 60.4757L201.332 80.6972Z" fill="#F5F5F5"/>
<path d="M260.89 82.5719C260.959 81.7326 266.584 58.7714 266.584 58.7714L259.824 61.5893L261.162 42.0825L253.134 69.8984L260.42 66.636L260.89 82.5719Z" fill="#EBEBEB"/>
<path d="M579 66.79C579 66.79 582.68 41.36 582.23 40.25C581.78 39.14 593.73 64.8 593.74 65.87C593.75 66.94 616.83 31 616.83 31L613.94 71.59L634.58 66.44L622.1 80.04L642.38 82.91C642.38 82.91 622.7 93.56 621.49 94.27L631.84 86L615.47 83L624.01 72.6L610.31 77.41L610.7 49.64L593.7 70.75L584.38 55.61L579 66.79Z" fill="#F5F5F5"/>
<path d="M29.43 489L8 501L35.79 503.87L27.2 526.94L50.36 509.94C50.36 509.94 55.46 526.2 55.67 525.86C55.88 525.52 67.61 512.93 67.61 512.93L57.44 520L50.94 506.79L36.27 513.87L40.57 501.45L20.33 498.91L29.43 489Z" fill="#F5F5F5"/>
</svg>
