<svg width="46" height="53" viewBox="0 0 46 53" fill="none" xmlns="http://www.w3.org/2000/svg">
<path d="M10.1479 51.2002C5.41483 51.2002 1.57788 47.3632 1.57788 42.6301L1.57788 29.1641L1.57788 22.7781L1.57787 9.56995C1.57787 4.83684 5.41482 0.999896 10.1479 0.999895C14.881 0.999894 18.718 4.83684 18.718 9.56995L18.718 23.14L18.718 29.5261L18.718 42.6301C18.718 47.3632 14.8811 51.2002 10.1479 51.2002Z" stroke="#FFE57F" stroke-width="2"/>
<path d="M36.248 51.2002C31.5149 51.2002 27.678 47.3632 27.678 42.6301L27.678 29.1641L27.678 22.7781L27.678 9.56995C27.678 4.83684 31.5149 0.999896 36.248 0.999895C40.9811 0.999894 44.8181 4.83684 44.8181 9.56995L44.8181 23.14L44.8181 29.5261L44.8181 42.6301C44.8181 47.3632 40.9812 51.2002 36.248 51.2002Z" stroke="#FFE57F" stroke-width="2"/>
</svg>
