<svg width="46" height="53" viewBox="0 0 46 53" fill="none" xmlns="http://www.w3.org/2000/svg">
<path fill-rule="evenodd" clip-rule="evenodd" d="M0.577887 42.6302C0.577888 47.9156 4.86255 52.2003 10.1479 52.2003C15.4333 52.2003 19.718 47.9156 19.718 42.6302L19.718 9.57006C19.718 4.28466 15.4333 0 10.1479 0C4.86254 0 0.577881 4.28466 0.577881 9.57005L0.577887 42.6302ZM17.718 22.1021L17.718 9.57006C17.718 5.38923 14.3288 2 10.1479 2C5.96711 2 2.57788 5.38923 2.57788 9.57005L2.57788 21.8158L17.718 22.1021ZM2.57788 23.8162L2.57788 28.2019L17.718 28.4882L17.718 24.1025L2.57788 23.8162ZM17.718 30.4885L2.57788 30.2022L2.57789 42.6302C2.57789 46.8111 5.96712 50.2003 10.1479 50.2003C14.3288 50.2003 17.718 46.8111 17.718 42.6302L17.718 30.4885ZM26.678 42.6302C26.678 47.9156 30.9627 52.2003 36.248 52.2003C41.5334 52.2003 45.8181 47.9156 45.8181 42.6302L45.8181 9.57006C45.8181 4.28466 41.5334 0 36.248 0C30.9626 0 26.678 4.28466 26.678 9.57005L26.678 42.6302ZM43.8181 22.1021L43.8181 9.57006C43.8181 5.38923 40.4289 2 36.248 2C32.0672 2 28.678 5.38923 28.678 9.57005L28.678 21.8158L43.8181 22.1021ZM28.678 23.8162L28.678 28.2019L43.8181 28.4882V24.1025L28.678 23.8162ZM43.8181 30.4885L28.678 30.2022L28.678 42.6302C28.678 46.8111 32.0672 50.2003 36.248 50.2003C40.4289 50.2003 43.8181 46.8111 43.8181 42.6302L43.8181 30.4885Z" fill="#FFE57F"/>
</svg>
