<svg width="65" height="56" viewBox="0 0 65 56" fill="none" xmlns="http://www.w3.org/2000/svg">
<path fill-rule="evenodd" clip-rule="evenodd" d="M28.0723 6.7916C26.2785 4.84967 23.9462 3.35971 21.2186 2.57972C13.2915 0.312808 5.02754 4.90135 2.76063 12.8285C1.98064 15.5561 2.01225 18.3235 2.71221 20.8727L28.0723 6.7916ZM3.38115 22.7889L29.3451 8.3725C30.0844 9.43019 30.6854 10.5806 31.1313 11.7934L5.3405 26.1137C4.54679 25.0941 3.88804 23.9757 3.38115 22.7889ZM6.70833 27.6418C8.41865 29.3067 10.5539 30.5843 13.0094 31.2865C20.9366 33.5535 29.2005 28.9649 31.4674 21.0377C32.1697 18.5822 32.2141 16.0943 31.7052 13.7624L6.70833 27.6418ZM12.4595 33.2095C21.4487 35.7801 30.8198 30.5768 33.3904 21.5876C35.961 12.5985 30.7577 3.22741 21.7685 0.656802C12.7794 -1.91381 3.40832 3.28946 0.837711 12.2786C-1.7329 21.2678 3.47037 30.6388 12.4595 33.2095Z" fill="#2CA6FF"/>
<path fill-rule="evenodd" clip-rule="evenodd" d="M59.0251 28.3844C57.2314 26.4424 54.8991 24.9525 52.1715 24.1725C44.2444 21.9056 35.9804 26.4941 33.7135 34.4213C32.9335 37.1488 32.9651 39.9162 33.6651 42.4655L59.0251 28.3844ZM34.334 44.3817L60.298 29.9653C61.0373 31.023 61.6383 32.1734 62.0841 33.3862L36.2934 47.7065C35.4997 46.6869 34.8409 45.5685 34.334 44.3817ZM37.6612 49.2346C39.3715 50.8994 41.5067 52.1771 43.9623 52.8793C51.8895 55.1462 60.1534 50.5577 62.4203 42.6305C63.1225 40.1749 63.1669 37.6871 62.6581 35.3551L37.6612 49.2346ZM43.4124 54.8022C52.4016 57.3728 61.7726 52.1696 64.3432 43.1804C66.9139 34.1912 61.7106 24.8202 52.7214 22.2496C43.7323 19.679 34.3612 24.8822 31.7906 33.8714C29.22 42.8606 34.4232 52.2316 43.4124 54.8022Z" fill="#2CA6FF"/>
</svg>
