<svg width="54" height="54" viewBox="0 0 54 54" fill="none" xmlns="http://www.w3.org/2000/svg">
<circle cx="27" cy="27" r="27" fill="#2CA6FF"/>
<path d="M30.4813 16.3234C32.4716 16.8925 34.1821 17.9644 35.5143 19.3616L16.5175 29.9096C16.0358 28.04 16.0304 26.0215 16.5995 24.0312C18.3044 18.0694 24.5195 14.6185 30.4813 16.3234ZM17.1982 31.8192L36.7754 20.949C37.1846 21.5719 37.5315 22.2344 37.8105 22.9262L18.3292 33.7432C17.8895 33.1407 17.5105 32.4959 17.1982 31.8192ZM24.3074 37.913C22.5142 37.4002 20.9481 36.4793 19.6812 35.2801L38.4002 24.8864C38.7483 26.5958 38.702 28.4119 38.1892 30.2051C36.4843 36.1669 30.2692 39.6179 24.3074 37.913Z" stroke="#333333" stroke-width="2"/>
</svg>
