<svg width="54" height="54" viewBox="0 0 54 54" fill="none" xmlns="http://www.w3.org/2000/svg">
<circle cx="27" cy="27" r="27" fill="#2CA6FF"/>
<path fill-rule="evenodd" clip-rule="evenodd" d="M34.6076 19.8649C33.422 18.6837 31.9292 17.7775 30.2063 17.2848C24.7755 15.7317 19.1139 18.8753 17.5609 24.3061C17.0682 26.0291 17.0482 27.7753 17.424 29.4061L34.6076 19.8649ZM18.075 31.3322L35.8983 21.4359C36.3122 22.056 36.658 22.7201 36.9287 23.4157L19.2108 33.2536C18.7635 32.6561 18.3826 32.0114 18.075 31.3322ZM20.6027 34.7683C21.7135 35.7558 23.0577 36.5155 24.5822 36.9515C30.013 38.5045 35.6746 35.3609 37.2276 29.9301C37.6635 28.4056 37.7294 26.863 37.4785 25.3981L20.6027 34.7683ZM24.0323 38.8744C30.5251 40.7311 37.2938 36.9728 39.1505 30.48C41.0072 23.9872 37.249 17.2186 30.7562 15.3619C24.2633 13.5051 17.4947 17.2634 15.638 23.7562C13.7812 30.249 17.5395 37.0177 24.0323 38.8744Z" fill="#333333"/>
</svg>
