<svg width="358" height="75" viewBox="0 0 358 75" fill="none" xmlns="http://www.w3.org/2000/svg">
<path d="M176.653 14.835L166.948 16.9655V48.9232C166.948 56.814 170.704 61.5485 177.853 61.5485C180.934 61.6539 183.967 60.7628 186.501 59.0076V51.685C185.056 52.2516 183.523 52.5614 181.972 52.6003C178.5 52.6003 176.653 50.8959 176.653 46.6507V31.8475H186.501V24.0514H176.653V14.835Z" fill="#4D4D4D"/>
<path d="M152.287 5.69678C151.494 5.70902 150.711 5.87844 149.984 6.19522C149.257 6.512 148.6 6.96985 148.051 7.54226C147.502 8.11468 147.072 8.79029 146.786 9.52999C146.5 10.2697 146.363 11.0588 146.384 11.8516C146.384 13.4254 147.01 14.9347 148.122 16.0475C149.235 17.1603 150.745 17.7855 152.318 17.7855C153.892 17.7855 155.401 17.1603 156.514 16.0475C157.627 14.9347 158.252 13.4254 158.252 11.8516C158.267 11.0552 158.124 10.2638 157.832 9.52277C157.539 8.78179 157.103 8.10589 156.549 7.53392C155.995 6.96195 155.333 6.5052 154.601 6.18991C153.87 5.87463 153.083 5.70704 152.287 5.69678Z" fill="#4D4D4D"/>
<path d="M125.442 43.7462C124.653 45.9398 123.738 48.4807 122.949 50.8953H122.523C121.828 48.4965 121.039 46.65 120.045 43.9514L112.328 24.0508H101.849L116.51 60.743H127.273L142.029 24.0508H132.797L125.442 43.7462Z" fill="#4D4D4D"/>
<path d="M157.321 24.0508H147.332V60.743H157.321V24.0508Z" fill="#4D4D4D"/>
<path d="M356.532 23.7666C350.22 23.7666 347.174 27.9487 345.485 34.1825H345.059V24.0507H335.78V60.7429H345.769V44.5194C345.769 37.7964 348.926 33.3302 355.238 33.3302H358V23.7666H356.532Z" fill="#4D4D4D"/>
<path d="M291.559 23.3408C285.468 23.3408 280.875 25.6134 278.808 31.2316H278.382C276.614 26.0553 272.369 23.3408 265.141 23.3408C259.049 23.3408 254.725 25.5345 252.674 31.2316H252.247V24.051H243.031V60.7432H253.021V41.6948C253.021 35.7452 256.272 31.8471 261.385 31.8471C266.498 31.8471 269.449 34.1828 269.449 41.1267V60.7432H279.329V41.9789C279.329 35.6662 282.485 31.8471 287.693 31.8471C292.648 31.8471 295.773 34.1828 295.773 41.1267V60.7432H305.763V37.8757C305.81 28.5172 301.423 23.3408 291.559 23.3408Z" fill="#4D4D4D"/>
<path d="M223.477 30.8529H223.051C220.431 25.3293 215.334 23.3408 209.952 23.3408C198.684 23.3408 191.883 32.2732 191.883 42.7522C191.883 53.2312 198.053 61.4534 209.384 61.4534C212.133 61.5826 214.865 60.9494 217.277 59.6237C219.688 58.298 221.687 56.3315 223.051 53.9413H223.477V60.7432H232.757V24.051H223.477V30.8529ZM212.288 52.9471C206.481 52.9471 202.093 49.1279 202.093 42.405C202.093 35.682 206.481 31.8471 212.288 31.8471C218.459 31.8471 222.783 35.8083 222.783 42.405C222.875 43.8092 222.667 45.217 222.173 46.5347C221.679 47.8523 220.91 49.0497 219.917 50.047C218.924 51.0443 217.731 51.8188 216.415 52.3188C215.1 52.8188 213.693 53.033 212.288 52.9471Z" fill="#4D4D4D"/>
<path d="M325.505 24.0508H315.516V60.743H325.505V24.0508Z" fill="#4D4D4D"/>
<path d="M320.471 5.69678C319.678 5.70902 318.895 5.87844 318.168 6.19522C317.441 6.512 316.784 6.96985 316.235 7.54226C315.686 8.11468 315.256 8.79029 314.97 9.52999C314.684 10.2697 314.548 11.0588 314.569 11.8516C314.569 13.4254 315.194 14.9347 316.307 16.0475C317.42 17.1603 318.929 17.7855 320.503 17.7855C322.076 17.7855 323.586 17.1603 324.699 16.0475C325.811 14.9347 326.437 13.4254 326.437 11.8516C326.451 11.0552 326.308 10.2638 326.016 9.52277C325.724 8.78179 325.288 8.10589 324.733 7.53392C324.179 6.96195 323.517 6.5052 322.786 6.18991C322.054 5.87463 321.268 5.70704 320.471 5.69678Z" fill="#4D4D4D"/>
<path d="M78.9022 22.6616C77.5715 24.813 75.7133 26.5889 73.5038 27.8207C71.2942 29.0525 68.8067 29.6994 66.277 29.7002H40.553L53.415 51.968C54.6813 54.1584 55.3676 56.6356 55.409 59.1653C55.4505 61.695 54.8456 64.1934 53.6517 66.424L78.9022 22.6616Z" fill="#33E8FF"/>
<path d="M40.5531 29.7002H14.8449C12.3143 29.704 9.82503 29.0589 7.61473 27.8267C5.40444 26.5944 3.54694 24.8161 2.2196 22.6616L27.4702 66.424C26.2739 64.1947 25.6663 61.697 25.705 59.1673C25.7436 56.6377 26.4272 54.1597 27.6911 51.968L40.5531 29.7002Z" fill="#FFCD29"/>
<path d="M40.553 29.701H66.277C68.8832 29.7 71.4432 29.0131 73.6999 27.7095C75.9565 26.4058 77.8304 24.5312 79.1332 22.274C80.436 20.0168 81.1218 17.4565 81.1218 14.8504C81.1218 12.2442 80.4359 9.6839 79.1331 7.42673C77.8302 5.16957 75.9563 3.295 73.6996 1.99137C71.4429 0.687742 68.8829 0.00095205 66.2767 9.89111e-07C63.6706 -0.000950072 61.11 0.683971 58.8524 1.98595C56.5947 3.28794 54.7194 5.16113 53.415 7.41735L40.553 29.701Z" fill="#2369FF"/>
<path d="M40.5532 29.7007L27.707 51.9685C26.3941 54.2192 25.7075 56.7803 25.7185 59.3859C25.7134 61.6664 26.2336 63.9174 27.2388 65.9645C28.2439 68.0115 29.707 69.7996 31.5146 71.19C33.3222 72.5804 35.4258 73.5359 37.6622 73.9823C39.8986 74.4286 42.2077 74.354 44.4106 73.764C46.6135 73.1741 48.6509 72.0847 50.3649 70.5804C52.0789 69.0761 53.4234 67.1972 54.2942 65.0895C55.165 62.9818 55.5387 60.7018 55.3862 58.4264C55.2338 56.151 54.5594 53.9412 53.4152 51.9685L40.5532 29.7007Z" fill="#3CBD42"/>
<path d="M40.553 29.701H14.8448C12.2386 29.7 9.67861 29.0131 7.42193 27.7095C5.16525 26.4058 3.29139 24.5312 1.9886 22.274C0.685813 20.0168 -2.16288e-05 17.4565 5.1158e-10 14.8504C2.16298e-05 12.2442 0.685898 9.6839 1.98872 7.42673C3.29155 5.16957 5.16544 3.295 7.42215 1.99137C9.67885 0.687742 12.2389 0.00095205 14.8451 9.89111e-07C17.4512 -0.000950072 20.0118 0.683971 22.2694 1.98595C24.5271 3.28794 26.4023 5.16113 27.7068 7.41735L40.553 29.701Z" fill="#FF5722"/>
</svg>
